<svg width="267" height="83" viewBox="0 0 267 83" fill="none" xmlns="http://www.w3.org/2000/svg">
<path d="M51.0158 41.3377C50.0302 41.6303 49.0533 41.8277 48.7418 42.0867C49.6236 41.8805 50.5142 41.5791 51.0158 41.3377ZM20.8153 50.7274C21.456 50.0193 24.2052 49.3142 26.2802 48.6428C24.4639 49.6259 22.7091 49.9433 20.8153 50.7274ZM40.5893 44.2105C39.9064 44.3393 39.7251 44.2266 38.9384 44.4416C39.9328 44.0539 41.2123 43.6926 42.0941 43.4864C41.4975 43.719 41.1948 43.8828 40.5893 44.2105ZM32.6181 46.4471C32.7307 46.2657 33.8976 46.0858 34.3993 45.8444C34.2866 46.0258 33.1109 46.3008 32.6181 46.4471ZM140.199 29.5364C139.422 29.6563 139.24 29.5436 139.05 29.526C135.783 29.6077 138.973 29.327 140.199 29.5364ZM163.3 28.507C164.726 28.6388 163.422 28.2304 164.96 28.1808C164.666 28.2496 164.277 28.3095 164.45 28.5173C165.115 28.5789 165.029 28.475 165.608 28.4326C165.201 28.6828 163.862 28.6548 163.3 28.507ZM219.968 31.4447C220.841 31.3336 218.922 31.348 219.234 31.0891C219.51 31.2105 220.27 31.2808 220.936 31.3424C221.013 31.5414 220.538 31.4974 219.968 31.4447ZM188.455 29.1064C188.758 28.9425 189.432 28.9089 190.089 29.0656C189.777 29.3245 189.043 28.9689 188.455 29.1064ZM175.286 28.4642C175.304 28.274 176.064 28.3443 176.73 28.4058C176.902 28.6136 175.77 28.4131 175.286 28.4642ZM196.587 29.2827C196.016 29.23 195.446 29.1773 195.161 29.1509C195.17 29.0558 196.889 29.1189 196.587 29.2827ZM262.815 35.5985C263.204 35.5385 264.353 35.5489 265.191 35.8182C264.517 35.8518 264.033 35.903 262.815 35.5985ZM1.47602 55.6538C1.20848 55.4372 2.30673 54.9632 2.13423 54.7554C3.22369 54.3765 2.8682 55.111 1.47602 55.6538ZM255.549 34.3511C255.463 34.2472 255.757 34.1785 255.852 34.1873C256.033 34.3 256.699 34.3615 256.5 34.439C256.31 34.4214 255.93 34.3863 255.549 34.3511ZM247.515 33.1286C247.324 33.111 247.143 32.9983 246.858 32.9719C247.618 33.0422 246.988 32.6003 247.835 32.7745C247.912 32.9735 247.437 32.9296 247.515 33.1286ZM223.403 28.501C223.412 28.4059 224.163 28.5713 224.181 28.3811C225.123 28.5641 224.146 28.7615 223.403 28.501ZM227.49 28.8789C227.015 28.8349 227.024 28.7398 226.548 28.6959C226.462 28.592 226.946 28.5408 226.566 28.5057C226.869 28.3418 227.309 28.7662 227.49 28.8789ZM253.004 31.8136C252.805 31.8912 251.293 31.6554 251.596 31.4916C252.918 31.7097 251.64 31.016 252.876 31.1303C252.953 31.3293 253.705 31.4947 254.75 31.5914C255.208 31.8255 254.257 31.7377 254.24 31.9279C254.162 31.7289 253.212 31.641 252.659 31.398C252.546 31.5795 252.434 31.7609 253.004 31.8136ZM255.493 31.8519C255.692 31.7744 256.262 31.8271 256.927 31.8886C256.806 32.1652 256.054 31.9998 255.493 31.8519ZM257.403 31.9326C258.068 31.9941 258.629 32.1419 259.295 32.2035C259.363 32.4976 257.186 32.2003 257.403 31.9326ZM261.463 32.5958C262.051 32.4583 263.07 32.8403 263.64 32.893C264.184 33.2311 261.834 32.7261 261.463 32.5958ZM211.248 26.226C210.583 26.1644 210.6 25.9742 210.514 25.8703C210.799 25.8967 210.817 25.7065 211.283 25.8455C211.836 26.0885 210.799 25.8967 211.248 26.226ZM209.546 25.9727C209.347 26.0502 209.071 25.9287 208.786 25.9023C208.803 25.7121 209.183 25.7473 209.011 25.5395C210.151 25.6449 208.984 25.8248 209.546 25.9727ZM5.32145 50.3499C5.44287 50.0733 6.34224 49.6769 7.04273 49.358C7.12019 49.557 5.71921 50.1948 5.32145 50.3499ZM249.611 30.1569C250.293 30.0282 250.959 30.0897 251.797 30.3591C251.313 30.4102 250.561 30.2448 249.611 30.1569ZM207.205 25.3725C206.35 25.2934 207.032 25.1647 207.231 25.0872C207.905 25.0536 207.888 25.2438 208.467 25.2014C208.268 25.279 207.318 25.1911 207.205 25.3725ZM227.372 27.0454C227.199 26.8376 228.504 27.246 228.331 27.0382C227.865 26.8992 226.457 26.5771 227.148 26.3533C228.09 26.5363 228.444 26.8568 229.489 26.9535C229.273 27.2212 228.504 27.246 227.372 27.0454ZM194.478 24.0997C194.953 24.1437 195.912 24.1365 195.705 24.3091C195.134 24.2564 194.555 24.2987 194.478 24.0997ZM195.463 23.8072C195.939 23.8511 195.93 23.9462 196.414 23.8951C196.431 23.7049 196.051 23.6697 196.63 23.6273C196.544 23.5234 196.06 23.5746 195.68 23.5394C195.671 23.6345 195.956 23.6609 195.939 23.8511C195.749 23.8336 195.377 23.7033 194.988 23.7632C195.291 23.5994 195.412 23.3228 196.182 23.298C195.629 23.0551 194.928 23.374 194.462 23.235C194.108 22.9145 195.43 23.1326 195.448 22.9424C196.113 23.0039 196.087 23.2893 197.141 23.2908C196.458 23.4195 197.391 23.6976 197.563 23.9054C197.831 24.122 195.333 24.1788 195.463 23.8072ZM241.88 27.7155C241.699 27.6028 241.034 27.5413 241.233 27.4638C241.993 27.5341 241.708 27.5077 242.459 27.6731C242.364 27.6643 241.984 27.6292 241.88 27.7155ZM191.905 22.9026C192.302 22.7475 191.732 22.6948 192.13 22.5397C192.596 22.6788 192.959 22.9041 191.905 22.9026ZM204.399 23.5783C204.408 23.4832 204.313 23.4744 204.123 23.4568C204.616 23.3106 204.046 23.2578 204.348 23.094C205.014 23.1555 204.625 23.2154 204.607 23.4057C204.598 23.5008 204.892 23.432 205.073 23.5447C205.065 23.6398 204.875 23.6222 204.399 23.5783ZM194.117 22.8194C193.573 22.4813 192.242 22.3583 191.699 22.0202C192.848 22.0306 195.414 22.2679 194.117 22.8194ZM220.402 24.6743C219.927 24.6304 219.936 24.5353 219.46 24.4913C219.478 24.3011 219.953 24.3451 219.202 24.1796C219.124 23.9806 220.342 24.2851 219.979 24.0597C220.265 24.0861 220.247 24.2763 220.731 24.2251C220.8 24.5193 220.42 24.4841 220.402 24.6743ZM261.433 29.8113C260.854 29.8536 259.636 29.5492 259.265 29.4189C259.749 29.3677 260.863 29.7585 261.433 29.8113ZM235.368 25.5786C235.385 25.3883 236.422 25.5801 237.087 25.6416C236.785 25.8055 236.128 25.6489 235.368 25.5786ZM236.82 25.4251C236.621 25.5026 235.489 25.302 234.919 25.2493C235.412 25.103 235.869 25.3372 236.82 25.4251ZM234.651 25.0327C234.461 25.0151 234.28 24.9024 233.9 24.8673C234.013 24.6859 234.306 24.6171 234.419 24.4357C235.084 24.4972 236.294 24.8968 236.311 24.7066C237.167 24.7857 236.665 25.027 237.529 25.011C236.941 25.1485 235.628 24.8353 234.678 24.7474C234.66 24.9376 235.135 24.9815 234.651 25.0327ZM260.104 28.6332C259.439 28.5717 259.361 28.3727 259.465 28.2864C260.217 28.4518 260.234 28.2616 260.692 28.4957C260.588 28.5821 260.027 28.4342 260.104 28.6332ZM17.5287 41.6945C19.8467 40.47 23.0288 39.2295 25.1303 38.2727C25.7956 38.3342 23.1414 39.048 23.2101 39.3422C20.9361 40.0911 19.6038 41.0231 17.5287 41.6945ZM156.133 19.9786C156.34 19.8059 155.77 19.7532 155.39 19.718C156.073 19.5893 156.073 19.5893 155.615 19.3552C156.186 19.4079 156.756 19.4606 157.525 19.4358C157.317 19.6085 157.896 19.5661 157.784 19.7475C157.412 19.6173 156.367 19.5206 156.34 19.8059C156.427 19.9098 157.101 19.8762 157.11 19.7811C157.662 20.0241 156.798 20.0401 156.133 19.9786ZM11.0782 44.0717C11.1997 43.7951 12.3842 43.425 13.0847 43.1061C12.7731 43.3651 11.8738 43.7615 11.0782 44.0717ZM242.662 25.4856C242.955 25.4169 244.182 25.6262 244.848 25.6877C244.26 25.8252 243.698 25.6774 242.662 25.4856ZM173.572 20.0563C173.191 20.0211 173.01 19.9085 173.123 19.727C173.797 19.6934 174.082 19.7198 174.557 19.7637C174.349 19.9364 173.494 19.8573 173.572 20.0563ZM16.5607 41.7968C16.4745 41.6929 16.6821 41.5203 17.175 41.374C17.1837 41.2789 16.3794 41.6842 15.9904 41.7441C16.6135 41.2262 18.2908 40.7098 18.5583 40.9264C17.6678 41.2278 17.3387 41.6769 16.5607 41.7968ZM220.12 22.538C220.881 22.6083 220.872 22.7034 221.347 22.7473C221.131 23.0151 220.008 22.7194 220.12 22.538ZM204.878 21.5123C204.023 21.4332 204.619 21.2006 205.38 21.2709C205.552 21.4787 204.982 21.4259 204.878 21.5123ZM217.441 22.4821C216.206 22.3679 214.581 22.3136 214.029 22.0706C214.132 21.9843 214.426 21.9156 214.988 22.0634C214.53 21.8292 214.037 21.9755 213.096 21.7925C213.805 21.3785 216.024 22.2552 216.734 21.8411C217.684 21.929 217.961 22.0505 218.427 22.1896C218.504 22.3886 216.993 22.1528 217.441 22.4821ZM216.984 22.248C216.508 22.204 216.336 21.9962 215.567 22.021C215.558 22.1161 215.463 22.1073 215.264 22.1849C215.834 22.2376 216.31 22.2815 216.984 22.248ZM261.211 28.0641C260.269 27.8811 260.097 27.6733 259.06 27.4816C258.983 27.2826 259.544 27.4304 260.019 27.4743C260.563 27.8124 260.192 27.6821 261.704 27.9179C261.695 28.013 261.039 27.8563 261.211 28.0641ZM230.462 23.6861C230.454 23.7812 229.607 23.607 229.227 23.5719C229.244 23.3817 229.91 23.4432 230.195 23.4695C231.232 23.6613 229.132 23.5631 230.462 23.6861ZM203.85 21.2254C203.66 21.2078 203.669 21.1127 203.574 21.1039L202.813 21.0336C202.736 20.8346 203.954 21.139 203.591 20.9137C204.067 20.9576 204.058 21.0527 204.542 21.0016C204.809 21.2181 203.954 21.139 203.85 21.2254ZM28.8739 37.18C28.675 37.2576 28.5799 37.2488 28.3811 37.3263C28.3899 37.2312 28.286 37.3175 28.0959 37.2999C28.1135 37.1097 28.9002 36.8947 28.719 36.782C29.5919 36.6709 28.8915 36.9898 28.8739 37.18ZM199.089 20.8811L198.139 20.7932C198.917 20.6733 197.975 20.4903 199.124 20.5006L199.089 20.8811ZM180.874 19.8682C181.376 19.6268 182.991 19.7762 184.245 19.7003C183.725 20.1319 182.507 19.8274 180.874 19.8682ZM219.101 22.156C220.44 22.1839 221.391 22.2718 222.22 22.6362C221.27 22.5483 219.256 22.554 219.101 22.156ZM163.859 19.3501C163.756 19.4364 163.28 19.3925 162.9 19.3573C162.633 19.1407 162.736 19.0544 163.601 19.0384C163.583 19.2286 163.194 19.2886 163.859 19.3501ZM157.629 19.3495C158.027 19.1944 157.638 19.2544 157.655 19.0642C156.886 19.089 157.439 19.3319 156.203 19.2177C156.23 18.9323 157.275 19.029 157.863 18.8915C157.975 18.7101 157.016 18.7173 157.129 18.5359C158.555 18.6677 156.897 17.9389 159.083 18.141C159.065 18.3312 158.019 18.2345 158.097 18.4336C158.943 18.6078 158.996 18.0371 160.327 18.1601C160.119 18.3328 159.73 18.3927 159.151 18.4351C159.332 18.5478 159.704 18.6781 160.084 18.7132C160.948 18.6972 160.776 18.4894 161.26 18.4382C161.839 18.3959 162.21 18.5261 162.193 18.7163C161.804 18.7763 161.501 18.9402 161.017 18.9913C160.265 18.8259 159.211 18.8243 158.148 18.9179C158.13 19.1081 158.511 19.1433 158.891 19.1784C158.778 19.3599 158.199 19.4022 157.629 19.3495ZM210.728 21.4777C210.253 21.4338 209.778 21.3898 209.303 21.3459C210.461 21.2611 209.813 21.0094 211.239 21.1412C211.212 21.4265 210.832 21.3914 210.728 21.4777ZM184.521 19.8217C184.435 19.7179 184.72 19.7442 185.014 19.6755C185.022 19.5804 184.737 19.554 184.755 19.3638C185.411 19.5204 185.343 19.2263 186.189 19.4005L186.163 19.6858C185.67 19.8321 185.281 19.8921 184.521 19.8217ZM107.106 21.4884C106.337 21.5132 107.029 21.2893 106.562 21.1503C106.752 21.1679 107.133 21.203 107.522 21.1431C107.418 21.2294 106.839 21.2718 107.106 21.4884ZM17.6343 40.5532C17.0464 40.6907 15.7405 41.3373 15.7669 41.052C16.4586 40.8282 16.9514 40.6819 17.5656 40.2591C17.9546 40.1991 17.453 40.4405 17.6343 40.5532ZM25.6758 37.5558L27.0592 37.1082C27.0504 37.2033 25.5544 37.8323 25.6758 37.5558ZM194.77 19.9061C193.906 19.9221 193.629 19.8007 193.068 19.6528C193.37 19.489 194.787 19.7159 194.77 19.9061ZM249.1 25.3136C248.815 25.2872 248.729 25.1833 248.357 25.053C248.461 24.9667 249.593 25.1673 250.068 25.2112C249.955 25.3927 249.022 25.1145 249.1 25.3136ZM237.548 23.7658L235.846 23.5125C235.76 23.4086 237.575 23.4805 237.548 23.7658ZM252.53 25.5348C253.187 25.6915 253.567 25.7266 254.232 25.7881C254.319 25.892 252.323 25.7075 252.53 25.5348ZM128.403 19.237C128.515 19.0556 129.57 19.0571 130.14 19.1098C129.751 19.1698 128.774 19.3673 128.403 19.237ZM146.188 18.6753L146.215 18.39C146.699 18.3388 146.69 18.4339 147.165 18.4779C146.871 18.5466 146.767 18.6329 146.188 18.6753ZM120.901 19.5026C121.29 19.4426 121.688 19.2876 121.887 19.21C122.95 19.1165 121.878 19.3051 121.869 19.4003C123.322 19.2467 124.946 19.301 125.724 19.1811C124.444 19.5424 122.051 19.5129 120.901 19.5026ZM127.642 19.1667C127.081 19.0188 126.381 19.3378 125.914 19.1987C125.932 19.0085 127.954 18.9077 127.642 19.1667ZM174.576 18.5185C174.101 18.4746 174.015 18.3707 173.35 18.3092C173.453 18.2228 174.119 18.2844 174.128 18.1893C174.594 18.3283 174.68 18.4322 174.576 18.5185ZM72.3697 24.991C72.5949 24.6281 74.2283 24.5873 75.4902 24.4162C74.4958 24.8039 73.9168 24.8463 72.3697 24.991ZM79.1723 23.9893C78.6883 24.0405 78.1004 24.178 77.4351 24.1165C77.5477 23.935 78.991 23.8766 79.1723 23.9893ZM22.3828 37.9227C22.6943 37.6638 22.608 37.5599 23.4986 37.2585C23.5761 37.4576 22.9794 37.6901 22.3828 37.9227ZM199.904 19.3257C200.103 19.2482 201.139 19.44 201.615 19.4839C201.027 19.6214 200.171 19.5423 199.904 19.3257ZM125.742 18.9909C125.171 18.9382 124.791 18.903 124.022 18.9278C124.221 18.8503 126.053 18.7319 125.742 18.9909ZM239.347 22.9729C237.749 22.6333 236.003 22.8555 233.74 22.4544C234.034 22.3856 234.604 22.4384 234.069 22.0052C236.712 22.4415 237.939 22.6509 240.315 22.8706C240.013 23.0344 239.615 23.1895 238.578 22.9977C238.768 23.0153 238.967 22.9378 239.347 22.9729ZM232.314 22.3226C230.897 22.0956 230.992 22.1044 229.498 21.6785C230.751 21.6025 232.263 21.8382 233.585 22.0564C232.902 22.1851 232.997 22.1939 232.314 22.3226ZM123.253 18.9526C122.769 19.0038 122.588 18.8911 122.294 18.9599C119.882 19.1206 122.501 18.7872 123.253 18.9526ZM116.702 19.3061C117.489 19.0911 119.407 19.0766 120.565 18.9919C120.271 19.0606 118.136 19.3428 116.702 19.3061ZM262.821 26.1987C261.794 25.9118 263.522 25.8797 264.835 26.193C264.844 26.0979 264.369 26.0539 264.083 26.0276C264.567 25.9764 265.604 26.1682 266.062 26.4023C265.094 26.5047 262.952 25.827 262.821 26.1987ZM260.092 25.6585C260.481 25.5985 260.688 25.4259 261.82 25.6264C261.06 25.5561 261.033 25.8415 260.092 25.6585ZM48.0722 28.5956C47.7096 28.3702 49.2567 28.2255 49.4731 27.9577C50.5274 27.9593 48.4523 28.6307 48.0722 28.5956ZM47.2458 42.7157C46.5717 42.7493 48.1452 42.3193 48.3528 42.1467C49.217 42.1306 47.3584 42.5343 47.2458 42.7157ZM58.0436 39.9732C58.4414 39.8181 59.0556 39.3953 59.6259 39.448C59.5133 39.6295 58.5365 39.8269 58.0436 39.9732ZM14.5566 52.0671C16.0351 51.6283 17.2371 51.068 18.5343 50.5165C18.9057 50.6467 17.0471 51.0504 17.0207 51.3357C16.8993 51.6123 18.1013 51.052 18.6029 50.8106C18.5854 51.0008 17.7986 51.2158 17.7898 51.3109C17.9799 51.3285 19.0606 51.0448 19.087 50.7594C19.2858 50.6819 19.3721 50.7858 19.7699 50.6307C18.1524 51.5363 16.9943 51.6211 15.4807 52.4404C14.9104 52.3876 14.0023 52.8792 14.5566 52.0671ZM111.551 30.4365C111.352 30.514 111.343 30.6091 111.334 30.7042C110.289 30.6076 110.307 30.4173 109.407 30.8138L109.347 30.4246C109.148 30.5021 109.14 30.5972 108.656 30.6484C108.474 30.5357 109.148 30.5021 109.071 30.3031C108.691 30.2679 107.818 30.3791 107.135 30.5078C107.126 30.6029 107.999 30.4918 108.293 30.423C108.379 30.5269 107.964 30.8722 108.751 30.6572C108.154 30.8898 106.019 31.172 105.25 31.1968C105.241 31.2919 105.336 31.3007 105.526 31.3182C103.771 31.6356 99.1566 31.7844 96.7189 32.2305C96.7277 32.1354 96.6327 32.1266 96.4426 32.109C96.4514 32.0139 96.8403 31.9539 97.1255 31.9803C97.0656 31.5911 95.8723 32.0563 95.4059 31.9172C94.8268 31.9596 94.7142 32.141 94.5153 32.2186C93.7462 32.2434 93.2797 32.1043 92.3891 32.4057C92.0178 32.2754 93.0896 32.0867 92.3205 32.1115C92.8221 31.8702 93.072 32.277 94.239 32.0971C94.7406 31.8557 94.6455 31.8469 95.6135 31.7446C95.3548 31.4329 93.8852 31.7766 93.0034 31.9828C92.8221 31.8701 93.4011 31.8278 93.4099 31.7327C92.9259 31.7838 91.1712 32.1012 90.8684 32.265C90.5833 32.2387 90.402 32.126 89.918 32.1772C89.3301 32.3146 89.779 32.6439 90.6608 32.4377C90.652 32.5328 90.263 32.5927 89.9779 32.5664C89.4938 32.6175 89.8564 32.8429 89.0873 32.8677C88.2319 32.7886 89.5977 32.5312 89.5202 32.3322C89.045 32.2883 88.7159 32.7375 87.6528 32.831C88.0594 32.5808 88.1632 32.4945 86.9013 32.6656C86.2096 32.8894 86.7886 32.847 86.4859 33.0109C84.93 33.2507 83.8494 33.5345 82.4836 33.7919C82.561 33.9909 82.9412 34.026 83.7279 33.811C84.0131 33.8374 81.8605 34.3098 81.5842 34.1883C79.0427 34.7207 76.2248 35.1316 73.6921 35.5689C71.1506 36.1012 68.6179 36.5385 66.6467 37.1236C65.9726 37.1572 65.0996 37.2683 64.209 37.5697C63.3184 37.871 62.3328 38.1636 61.5461 38.3786C62.4103 38.3626 63.5948 37.9925 64.4854 37.6912C65.3671 37.4849 66.0588 37.2611 66.0324 37.5464C67.1994 37.3666 70.0348 36.7655 70.026 36.8606C67.9773 37.2467 66.2225 37.564 64.7529 37.9077C63.2833 38.2515 62.0125 38.5176 60.6643 38.5848C60.1715 38.7311 59.9726 38.8086 60.0589 38.9125C57.8201 39.2811 53.8001 40.2523 51.9415 40.6559C51.8641 40.4569 52.7371 40.3458 53.2387 40.1044C51.2938 40.4042 45.5878 41.9869 43.1325 42.6232C42.4496 42.7519 43.349 42.3554 43.2539 42.3466C42.087 42.5265 40.8673 43.277 39.484 43.7246L39.4065 43.5256C37.5303 44.1195 35.9568 44.5496 33.7779 45.3073C34.0032 44.9445 36.1469 44.5672 36.1733 44.2818C34.9026 44.548 32.4209 45.4696 30.865 45.7094C29.274 46.3297 29.3602 46.4336 27.7779 46.9588C27.4066 46.8285 27.0264 46.7933 25.8331 47.2585C25.6782 46.8605 26.8275 46.8709 27.0528 46.508C25.9633 46.8869 26.3611 46.7318 24.9865 47.0843C25.1766 47.1019 25.4793 46.9381 25.4617 47.1283C23.5767 47.8173 22.7988 47.9372 20.9912 48.8252C20.9649 49.1105 22.0631 48.6366 22.4433 48.6717C22.7372 48.603 22.5559 48.4903 22.5647 48.3952C23.2476 48.2665 23.7228 48.3104 24.631 47.8188C24.492 48.2856 22.3306 48.8531 21.4225 49.3447C20.4457 49.5421 19.8578 49.6796 18.6645 50.1448C18.3794 50.1185 17.8954 50.1696 17.4976 50.3247C16.9009 50.5573 17.091 50.5749 16.8834 50.7475C16.1917 50.9713 16.996 50.5661 16.8059 50.5485C15.8889 51.1352 15.9153 50.8498 15.111 51.2551C15.1022 51.3502 15.2923 51.3678 15.5862 51.299C14.3929 51.7642 13.2084 52.1343 11.73 52.5732C11.5311 52.6507 11.5223 52.7458 11.3234 52.8233C11.3146 52.9184 11.5998 52.9448 12.1014 52.7034C11.7036 52.8585 11.0031 53.1774 10.3114 53.4012C9.61973 53.625 8.92804 53.8488 8.53907 53.9088C8.03746 54.1502 8.91924 53.9439 8.70277 54.2117C8.21876 54.2629 8.40005 54.3755 7.8034 54.6081C7.71715 54.5042 7.02546 54.7281 6.83537 54.7105C6.53265 54.8743 6.32497 55.047 6.31618 55.1421C6.02225 55.2108 5.62449 55.3659 5.33935 55.3395C4.49985 56.1252 2.0358 56.8566 0.314512 57.8485C-0.377181 58.0723 0.738661 57.4081 0.75625 57.2179C1.54299 57.0029 2.34731 56.5976 2.66762 56.2436C3.56699 55.8471 3.95597 55.7871 4.65645 55.4682C4.68284 55.1829 4.95917 55.3044 5.19324 54.8464C5.79868 54.5187 5.67725 54.7952 6.28269 54.4675C6.20524 54.2685 5.29707 54.7601 5.31466 54.5699C4.49275 55.1653 3.12695 55.4227 2.3578 55.4475C2.96325 55.1198 2.84182 55.3964 3.24838 55.1462C3.36101 54.9648 3.76757 54.7146 3.78516 54.5244C3.69891 54.4205 3.17092 54.9472 2.97204 55.0247C2.88579 54.9208 2.57427 55.1798 2.40178 54.972C3.09347 54.7482 3.08467 54.8433 3.8978 54.3429C3.0424 54.2638 4.82355 53.6611 5.2477 53.2207C5.25649 53.1256 4.96257 53.1944 4.97136 53.0993C6.18225 52.4439 6.31247 52.0722 7.13438 51.4767C7.03934 51.468 6.9355 51.5543 6.84925 51.4504C5.62078 52.296 4.71261 52.7876 4.07199 53.4957C3.47534 53.7283 3.50172 53.443 2.6974 53.8482C3.30284 53.5205 3.62315 53.1665 4.03851 52.8212C4.0473 52.7261 3.74458 52.8899 3.5457 52.9674C5.81256 51.2586 8.97 49.2484 10.4501 47.7546C7.83826 49.0478 7.18005 49.9462 4.09297 51.1955C6.32465 49.8671 7.0867 48.8824 7.95259 47.8114C8.90473 46.8443 9.86566 45.7821 12.4775 44.4888C11.9073 44.4361 12.9017 44.0484 12.1237 44.1683C13.1269 43.6856 13.9313 43.2803 14.7356 42.8751C14.6405 42.8663 14.4505 42.8487 14.2516 42.9262C14.3642 42.7448 15.3498 42.4523 15.2284 42.7288C15.8338 42.4011 15.4361 42.5562 15.3586 42.3572C16.258 41.9607 16.2492 42.0558 16.9497 41.7369C17.131 41.8496 16.5431 41.9871 16.6206 42.1861C16.8283 42.0134 17.226 41.8584 17.7188 41.7121C17.7276 41.617 17.5375 41.5994 17.2348 41.7633C17.6414 41.5131 18.238 41.2805 19.0336 40.9704C18.9984 41.3508 19.4736 41.3947 20.1741 41.0758C20.3554 41.1885 19.7675 41.326 19.7587 41.4211C20.7531 41.0334 20.5807 40.8256 20.7109 40.454C22.0943 40.0064 22.6047 39.6699 23.8842 39.3086C24.2908 39.0584 24.6885 38.9033 24.2133 38.8594C29.6518 37.0601 30.9753 36.2233 35.6359 34.5439C35.4546 34.4312 34.2613 34.8964 33.8899 34.7662C35.1695 34.4049 35.7837 33.982 37.072 33.5256C37.9538 33.3194 38.2302 33.4409 38.9394 33.0269C37.072 33.5256 40.1503 32.3714 39.2861 32.3874C40.9547 31.9662 42.8484 31.1821 44.9235 30.5106C45.2174 30.4419 45.1312 30.338 45.14 30.2429C47.4826 29.7881 51.0889 28.1071 53.2062 28.0151C53.3963 28.0327 53.5776 28.1454 53.7677 28.163C55.3236 27.9232 56.4394 27.259 58.2805 27.0455C58.643 27.2709 60.7269 26.5043 61.1335 26.2542C58.4969 26.7777 54.477 27.749 51.4691 28.1423C53.8293 27.4972 55.9466 27.4052 57.1575 26.7498C58.108 26.8377 60.3819 26.0887 61.4714 25.7099C61.6615 25.7274 62.1191 25.9616 62.2493 25.59C63.1223 25.4788 62.5257 25.7114 62.0329 25.8577C62.318 25.8841 62.4993 25.9968 62.7932 25.928C62.4729 26.2821 62.0065 26.143 61.1159 26.4444C62.8443 26.4124 63.8739 25.6442 65.2221 25.5771C66.0088 25.362 65.3347 25.3956 65.3523 25.2054C66.1127 25.2757 66.8395 24.6715 67.5048 24.733C67.5911 24.8369 67.1933 24.992 66.6055 25.1294C66.3027 25.2933 67.262 25.2861 66.6741 25.4236C66.8466 25.6314 67.6597 25.131 67.7196 25.5202C67.0367 25.6489 67.2444 25.4763 66.7516 25.6226C66.4577 25.6913 66.6389 25.804 66.25 25.864C67.1054 25.9431 67.8833 25.8231 69.6381 25.5058C69.2667 25.3755 71.3154 24.9894 71.5143 24.9119C71.7818 25.1285 70.6237 25.2132 70.1309 25.3595C70.4072 25.481 71.5741 25.3011 71.6428 25.5952C72.3345 25.3714 71.2714 25.465 71.5742 25.3011C72.1532 25.2587 72.8361 25.13 73.8041 25.0277C73.1037 25.3466 74.1755 25.158 74.3568 25.2707C74.6507 25.2019 74.7634 25.0205 75.5325 24.9957L75.61 25.1947C76.5006 24.8933 77.6499 24.9037 78.5141 24.8877C78.713 24.8101 78.7217 24.715 79.2058 24.6639C78.7569 24.3346 79.5437 24.1196 80.0541 23.7831C80.3392 23.8094 81.1083 23.7846 80.6067 24.026C81.4797 23.9149 81.8951 23.5696 82.7505 23.6487C83.8311 23.365 82.9757 23.2858 83.6674 23.062C84.3151 23.3138 86.2688 22.9189 87.0467 22.799C87.6258 22.7566 87.1154 23.0931 87.5906 23.137C88.5675 22.9396 88.2911 22.8181 88.7927 22.5767C89.7432 22.6646 89.7695 22.3793 89.4932 22.2578C89.8734 22.293 90.3574 22.2418 90.47 22.0604C90.5387 22.3545 94.3158 21.9364 94.6273 21.6774C95.2064 21.635 96.1656 21.6278 95.664 21.8692C96.5458 21.6629 96.8221 21.7844 97.6 21.6645C97.5138 21.5606 97.1336 21.5255 96.6408 21.6717C96.1656 21.6278 97.9116 21.4055 98.3005 21.3456C98.3868 21.4495 97.9978 21.5094 97.6088 21.5694C98.6455 21.7612 99.8036 21.6764 101.066 21.5053C100.988 21.3063 100.011 21.5038 100.323 21.2448C101.101 21.1249 100.988 21.3063 101.567 21.264C100.807 21.1936 102.942 20.9114 103.028 21.0153C102.725 21.1792 101.861 21.1952 101.558 21.3591C101.541 21.5493 103.598 21.0681 103.079 21.4997C103.658 21.4573 103.952 21.3886 104.056 21.3022C104.436 21.3374 104.522 21.4413 104.808 21.4677C105.196 21.4077 104.825 21.2774 105.309 21.2263C106.087 21.1064 105.68 21.3565 106.26 21.3141C105.853 21.5643 105.093 21.494 104.125 21.5964C104.401 21.7178 105.084 21.5891 104.677 21.8393C105.36 21.7106 105.654 21.6419 106.319 21.7034C106.198 21.9799 105.351 21.8057 104.375 22.0032C104.288 21.8993 103.908 21.8641 103.623 21.8377C103.51 22.0192 103.873 22.2445 102.222 22.4756C102.412 22.4932 102.792 22.5283 102.688 22.6146C103.752 22.5211 104.158 22.2709 105.04 22.0647C105.117 22.2637 104.054 22.3572 105.316 22.1861C105.402 22.29 105.29 22.4715 105.091 22.549C105.955 22.533 105.411 22.1949 106.561 22.2053C106.275 22.1789 105.515 22.1086 106.008 21.9623C107.632 22.0166 107.659 21.7313 109.378 21.7944C109.292 21.6905 109.007 21.6641 108.921 21.5602C108.627 21.629 108.713 21.7329 108.912 21.6553C108.799 21.8368 108.152 21.585 107.953 21.6626C109.137 21.2925 109.569 21.812 110.364 21.5018C110.26 21.5882 109.966 21.6569 109.862 21.7432C111.029 21.5634 110.053 21.7608 110.813 21.8311C111.202 21.7712 111.124 21.5721 111.989 21.5561C111.772 21.8239 113.631 21.4202 115.169 21.3706C114.988 21.2579 114.599 21.3179 114.219 21.2827C114.521 21.1189 115.195 21.0853 115.87 21.0517C115.489 21.0165 114.919 20.9638 114.842 20.7648C116.302 20.5162 116.026 20.3947 115.568 20.1605C116.338 20.1357 117.193 20.2148 117.98 19.9998C117.582 20.1549 117.962 20.19 118.731 20.1652C118.705 20.4506 117.487 20.1461 117.08 20.3963C117.755 20.3627 119.474 20.4258 119.215 20.1141C119.889 20.0805 119.881 20.1756 119.967 20.2795C119.587 20.2443 119.293 20.3131 119.284 20.4082C119.655 20.5384 121.012 20.3761 121.686 20.3426C121.841 20.7406 120.389 20.8941 119.525 20.9101C119.508 21.1003 119.594 21.2042 120.069 21.2481C120.553 21.197 120.095 20.9628 120.579 20.9117C121.349 20.8869 121.236 21.0683 121.521 21.0946C121.806 21.121 122.308 20.8796 121.729 20.922C121.738 20.8269 121.928 20.8445 122.014 20.9484L122.783 20.9236C122.584 21.0011 122.575 21.0962 122.567 21.1913C123.345 21.0714 123.163 20.9587 123.526 21.1841C124.01 21.1329 123.638 21.0027 123.751 20.8212C124.226 20.8652 125.091 20.8492 124.978 21.0306C126.421 20.9722 127.389 20.8699 127.122 20.6533C126.352 20.6781 126.62 20.8947 125.955 20.8331C126.18 20.4703 124.357 20.4935 123.985 20.3633C125.143 20.2785 125.515 20.4088 126.388 20.2976C126.224 19.9947 125.939 19.9684 125.861 19.7694C126.432 19.8221 126.907 19.866 127.78 19.7549C127.183 19.9875 128.626 19.9291 128.998 20.0594C128.454 19.7213 130.934 19.8547 131.159 19.4919C131.928 19.4671 131.531 19.6221 131.418 19.8035C131.435 19.6133 133.06 19.6676 133.363 19.5038C131.634 19.5358 131.471 19.2329 129.249 19.4112C129.163 19.3073 129.552 19.2473 129.466 19.1434C130.217 19.3089 131.782 18.9739 132.845 18.8804C133.268 19.495 135.151 19.861 137.217 19.2846C137.191 19.57 136.422 19.5948 136.024 19.7498C136.292 19.9664 136.957 20.0279 138.02 19.9344C138.736 20.4803 141.857 19.9055 143.87 19.8998C144.259 19.8399 143.983 19.7184 144.372 19.6584C144.104 19.4419 143.041 19.5354 143.353 19.2764C144.087 19.6321 146.679 19.584 147.017 19.0398C147.596 18.9974 148.167 19.0501 148.746 19.0077C148.772 18.7224 147.605 18.9023 147.727 18.6257C148.401 18.5921 148.418 18.4019 149.187 18.3771C149.568 18.4123 149.844 18.5337 150.129 18.5601C150.414 18.5865 150.328 18.4826 150.337 18.3875C150.907 18.4402 151.866 18.433 151.365 18.6744C152.324 18.6671 151.4 18.2939 152.549 18.3043C152.627 18.5033 151.953 18.5369 152.039 18.6408C152.03 18.7359 152.903 18.6247 153.283 18.6599C153.767 18.6087 153.31 18.3746 153.794 18.3234L154.753 18.3162C155.686 18.5943 154.302 19.0419 154.95 19.2936C154.932 19.4839 153.896 19.2921 153.706 19.2745C153.913 19.1019 154.587 19.0683 154.424 18.7654C153.179 18.7462 152.868 19.0052 152.936 19.2993C152.452 19.3505 152.185 19.1339 152.167 19.3241C151.588 19.3665 152.289 19.0476 151.416 19.1587C151.009 19.4089 151.458 19.7381 151.916 19.9723C152.486 20.025 151.752 19.6694 152.607 19.7485C152.468 20.2152 150.844 20.161 149.712 19.9604C150.024 19.7014 150.801 19.5815 150.923 19.305C150.837 19.2011 150.335 19.4425 149.679 19.2858C150.655 19.0884 150.664 18.9933 150.405 18.6816C150.881 18.7255 151.08 18.648 151.373 18.5792C151.486 18.3978 150.414 18.5865 150.631 18.3187C150.319 18.5777 149.101 18.2732 148.695 18.5234C148.781 18.6273 149.636 18.7064 149.645 18.6113C150.509 18.5953 148.936 19.0253 150.094 18.9405C150.076 19.1308 148.841 19.0165 148.659 18.9038C147.778 19.1101 147.181 19.3427 146.679 19.584C147.146 19.7231 148.036 19.4218 148.14 19.3354C148.901 19.4057 149.168 19.6223 149.341 19.8301C149.047 19.8989 147.992 19.8973 147.603 19.9573C147.595 20.0524 148.269 20.0188 148.061 20.1914C146.998 20.285 146.998 20.285 146.134 20.301C146.22 20.4049 146.6 20.44 147.084 20.3889C147.171 20.4928 146.401 20.5176 146.393 20.6127C146.764 20.7429 147.239 20.7869 147.127 20.9683C148.362 21.0826 149.598 21.1968 150.254 21.3534C150.738 21.3023 150.747 21.2072 150.946 21.1296C152.078 21.3302 152.199 21.0537 152.891 20.8298C154.221 20.9529 154.792 21.0056 155.768 20.8082C156.33 20.956 155.725 21.2837 155.517 21.4564C154.869 21.2046 153.866 21.6874 153.123 21.4269C153.391 21.6435 154.436 21.7401 155.093 21.8968C155.395 21.7329 155.698 21.5691 156.096 21.414C156.666 21.4667 156.554 21.6481 157.323 21.6233C156.726 21.8559 156.277 21.5267 155.586 21.7505C155.957 21.8807 156.432 21.9247 157.296 21.9087C158.351 21.9102 156.942 21.5882 158.282 21.6161C158.49 21.4435 157.124 21.7009 157.331 21.5282C157.263 21.2341 157.617 21.5546 158.299 21.4259C157.566 21.0703 160.271 20.8408 159.727 20.5027C160.392 20.5643 161.74 20.4971 161.904 20.8C162.474 20.8527 162.673 20.7752 162.596 20.5762C161.74 20.4971 161.17 20.4443 160.22 20.3565C160.808 20.219 161.49 20.0903 162.925 20.127C162.191 19.7713 163.676 20.2924 163.902 19.9295C162.01 19.6587 161.214 19.9688 159.572 20.1047C160.169 19.8721 159.408 19.8018 159.132 19.6803C159.91 19.5604 161.128 19.8649 161.353 19.502C162.511 19.4173 163.807 19.9207 164.05 19.3677C164.593 19.7057 165.977 19.2581 166.443 19.3972C166.565 19.1206 165.813 18.9552 166.41 18.7226C166.677 18.9392 167.239 19.087 167.601 19.3124C169.425 19.2892 169.407 19.4794 170.755 19.4122C171.498 19.6727 169.657 19.8862 171.187 19.9317C170.979 20.1043 170.219 20.034 169.449 20.0588C169.277 19.851 169.951 19.8174 169.969 19.6272C169.597 19.497 168.698 19.8934 168.309 19.9534C167.929 19.9182 168.136 19.7456 167.367 19.7704C166.797 19.7176 168.612 19.7895 168.344 19.5729C167.1 19.5538 164.49 19.7921 163.504 20.0846C164.644 20.1901 164.247 20.3451 165.188 20.5281C165.577 20.4682 164.541 20.2764 165.414 20.1653C165.88 20.3043 165.871 20.3994 166.839 20.2971C167.107 20.5137 166.251 20.4346 165.871 20.3994C165.759 20.5809 167.184 20.7127 167.288 20.6264C167.659 20.7566 167.633 21.042 168.687 21.0435C168.8 20.8621 167.832 20.9644 167.755 20.7654C168.256 20.524 169.664 20.8461 170.641 20.6486C170.27 20.5184 169.898 20.3881 169.432 20.249C171.255 20.2258 173.381 20.0387 175.3 20.0243C175.706 19.7741 174.643 19.8676 174.851 19.695C175.231 19.7302 175.508 19.8516 175.611 19.7653C176.277 19.8268 175.317 19.834 175.585 20.0506C177.011 20.1825 176.458 19.9395 176.847 19.8796C177.806 19.8723 176.821 20.1649 176.803 20.3551C176.034 20.3799 176.051 20.1897 175.377 20.2233C175.619 20.7252 177.59 20.1401 177.831 20.642C177.252 20.6844 176.88 20.5541 176.595 20.5277C176.863 20.7443 178.297 20.781 178.971 20.7475C178.47 20.9888 179.221 21.1543 179.878 21.3109C181.217 21.3388 184.285 21.3347 186.177 21.6056C186.652 21.6495 186.073 21.6919 185.693 21.6568C185.218 21.6128 185.667 21.9421 185.002 21.8806C184.354 21.6288 183.68 21.6624 182.625 21.6609C183.593 21.5585 180.258 21.346 180.431 21.5538C180.154 21.4324 178.634 21.2917 178.702 21.5859C178.141 21.438 176.793 21.5052 176.023 21.53C176.205 21.6427 176.576 21.773 176.956 21.8081C177.25 21.7394 177.449 21.6618 177.458 21.5667C177.838 21.6019 178.201 21.8272 178.218 21.637C179.264 21.7337 180.378 22.1245 180.853 22.1684C181.613 22.2387 180.55 22.3323 180.818 22.5489C180.248 22.4961 179.677 22.4434 179.885 22.2708C179.202 22.3995 180.23 22.6864 179.823 22.9365C179.158 22.875 179.054 22.9613 179.132 23.1604C178.553 23.2027 178.104 22.8735 177.896 23.0461C177.136 22.9758 178.199 22.8822 178.38 22.9949L178.389 22.8998C178.294 22.891 177.162 22.6905 176.946 22.9582C177.611 23.0197 177.127 23.0709 177.395 23.2875C178.734 23.3154 179.2 23.4545 179.762 23.6023C179.554 23.775 179.373 23.6623 178.803 23.6095C179.07 23.8261 179.061 23.9212 178.569 24.0675C179.243 24.0339 179.727 23.9827 179.269 23.7486C179.934 23.8101 179.614 24.1642 180.668 24.1657C180.962 24.097 181.265 23.9331 181.369 23.8468C181.006 23.6214 181.066 24.0107 180.401 23.9492C180.704 23.7853 179.64 23.8788 179.943 23.715C181.066 24.0107 180.851 23.2234 180.186 23.1619C180.843 23.3185 181.059 23.0508 181.647 22.9133C181.629 23.1035 182.458 23.4679 182.147 23.7269C182.233 23.8308 182.536 23.667 182.907 23.7972C182.838 23.5031 184.056 23.8076 183.831 24.1704C184.306 24.2144 184.782 24.2583 185.266 24.2071C185.283 24.0169 184.903 23.9818 184.523 23.9466C184.722 23.8691 185.206 23.8179 185.215 23.7228C185.794 23.6804 185.776 23.8706 186.45 23.8371C186.7 24.2439 185.179 24.1033 185.239 24.4925C186.017 24.3726 186.026 24.2775 186.89 24.2614C185.577 23.9482 187.763 24.1503 187.599 23.8474C188.075 23.8914 188.36 23.9177 188.342 24.1079C188.74 23.9529 189.595 24.032 190.546 24.1199C190.623 24.3189 190.139 24.37 190.312 24.5778C191.669 24.4155 191.833 24.7184 193.466 24.6776C192.999 24.5386 192.524 24.4946 192.741 24.2269C194.062 24.445 194.823 24.5153 196.067 24.5345C195.661 24.7847 194.339 24.5665 193.855 24.6177C193.932 24.8167 195.272 24.8446 196.032 24.9149C196.014 25.1051 195.073 24.9221 195.055 25.1124C195.418 25.3377 196.014 25.1051 196.775 25.1754C195.928 25.0012 196.421 24.855 197.467 24.9516C197.57 24.8653 197.389 24.7526 197.009 24.7175C197.32 24.4585 198.185 24.4425 198.936 24.6079C199.23 24.5392 198.859 24.4089 199.637 24.289C199.265 24.1587 198.401 24.1747 198.721 23.8207C199.292 23.8734 199.853 24.0212 199.975 23.7447C199.517 23.5105 198.73 23.7256 198.531 23.8031C198.082 23.4738 199.241 23.3891 197.824 23.1621C198.023 23.0846 198.221 23.0071 198.792 23.0598C198.904 22.8784 198.325 22.9207 198.533 22.7481C197.764 22.7729 197.03 22.4173 197.099 22.7114C196.338 22.6411 196.356 22.4508 195.889 22.3118C197.324 22.3485 200.495 22.2581 199.293 22.8184C199.492 22.7409 199.872 22.776 200.253 22.8112C200.374 22.5346 199.709 22.4731 199.536 22.2653C195.164 21.8611 191.051 21.7685 188.182 21.695C188.398 21.4273 187.802 21.6599 187.457 21.2443C188.217 21.3146 189.72 21.6454 189.185 21.2123C190.498 21.5255 191.665 21.3457 192.806 21.4511C193.203 21.2961 193.973 21.2713 193.506 21.1322C194.085 21.0898 194.448 21.3152 195.416 21.2129C195.778 21.4382 196.34 21.5861 195.657 21.7148C197.54 22.0808 198.829 21.6244 201.032 21.6363C201.187 22.0343 201.654 22.1733 202.854 22.668C203.234 22.7032 203.614 22.7383 204.09 22.7823C204.297 22.6096 203.623 22.6432 203.347 22.5217C203.356 22.4266 204.677 22.6448 205.058 22.6799C204.609 22.3507 203.572 22.1589 201.956 22.0095C202.449 21.8632 203.097 22.1149 203.875 21.995C204.142 22.2116 204.609 22.3507 205.568 22.3434C205.395 22.1356 204.73 22.0741 204.359 21.9439C204.186 21.7361 205.499 22.0493 205.318 21.9366C205.983 21.9982 205.024 22.0054 205.292 22.222C207.038 21.9997 210.727 22.5327 212.378 22.3017C213.034 22.4583 213.985 22.5462 213.759 22.909C215.375 23.0584 216.507 23.259 217.837 23.382C218.028 23.3996 218.321 23.3309 218.321 23.3309C218.235 23.227 217.647 23.3645 217.38 23.1479C217.795 22.8026 218.832 22.9944 219.782 23.0823C219.955 23.2901 219.013 23.1071 218.814 23.1846C218.805 23.2797 219.091 23.3061 219.091 23.3061C220.317 23.5154 221.06 23.776 222.209 23.7863C222.227 23.5961 221.078 23.5857 220.801 23.4643C220.81 23.3692 220.819 23.274 220.534 23.2477C221.9 22.9903 224.526 23.6168 225.606 23.333C227.032 23.4649 227.118 23.5688 228.259 23.6742C228.363 23.5879 228.078 23.5615 227.792 23.5352C227.896 23.4488 229.028 23.6494 229.503 23.6934C229.589 23.7973 229.304 23.7709 229.2 23.8572C229.01 23.8396 230.902 24.1105 230.635 23.8939C231.291 24.0506 229.943 24.1177 231.369 24.2496C231.17 24.3271 230.79 24.2919 230.876 24.3958C230.306 24.3431 229.934 24.2128 229.174 24.1425C229.433 24.4542 229.234 24.5318 230.081 24.706C229.977 24.7923 229.51 24.6532 229.13 24.6181C229.683 24.861 230.357 24.8274 230.823 24.9665C230.806 25.1567 230.14 25.0952 229.855 25.0688C229.933 25.2678 230.91 25.0704 230.797 25.2518C231.272 25.2958 230.434 25.0265 231.108 24.9929C231.575 25.1319 231.272 25.2958 231.834 25.4436C231.816 25.6338 230.969 25.4596 230.399 25.4069C231.418 25.7889 232.205 25.5739 233.224 25.9559C233.034 25.9383 231.798 25.824 231.781 26.0143C231.608 25.8065 230.658 25.7186 229.898 25.6483C229.414 25.6994 229.396 25.8897 228.636 25.8194C228.998 26.0447 229.318 25.6907 230.061 25.9512C229.378 26.0799 230.13 26.2453 230.795 26.3068C230.397 26.4619 230.38 26.6521 230.941 26.8C230.742 26.8775 229.973 26.9023 229.507 26.7632C229.421 26.6593 229.706 26.6857 229.991 26.7121C229.818 26.5043 228.937 26.7105 228.574 26.4851C228.583 26.39 228.782 26.3125 229.067 26.3388C228.229 26.0695 224.885 25.9522 225.508 25.4342C223.824 24.9907 221.377 25.5319 220.488 24.7782C219.909 24.8206 220.349 25.245 220.435 25.3489C220.911 25.3928 221.87 25.3856 221.662 25.5582C222.423 25.6285 222.354 25.3344 223.114 25.4047C222.708 25.6549 224.142 25.6916 224.807 25.7532L224.781 26.0385C223.623 26.1232 223.174 25.794 222.12 25.7924C223.338 26.0969 221.446 25.826 221.791 26.2416C222.542 26.407 222.465 26.208 223.225 26.2783C222.922 26.4422 223.787 26.4261 224.167 26.4613C224.063 26.5476 223.674 26.6076 223.665 26.7027C224.711 26.7994 224.642 26.5052 224.945 26.3414C225.705 26.4117 225.973 26.6283 226.828 26.7074C226.43 26.8624 225.964 26.7234 225.402 26.5755C224.737 26.514 225.557 26.9736 224.616 26.7906C224.788 26.9984 226.136 26.9312 226.309 27.139C226.603 27.0702 226.612 26.9751 227.087 27.0191C228.028 27.2021 228.02 27.2972 228.78 27.3675C228.486 27.4362 228.564 27.6352 227.527 27.4435C227.423 27.5298 227.708 27.5561 227.993 27.5825C227.984 27.6776 227.414 27.6249 226.749 27.5634C227.328 27.521 227.346 27.3308 226.594 27.1653C226.386 27.338 225.626 27.2677 225.168 27.0335C224.598 26.9808 224.762 27.2837 224.192 27.231C224.468 27.3524 225.522 27.354 224.934 27.4915C225.79 27.5706 227.025 27.6848 226.342 27.8135C226.152 27.796 226.161 27.7008 226.066 27.6921C225.686 27.6569 225.651 28.0373 226.04 27.9774C225.098 27.7944 223.94 27.8792 223.18 27.8088C223.283 27.7225 223.568 27.7489 224.139 27.8016C224.061 27.6026 223.69 27.4724 224.174 27.4212C223.794 27.386 223.509 27.3597 223.405 27.446C223.215 27.4284 223.215 27.4284 223.128 27.3245C223.137 27.2294 223.042 27.2206 222.852 27.203C222.87 27.0128 223.051 27.1255 223.336 27.1519C223.354 26.9616 223.077 26.8402 222.127 26.7523C222.299 26.9601 222.775 27.004 222.377 27.1591C222.196 27.0464 221.634 26.8986 221.15 26.9497C221.608 27.1839 222.852 27.203 223.31 27.4372C222.722 27.5747 220.942 27.1224 220.916 27.4077C221.296 27.4429 221.478 27.5555 222.333 27.6346C222.229 27.721 221.659 27.6682 221.831 27.876C219.464 27.5612 218.591 27.6723 217.079 27.4366C216.871 27.6093 219.152 27.8202 218.496 27.6635C220.198 27.9168 220.95 28.0823 223.706 28.3371C223.715 28.242 223.429 28.2157 223.542 28.0342C224.009 28.1733 224.475 28.3123 225.244 28.2875C225.227 28.4777 225.987 28.5481 225.883 28.6344C225.52 28.409 227.145 28.4633 226.679 28.3242C226.774 28.333 228.571 28.5951 228.562 28.6902C231.647 28.4959 235.102 29.4869 239.121 29.5706C239.034 29.4667 238.559 29.4228 238.179 29.3876C239.061 29.1814 241.859 30.0157 242.283 29.5753C240.849 29.5386 239.735 29.1478 238.508 28.9385C239.571 28.8449 239.018 28.602 238.57 28.2727C238.086 28.3239 237.334 28.1584 236.375 28.1657C235.709 28.1041 236.936 28.3135 236.538 28.4686C235.588 28.3807 234.266 28.1625 234.335 28.4567C232.918 28.2297 231.959 28.2369 231.008 28.1491C230.896 28.3305 231.276 28.3656 231.941 28.4272C232.511 28.4799 231.873 28.133 232.719 28.3073L232.675 28.7828C231.63 28.6861 231.336 28.7549 230.982 28.4344C230.774 28.607 229.833 28.424 229.072 28.3537C229.47 28.1987 229.004 28.0596 229.393 27.9997C230.248 28.0788 229.556 28.3026 230.317 28.3729C231.216 27.9764 229.998 27.672 227.691 27.7464C228.183 27.6001 228.391 27.4274 228.97 27.3851C229.341 27.5153 229.532 27.5329 229.903 27.6632C230.197 27.5944 230.396 27.5169 230.871 27.5608C230.984 27.3794 229.618 27.6368 229.938 27.2827C230.508 27.3355 231.079 27.3882 231.355 27.5097C231.079 27.3882 231.2 27.1116 230.924 26.9902C231.589 27.0517 231.667 27.2507 231.848 27.3634C233.386 27.3138 233.662 27.4353 235.183 27.5759C235.789 27.2482 236.929 27.3536 238.355 27.4854C238.459 27.3991 238.174 27.3728 238.182 27.2777C237.318 27.2937 237.318 27.2937 235.996 27.0755C235.417 27.1179 235.607 27.1355 235.685 27.3345C235.21 27.2905 234.821 27.3505 234.25 27.2978C234.182 27.0036 233.62 26.8558 234.312 26.632C234.044 26.4154 233.353 26.6392 233.085 26.4226C233.474 26.3627 234.321 26.5369 233.872 26.2076C234.252 26.2428 234.632 26.2779 235.107 26.3219C234.365 26.0613 235.695 26.1844 235.134 26.0365C236.093 26.0293 236.94 26.2035 237.795 26.2826C237.682 26.464 239.013 26.5871 238.883 26.9587C239.548 27.0202 240.3 27.1857 240.317 26.9954C240.887 27.0482 240.395 27.1945 240.481 27.2984C239.816 27.2368 238.96 27.1577 238.295 27.0962C238.839 27.4343 238.459 27.3991 239.962 27.73C239.011 27.6421 238.717 27.7108 237.11 27.4663C236.825 27.4399 236.626 27.5175 236.618 27.6126C237.758 27.718 241.637 28.2686 243.85 28.1854C244.394 28.5235 243.823 28.4707 243.512 28.7297C243.304 28.9023 244.652 28.8352 244.445 29.0078C245.214 28.983 244.946 28.7664 245.258 28.5074C245.828 28.5602 246.208 28.5953 246.493 28.6217C246.045 28.2924 245.561 28.3436 246.814 28.2676C245.976 27.9983 244.066 27.9176 243.66 28.1678C242.373 27.5692 240.022 28.1192 239.893 27.4358C242.165 27.7419 242.322 27.0849 243.109 26.8699C243.117 26.7748 242.072 26.6781 241.692 26.6429C241.804 26.4615 242.375 26.5142 242.487 26.3328L244.379 26.6037C244.448 26.8978 243.904 26.5597 243.429 26.5158C243.506 26.7148 245.113 26.9593 245.597 26.9082C244.302 26.4047 241.84 26.0811 240.586 26.157C240.958 26.2873 240.845 26.4687 240.094 26.3033C240.293 26.2258 240.682 26.1658 239.921 26.0955C239.256 26.034 239.999 26.2945 239.895 26.3808C239.048 26.2066 238.582 26.0676 237.527 26.066C239.161 26.0252 237.01 25.4426 235.852 25.5274C235.843 25.6225 236.405 25.7703 237.07 25.8319C236.568 26.0733 235.368 25.5786 233.933 25.5418C235.187 25.4659 233.493 25.1175 233.018 25.0735C233.235 24.8058 232.768 24.6667 232.397 24.5365C232.604 24.3638 233.226 24.9009 233.624 24.7458C234.185 24.8937 234.738 25.1366 234.815 25.3356C236.327 25.5713 236.873 24.8544 238.254 25.4618C238.92 25.5233 239.023 25.437 239.032 25.3419C238.842 25.3243 238.194 25.0726 237.806 25.1325C237.728 24.9335 238.705 24.7361 240.018 25.0493C239.715 25.2132 239.067 24.9614 238.298 24.9862C239.317 25.3682 240.381 25.2747 241.892 25.5104C242.359 25.6495 240.087 25.3434 240.164 25.5424C240.449 25.5688 241.106 25.7254 241.563 25.9596C242.056 25.8133 243.197 25.9188 243.033 25.6159C244.744 25.7741 245.59 25.9483 246.921 26.0713C246.455 25.9323 246.377 25.7332 246.49 25.5518C247.526 25.7436 248.201 25.71 248.685 25.6588C248.797 25.4774 247.544 25.5534 247.942 25.3983C248.607 25.4598 249.359 25.6253 249.653 25.5565C249.48 25.3487 249.177 25.5126 248.711 25.3735C248.244 25.2345 250.05 25.4014 250.128 25.6004C249.955 25.3927 251.847 25.6635 251.122 25.2128C253.014 25.4837 250.517 25.5405 252.504 25.8202C251.061 25.8786 250.075 26.1711 248.287 25.8139L248.278 25.909C249.22 26.092 250.36 26.1975 251.103 26.458C250.999 26.5443 250.809 26.5267 250.334 26.4828C250.601 26.6994 251.267 26.7609 250.774 26.9072C251.154 26.9423 251.448 26.8736 251.534 26.9775C252.009 27.0214 251.742 26.8048 252.027 26.8312C252.199 27.039 252.096 27.1253 253.132 27.3171C253.435 27.1533 253.409 27.4386 254.558 27.4489C253.15 27.1269 255.716 27.3642 254.602 26.9734C254.576 27.2587 253.539 27.0669 252.692 26.8927C252.796 26.8064 253.081 26.8328 253.652 26.8855C253.66 26.7904 252.615 26.6937 252.243 26.5635C252.727 26.5123 252.573 26.1143 252.296 25.9928C252.979 25.8641 253.229 26.2709 254.473 26.29C254.577 26.2037 253.739 25.9344 254.776 26.1262C254.612 25.8233 253.835 25.9432 253.083 25.7778C252.815 25.5612 253.843 25.8481 253.576 25.6315C254.405 25.9959 257.075 26.1469 257.325 26.5537C256.962 26.3283 256.755 26.501 255.908 26.3268L255.917 26.2317C255.727 26.2141 255.528 26.2916 255.424 26.3779C256.072 26.6297 257.04 26.5273 258.068 26.8142C257.955 26.9957 256.927 26.7088 256.348 26.7511C256.814 26.8902 257.471 27.0468 256.33 26.9414C256.987 27.098 259.069 27.3864 259 27.0923C259.942 27.2753 260.141 27.1978 260.892 27.3632C260.685 27.5359 257.177 27.1156 258.861 27.5591C257.92 27.3761 256.943 27.5735 256.209 27.2179C255.44 27.2427 255.802 27.4681 255.232 27.4153C255.871 27.7622 258.17 27.7829 259.103 28.061C258.619 28.1122 257.867 27.9468 258.316 28.276C257.365 28.1881 257.184 28.0755 256.89 28.1442C256.052 27.8749 257.469 28.1018 257.383 27.9979C256.337 27.9012 256.147 27.8837 255.482 27.8222C255.646 28.1251 255.551 28.1163 256.112 28.2641C256.008 28.3504 255.542 28.2114 255.162 28.1762C256 28.4455 257.339 28.4735 257.503 28.7764C256.19 28.4631 253.623 28.2258 252.682 28.0428C252.379 28.2067 253.805 28.3385 252.664 28.2331C252.75 28.337 253.226 28.3809 253.606 28.4161C253.294 28.675 252.154 28.5696 251.842 28.8285C250.823 28.4465 251.177 28.767 250.607 28.7143C250.52 28.6104 250.633 28.4289 251.393 28.4992C250.659 28.1436 249.285 28.4961 249.466 28.6088C249.086 28.5737 247.444 28.7096 247.574 28.3379C246.71 28.3539 246.951 28.8559 246.001 28.768C246.268 28.9846 246.493 28.6217 247.245 28.7871C247.331 28.891 247.703 29.0213 248.169 29.1603C247.97 29.2379 247.599 29.1076 246.743 29.0285C246.441 29.1924 247.495 29.1939 247.192 29.3578C246.06 29.1572 245.205 29.0781 244.989 29.3459C243.667 29.1277 243.019 28.876 241.204 28.8041C241.196 28.8992 241.481 28.9256 241.386 28.9168C242.31 29.29 243.857 29.1453 244.686 29.5097C245.446 29.58 246.803 29.4177 246.854 29.9021L245.437 29.6751C245.411 29.9605 246.759 29.8933 247.321 30.0411C247.062 29.7294 246.967 29.7206 246.889 29.5216C247.356 29.6607 247.243 29.8421 248.289 29.9388C248.479 29.9564 249.067 29.8189 248.591 29.7749C248.885 29.7062 249.723 29.9755 249.516 30.1481C250.638 30.4438 251.218 30.4014 251.571 30.7219C250.042 30.6764 248.746 30.1729 248.426 30.527C249.273 30.7012 250.051 30.5813 250.603 30.8243C250.776 31.0321 249.843 30.7539 249.825 30.9442C249.998 31.152 250.776 31.0321 250.785 30.9369C250.931 31.4301 255.329 31.549 256.892 32.2691C257.549 32.4257 257.376 32.2179 257.661 32.2443C258.024 32.4696 258.966 32.6526 259.087 32.3761C259.925 32.6454 260.685 32.7157 262.197 32.9514C262.197 32.9514 261.134 33.045 260.287 32.8708C261.755 33.5821 264.547 33.4565 265.471 33.8297C264.52 33.7418 263.19 33.6188 261.401 33.2616C261.194 33.4342 261.764 33.4869 262.04 33.6084C261.185 33.5293 259.786 33.1122 259.656 33.4838C258.723 33.2057 259.682 33.1985 259.699 33.0083C258.247 33.1618 257.644 32.4345 256.114 32.389C256.002 32.5704 257.16 32.4857 256.762 32.6407C255.803 32.6479 254.481 32.4298 254.074 32.68C252.744 32.5569 253.064 32.2029 252.027 32.0111C251.725 32.1749 251.707 32.3652 250.299 32.0431C250.644 32.4587 249.901 32.1982 250.246 32.6138C250.332 32.7177 250.92 32.5802 250.704 32.8479C251.55 33.0221 251.378 32.8143 252.129 32.9798C252.492 33.2051 252.863 33.3354 253.71 33.5096C251.42 33.3938 249.563 32.7425 247.282 32.5315C247.852 32.5843 248.812 32.577 249.649 32.8464C250.22 32.8991 249.771 32.5698 249.97 32.4923C249.789 32.3796 249.503 32.3532 249.322 32.2406C249.426 32.1542 249.987 32.3021 250.091 32.2158C250.29 32.1382 248.977 31.825 250.118 31.9304C250.04 31.7314 248.995 31.6347 248.528 31.4957C247.171 31.658 245.504 31.0242 243.776 31.0563C243.889 30.8748 243.128 30.8045 242.861 30.5879C243.068 30.4153 244.2 30.6159 244.598 30.4608C244.244 30.1403 243.077 30.3202 241.954 30.0245C241.945 30.1196 242.222 30.2411 242.118 30.3274C241.453 30.2659 241.868 29.9206 240.252 29.7712C240.9 30.0229 241.453 30.2659 240.675 30.3858C240.942 30.6024 242.377 30.6391 242.264 30.8205C241.789 30.7766 240.761 30.4897 240.562 30.5672C240.728 29.8152 237.686 29.5339 235.604 29.2455C235.414 29.2279 235.31 29.3142 235.12 29.2966C234.808 29.5556 236.537 29.5236 236.225 29.7825C233.582 29.3462 231.732 29.6548 230.065 29.0211C229.21 28.942 229.857 29.1937 229.745 29.3751C231.836 29.5685 231.827 29.6636 233.823 29.8481C233.615 30.0208 232.768 29.8466 232.561 30.0192C232.742 30.1319 235.896 30.2317 235.377 30.6633C233.399 30.2885 232.077 30.0704 229.873 30.0585C230.331 30.2926 231.014 30.1639 231.566 30.4069C232.154 30.2694 232.249 30.2782 233.476 30.4876C233.372 30.5739 232.802 30.5211 232.698 30.6075C233.545 30.7817 233.381 30.4788 234.141 30.5491C234.029 30.7305 235.178 30.7409 235.057 31.0174C235.627 31.0701 235.826 30.9926 236.292 31.1316C236.767 31.1756 236.405 30.9502 236.604 30.8727C236.517 30.7688 235.93 30.9063 235.662 30.6897C235.965 30.5258 236.44 30.5698 237.097 30.7264C237.01 30.6225 236.82 30.6049 236.924 30.5186C236.268 30.362 236.25 30.5522 235.688 30.4044C235.706 30.2141 236.743 30.4059 237.408 30.4674C237.295 30.6489 237.961 30.7104 238.047 30.8143C237.934 30.9957 237.002 30.7176 236.794 30.8903C237.079 30.9166 237.908 31.281 238.012 31.1947C238.668 31.3514 237.813 31.2723 237.985 31.4801C237.442 31.142 235.696 31.3642 237.017 31.5824C237.009 31.6775 235.972 31.4857 235.592 31.4506C235.696 31.3642 236.266 31.417 236.37 31.3307L235.609 31.2603C234.944 31.1988 235.972 31.4857 235.298 31.5193C234.65 31.2676 233.423 31.0582 232.49 30.7801C232.101 30.8401 231.695 31.0902 231.047 30.8385C230.278 30.8633 231.03 31.0287 230.537 31.175C230.252 31.1486 230.07 31.0359 230.079 30.9408C229.69 31.0008 229.768 31.1998 228.826 31.0168C228.999 31.2246 229.483 31.1734 230.243 31.2437C229.629 31.6666 232.982 31.6888 233.068 31.7927C233.724 31.9494 232.869 31.8703 233.041 32.0781C231.625 31.8511 230.199 31.7193 229.887 31.9783C228.583 31.5699 228.073 31.9064 226.276 31.6443C227.157 31.4381 223.537 31.1992 222.967 31.1465C222.821 30.6534 220.712 30.6502 219.667 30.5536C219.52 30.0604 217.87 30.2915 216.842 30.0046C216.548 30.0733 216.928 30.1085 216.349 30.1508C215.321 29.864 213.221 29.7657 211.597 29.7114C212.918 29.9296 213.886 29.8272 215.2 30.1405C215.087 30.3219 213.67 30.095 213.747 30.294C213.177 30.2413 213.281 30.1549 212.521 30.0846C212.529 29.9895 213.005 30.0335 213.195 30.051C210.343 29.7874 208.261 29.4989 205.297 29.4167C205.289 29.5118 206.153 29.4958 206.533 29.531C207.475 29.714 205.297 29.4167 205.85 29.6597C205.297 29.4167 205.09 29.5894 203.949 29.4839C203.967 29.2937 205.289 29.5118 204.926 29.2865C205.591 29.348 206.257 29.4095 206.646 29.3495C206.654 29.2544 205.79 29.2704 205.704 29.1665C205.721 28.9763 207.052 29.0994 207.423 29.2296C207.32 29.3159 206.939 29.2808 206.939 29.2808C207.397 29.515 207.985 29.3775 209.125 29.4829C208.772 29.1624 207.631 29.057 206.992 28.7101C206.137 28.631 205.739 28.7861 204.599 28.6806C204.305 28.7494 204.183 29.0259 203.613 28.9732C203.44 28.7654 203.916 28.8093 203.829 28.7054C203.277 28.4625 202.3 28.6599 201.453 28.4857C201.911 28.7199 202.499 28.5824 203.639 28.6879C202.585 28.6863 202.386 28.7638 201.418 28.8662C201.591 29.074 201.902 28.815 202.369 28.9541C202.636 29.1706 200.83 29.0037 202.152 29.2218C201.936 29.4896 201.297 29.1427 200.432 29.1587C200.536 29.0724 201.478 29.2554 201.686 29.0828C200.441 29.0636 199.621 28.6041 199.033 28.7416C198.377 28.5849 199.44 28.4914 199.544 28.4051C197.479 27.9264 195.742 28.0535 193.063 27.9977C194.005 28.1807 193.529 28.1367 193.313 28.4045C192.363 28.3166 192.743 28.3517 191.896 28.1775C192.051 28.5756 189.805 27.9842 188.543 28.1553C187.723 27.6957 186.66 27.7893 185.718 27.6063C185.701 27.7965 186.262 27.9444 187.126 27.9283C187.117 28.0235 187.022 28.0147 186.927 28.0059C186.919 28.101 187.014 28.1098 187.204 28.1273C187.005 28.2049 186.435 28.1522 185.484 28.0643C185.665 28.177 186.141 28.2209 186.417 28.3424C186.019 28.4974 185.086 28.2193 184.231 28.1402C185.19 28.133 184.914 28.0115 184.456 27.7774C185.122 27.8389 184.863 27.5272 185.632 27.5024C185.442 27.4848 185.442 27.4848 185.356 27.3809C184.18 27.6559 183.134 27.5592 181.32 27.4874C181.424 27.401 181.623 27.3235 182.003 27.3587C180.482 27.218 176.092 27.004 174.822 27.2702C174.251 27.2175 174.536 27.2438 174.545 27.1487L173.301 27.1296C173.387 27.2335 173.482 27.2423 173.767 27.2686C173.292 27.2247 172.903 27.2846 171.659 27.2655C170.898 27.1952 172.333 27.2319 172.618 27.2583C172.16 27.0241 170.812 27.0913 169.966 26.9171C166.076 27.5166 161.427 26.9909 157.478 27.2012C157.365 27.3827 158.428 27.2891 158.221 27.4618C159.293 27.2731 159.863 27.3258 161.098 27.4401C161.09 27.5352 160.329 27.4649 160.407 27.6639C160.778 27.7942 161.651 27.683 162.316 27.7445C161.806 28.081 161.262 27.743 160.208 27.7414C157.485 28.1611 154.167 27.7584 151.367 27.9791C152.145 27.8592 151.575 27.8065 150.607 27.9088C150.598 28.0039 150.892 27.9352 151.082 27.9527C149.535 28.0974 151.203 27.6762 152.534 27.7992C152.733 27.7217 152.75 27.5315 153.053 27.3676C151.515 27.4172 148.663 27.1536 147.574 27.5324C147.194 27.4973 147.678 27.4461 147.592 27.3422C147.004 27.4797 146.14 27.4957 145.465 27.5293C145.828 27.7547 146.217 27.6947 146.874 27.8514C146.951 28.0504 145.715 27.9361 145.698 28.1263C146.164 28.2654 146.951 28.0504 147.806 28.1295C147.245 27.9816 147.53 28.008 147.358 27.8002C148.014 27.9568 148.299 27.9832 149.068 27.9584C148.965 28.0447 148.671 28.1135 148.567 28.1998C146.449 28.2918 144.038 28.4525 141.739 28.4318C139.432 28.5062 137.125 28.5806 135.215 28.4999C134.826 28.5599 134.247 28.6023 134.048 28.6798C133.668 28.6446 133.962 28.5759 134.066 28.4896C131.404 28.2435 125.959 29.0829 122.813 28.888C122.822 28.7929 123.297 28.8368 123.306 28.7417C121.284 28.8425 121.052 28.2455 119.012 28.5364C119.089 28.7355 119.668 28.6931 120.238 28.7458C120.013 29.1087 118.475 29.1583 117.403 29.3469C116.548 29.2678 117.438 28.9665 116.886 28.7235C116.402 28.7747 116.384 28.9649 116.47 29.0688C115.909 28.921 115.104 29.3262 114.543 29.1784C114.326 29.4461 113.281 29.3495 112.676 29.6772C112.399 29.5557 111.725 29.5893 111.449 29.4678C111.06 29.5278 110.757 29.6916 110.282 29.6477L110.273 29.7428C110.678 30.5476 111.162 30.4964 111.551 30.4365ZM90.0547 22.4057C90.0547 22.4057 91.3853 22.5287 91.7056 22.1746C90.3486 22.3369 88.3175 22.5328 90.0547 22.4057ZM244.276 26.69C244.837 26.8378 246.064 27.0472 246.177 26.8658C245.339 26.5965 244.863 26.5525 244.276 26.69ZM189.657 28.5461C189.286 28.4158 188.327 28.423 188.499 28.6308C188.888 28.5709 189.458 28.6236 189.657 28.5461ZM57.1372 39.4098C56.5581 39.4521 55.4687 39.831 54.8033 39.7695C54.4056 39.9246 53.8265 39.9669 53.7139 40.1484C54.5869 40.0372 56.5317 39.7375 57.1372 39.4098ZM81.9908 33.9381C79.6569 34.2979 76.7528 34.6049 75.1019 34.8359C74.9206 34.7232 75.7161 34.4131 75.0333 34.5418C74.9206 34.7232 74.0388 34.9295 73.9262 35.1109C72.7681 35.1956 72.1714 35.4282 70.4167 35.7456C70.304 35.927 70.788 35.8759 70.6842 35.9622C72.6379 35.5673 74.5915 35.1724 76.5364 34.8726C78.4724 34.668 80.3222 34.3594 81.9908 33.9381ZM70.0101 35.9958C69.431 36.0382 67.1747 36.5969 67.2609 36.7008C68.7306 36.3571 69.3871 36.5137 70.0101 35.9958ZM48.4584 41.0053C48.4496 41.1004 49.2451 40.7903 49.6341 40.7304C49.7467 40.5489 48.087 40.8751 48.4584 41.0053ZM130.808 28.4761C129.848 28.4833 128.491 28.6456 127.221 28.9118C128.085 28.8958 128.551 29.0348 128.923 29.1651C127.782 29.0597 126.045 29.1868 125.777 28.9702C124.999 29.0901 124.904 29.0813 124.126 29.2012C124.005 29.4778 124.774 29.453 124.86 29.5569C126.788 29.4473 128.041 29.3713 128.923 29.1651C128.697 29.528 130.841 29.1507 131.792 29.2385C130.574 28.9341 131.075 28.6927 130.808 28.4761ZM157.114 28.0309C157.114 28.0309 157.105 28.126 156.915 28.1084C156.249 28.0469 155.1 28.0365 154.797 28.2004C155.082 28.2267 155.074 28.3218 155.065 28.417C156.3 28.5312 156.223 28.3322 157.173 28.4201C156.811 28.1947 157.693 27.9885 157.114 28.0309ZM132.233 28.6079C132.527 28.5392 132.726 28.4617 132.735 28.3665C132.45 28.3402 131.871 28.3826 131.499 28.2523C131.491 28.3474 131.577 28.4513 131.767 28.4689C131.577 28.4513 131.283 28.5201 131.283 28.5201C131.568 28.5464 132.423 28.6255 132.527 28.5392C132.32 28.7118 132.225 28.703 132.233 28.6079ZM85.9244 32.863C84.5498 33.2155 83.7719 33.3355 82.4149 33.4977C83.2703 33.5768 84.351 33.2931 85.708 33.1308C85.6217 33.0269 85.9156 32.9581 85.9244 32.863ZM227.891 31.7937C227.226 31.7322 226.284 31.5492 226.172 31.7306C226.742 31.7833 228.055 32.0966 227.891 31.7937ZM212.158 29.8593C212.244 29.9632 213.86 30.1126 214.353 29.9663C212.918 29.9296 212.202 29.3837 211.225 29.5812C211.51 29.6075 211.891 29.6427 211.977 29.7466C211.493 29.7977 210.257 29.6835 211.19 29.9616C210.801 30.0216 209.669 29.821 209.747 30.02C210.023 30.1415 211.268 30.1606 211.924 30.3172C212.132 30.1446 211.199 29.8665 212.158 29.8593ZM151.869 27.7377C151.488 27.7026 150.719 27.7274 150.443 27.6059C150.365 27.4069 151.316 27.4948 151.42 27.4084C150.374 27.3118 148.836 27.3614 147.09 27.5836C147.755 27.6451 146.874 27.8514 146.865 27.9465C148.887 27.8457 150.123 27.96 151.869 27.7377ZM169.8 27.6692C169.61 27.6516 169.515 27.6428 169.524 27.5477C169.144 27.5125 168.66 27.5637 168.573 27.4598C168.401 27.252 169.714 27.5653 169.541 27.3575C168.677 27.3735 169.084 27.1233 168.609 27.0794C168.306 27.2432 167.26 27.1465 167.148 27.328C167.727 27.2856 168.401 27.252 168.383 27.4422C167.917 27.3032 167.614 27.467 167.148 27.328C167.035 27.5094 166.361 27.543 166.153 27.7156C166.732 27.6733 167.303 27.726 167.579 27.8475C167.683 27.7612 167.208 27.7172 167.597 27.6573C168.366 27.6325 167.95 27.9777 169.013 27.8842C168.746 27.6676 169.878 27.8682 169.8 27.6692ZM160.977 27.7166C162.411 27.7533 163.656 27.7725 164.52 27.7565C163.863 27.5998 161.66 27.5879 160.977 27.7166ZM165.704 27.3864C164.935 27.4112 163.795 27.3057 163.777 27.4959C165.03 27.42 164.719 27.6789 165.479 27.7492C165.402 27.5502 165.506 27.4639 165.704 27.3864ZM162.161 27.3465C161.954 27.5192 161.487 27.3801 161.012 27.3362C161.098 27.4401 160.891 27.6127 161.28 27.5528C161.288 27.4577 161.85 27.6055 162.429 27.5631C162.343 27.4592 162.447 27.3729 162.161 27.3465ZM178.623 27.6217C177.284 27.5938 175.772 27.3581 175.27 27.5995C176.238 27.4971 178.303 27.9758 178.623 27.6217ZM197.824 28.342C197.634 28.3244 197.539 28.3156 197.548 28.2205C197.738 28.2381 197.833 28.2469 197.747 28.143C196.33 27.916 196.675 28.3316 195.534 28.2262C194.489 28.1295 194.61 27.853 193.651 27.8602C193.91 28.1719 195.145 28.2861 196.476 28.4092C196.502 28.1238 197.53 28.4107 197.824 28.342ZM229.569 31.2773C230.148 31.235 227.21 30.8674 226.916 30.9361C227.573 31.0928 228.99 31.3197 229.569 31.2773ZM153.287 26.9096C152.337 26.8218 152.337 26.8218 151.084 26.8977C151.057 27.1831 153.252 27.2901 153.287 26.9096ZM149.649 26.861C149.51 27.3278 148.215 26.8243 147.704 27.1608C149.225 27.3014 149.632 27.0512 150.573 27.2342C151.161 27.0967 150.124 26.905 149.649 26.861ZM218.389 29.8599C217.914 29.8159 216.782 29.6153 216.954 29.8231L218.38 29.955L218.389 29.8599ZM214.89 29.3445C215.261 29.4747 216.021 29.545 216.583 29.6929C216.696 29.5114 215.546 29.5011 215.659 29.3197C214.025 29.3605 211.961 28.8818 210.164 28.6197C210.137 28.905 211.201 28.8115 210.604 29.0441C211.165 29.1919 211.572 28.9418 211.839 29.1583C211.831 29.2535 211.45 29.2183 211.355 29.2095C211.917 29.3573 211.831 29.2535 212.582 29.4189C212.591 29.3238 212.505 29.2199 212.894 29.1599C213.084 29.1775 213.369 29.2038 213.36 29.299C213.351 29.3941 212.971 29.3589 212.876 29.3501C213.628 29.5155 214.397 29.4907 214.89 29.3445ZM228.706 30.2383C228.326 30.2032 228.507 30.3159 228.689 30.4286C228.213 30.3846 228.11 30.4709 227.738 30.3407C227.367 30.2104 226.987 30.1753 227.004 29.985C228.317 30.2983 228.085 29.7013 228.949 29.6853C227.999 29.5974 227.506 29.7437 226.547 29.7509C227.091 30.0889 225.941 30.0786 225.561 30.0434C225.846 30.0698 226.027 30.1825 226.019 30.2776C227.159 30.3831 227.92 30.4534 228.671 30.6188C228.455 30.8865 227.349 30.4006 227.228 30.6772C227.513 30.7035 229.31 30.9656 229.889 30.9233C227.893 30.7387 229.734 30.5252 228.706 30.2383ZM223.91 30.2745C223.539 30.1442 222.675 30.1602 222.657 30.3504C223.417 30.4208 223.711 30.352 223.91 30.2745ZM202.163 28.0717C202.534 28.202 202.386 28.7638 203.553 28.584C203.381 28.3762 202.897 28.4273 203.303 28.1772C202.647 28.0205 202.456 28.003 202.163 28.0717ZM198.127 28.1781C199.371 28.1973 199.19 28.0846 200.322 28.2852C200.235 28.1813 200.348 27.9998 200.538 28.0174C199.19 28.0846 198.836 27.7641 197.393 27.8225C197.651 28.1342 198.334 28.0055 198.818 27.9543C198.81 28.0494 199 28.067 199.095 28.0758C198.516 28.1182 198.136 28.083 198.127 28.1781ZM207.684 28.4863C207.571 28.6678 208.59 29.0498 209.083 28.9035C208.427 28.7468 208.824 28.5918 207.684 28.4863ZM200.719 28.1301C201.575 28.2092 201.955 28.2443 202.154 28.1668C201.972 28.0541 200.469 27.7233 200.719 28.1301ZM232.585 30.7889C231.255 30.6659 230.693 30.518 229.458 30.4038C229.233 30.7666 232.093 30.9352 232.585 30.7889ZM224.887 30.077C224.818 29.7829 224.619 29.8604 225.207 29.723C224.542 29.6614 224.352 29.6439 224.464 29.4624C223.229 29.3482 224.049 29.8077 223.194 29.7286C222.433 29.6583 222.062 29.528 221.492 29.4753C222.122 29.9173 223.167 30.0139 224.887 30.077ZM226.365 29.6382C225.234 29.4376 225.207 29.723 226.054 29.8972C226.063 29.8021 226.443 29.8372 226.365 29.6382ZM254.514 33.1044L253.573 32.9214C253.46 33.1028 253.641 33.2155 254.212 33.2682C254.307 33.277 254.601 33.2083 254.514 33.1044ZM224.957 29.3162C224.948 29.4113 224.853 29.4025 224.655 29.48C225.51 29.5591 225.329 29.4464 226.08 29.6118C226.288 29.4392 225.432 29.3601 224.957 29.3162ZM201.265 27.4132C202.12 27.4923 202.786 27.5538 203.46 27.5202C203.762 27.3563 202.821 27.1733 203.486 27.2349C204.143 27.3915 203.65 27.5378 203.926 27.6592C205.075 27.6696 205.17 27.6784 206.121 27.7663C205.853 27.5497 206.234 27.5848 206.165 27.2907C203.72 26.7769 202.83 27.0782 201.265 27.4132ZM201.006 27.1015C200.54 26.9624 200.531 27.0575 200.047 27.1087C199.961 27.0048 199.771 26.9872 199.58 26.9696L199.554 27.255C200.409 27.3341 200.798 27.2741 201.006 27.1015ZM199.399 26.857C198.924 26.813 198.63 26.8818 198.431 26.9593C198.906 27.0032 198.5 27.2534 199.174 27.2198C199.373 27.1423 199.39 26.9521 199.399 26.857ZM141.459 25.2404C140.595 25.2564 139.817 25.3764 139.324 25.5226C139.515 25.5402 139.61 25.549 139.601 25.6441C140.863 25.473 140.741 25.7496 141.303 25.8974C141.139 25.5945 141.044 25.5857 141.459 25.2404ZM254.852 32.5601C253.72 32.3595 253.789 32.6536 254.057 32.8702C253.772 32.8438 253.4 32.7136 253.296 32.7999C253.677 32.835 254.704 33.1219 254.722 32.9317C254.057 32.8702 254.282 32.5073 254.852 32.5601ZM216.456 27.9545C214.944 27.7188 214.451 27.8651 213.596 27.786C213.284 28.045 214.14 28.1241 214.805 28.1856C214.927 27.909 215.782 27.9881 216.456 27.9545ZM253.435 32.3331C253.625 32.3507 253.911 32.3771 253.911 32.3771C253.254 32.2204 252.684 32.1677 252.485 32.2452C253.522 32.437 251.983 32.4866 253.115 32.6872C253.133 32.497 254.083 32.5849 253.435 32.3331ZM209.518 27.313C208.196 27.0948 208.437 27.5967 209.293 27.6758C209.491 27.5983 209.509 27.4081 209.518 27.313ZM212.36 27.6717L212.836 27.7157C212.853 27.5255 212.473 27.4903 212.102 27.36C212.179 27.5591 211.989 27.5415 211.6 27.6014C211.523 27.4024 210.486 27.2106 210.364 27.4872C211.229 27.4712 211.954 27.9219 212.542 27.7844C212.447 27.7756 212.257 27.7581 212.36 27.6717ZM131.167 25.6316C130.76 25.8818 131.996 25.996 132.393 25.841C131.425 25.9433 132.23 25.5381 131.167 25.6316ZM144.622 25.2451C144.423 25.3227 142.635 24.9655 142.211 25.4058C142.98 25.381 143.36 25.4162 143.931 25.4689C143.844 25.365 144.613 25.3402 144.622 25.2451ZM134.528 25.5588C133.56 25.6611 133.56 25.6611 132.8 25.5908C132.575 25.9536 134.407 25.8353 134.528 25.5588ZM257.686 33.0139C257.211 32.97 256.278 32.6919 256.45 32.8997L257.677 33.109L257.686 33.0139ZM186.422 25.1774C185.558 25.1934 184.754 25.5986 185.419 25.6602C185.627 25.4875 186.309 25.3588 186.422 25.1774ZM219.066 27.7163C218.496 27.6635 218.297 27.7411 218.098 27.8186C218.279 27.9313 219.601 28.1494 219.809 27.9768C219.619 27.9592 218.954 27.8977 219.066 27.7163ZM189.559 25.4674C188.884 25.501 188.599 25.4746 187.839 25.4043C188.202 25.6297 188.011 25.6121 188.279 25.8287C188.487 25.6561 188.84 25.9765 189.523 25.8478C189.256 25.6313 189.541 25.6576 189.559 25.4674ZM139.793 24.6067C139.585 24.7793 139.006 24.8217 139.074 25.1158C139.844 25.091 140.233 25.0311 140.984 25.1965C140.889 25.1877 140.69 25.2652 140.975 25.2916C141.097 25.0151 139.87 24.8057 139.793 24.6067ZM208.49 27.0261L209.44 27.114C209.657 26.8462 208.326 26.7232 208.49 27.0261ZM246.559 31.0258C246.594 30.6454 244.77 30.6686 245.323 30.9116C245.341 30.7213 246.179 30.9906 246.559 31.0258ZM137.364 24.9576C136.69 24.9912 136.197 25.1375 136.663 25.2766C137.346 25.1479 137.45 25.0615 137.364 24.9576ZM214.807 27.1306C213.848 27.1378 212.431 26.9109 212.888 27.145C213.277 27.0851 214.504 27.2944 214.807 27.1306ZM209.303 26.5257C210.262 26.5185 208.801 26.7671 209.752 26.855C210.34 26.7175 211.118 26.5976 211.991 26.4865C211.982 26.5816 211.593 26.6415 211.973 26.6767C213.027 26.6783 213.158 26.3066 213.936 26.1867C213.27 26.1252 212.786 26.1763 212.492 26.2451C212.501 26.15 212.311 26.1324 212.216 26.1236C212.89 26.09 212.709 25.9773 212.441 25.7608C212.916 25.8047 213.193 25.9262 213.659 26.0652C213.677 25.875 214.627 25.9629 213.971 25.8063C214.55 25.7639 214.817 25.9805 215.215 25.8254C215.034 25.7127 214.36 25.7463 214.472 25.5649C214.749 25.6864 215.129 25.7215 215.699 25.7742C215.708 25.6791 215.803 25.6879 216.002 25.6104C215.622 25.5752 214.757 25.5912 214.775 25.401C215.277 25.1596 216.901 25.2139 216.253 24.9622C216.815 25.11 217.178 25.3354 218.413 25.4497C218.535 25.1731 219.485 25.261 220.159 25.2274C219.027 25.0268 217.429 24.6872 216.271 24.772C217.153 24.5657 215.053 24.4675 214.587 24.3285C215.261 24.2949 215.84 24.2525 216.514 24.2189C217.352 24.4882 219.529 24.7855 220.099 24.8382C219.814 24.8118 219.728 24.7079 219.633 24.6991C220.8 24.5193 222.942 25.1969 223.728 24.9819C223.547 24.8692 222.588 24.8765 222.502 24.7726C222.882 24.8077 223.357 24.8517 223.461 24.7653C223.176 24.739 223.185 24.6439 223.193 24.5488C222.139 24.5472 221.69 24.2179 221.336 23.8974C220.464 24.0086 220.585 23.732 219.15 23.6953C218.77 23.6601 219.124 23.9806 218.649 23.9367C218.364 23.9103 218.355 24.0054 218.165 23.9879C218.182 23.7976 218.191 23.7025 217.915 23.5811L213.828 23.2031C214.087 23.5148 215.806 23.5779 216.463 23.7346C215.702 23.6642 216.065 23.8896 215.02 23.7929C214.717 23.9568 215.78 23.8633 215.468 24.1222C212.608 23.9537 212.332 23.8322 210.941 23.3199C211.417 23.3639 211.901 23.3127 211.728 23.1049C210.199 23.0594 209.248 22.9715 208.375 23.0826C208.755 23.1178 209.421 23.1793 209.602 23.292C208.842 23.2217 210.155 23.535 209.299 23.4559C209.136 23.153 207.485 23.384 208.046 23.5318C208.72 23.4982 210.802 23.7867 211.165 24.0121C210.595 23.9593 208.616 23.5846 208.789 23.7924C209.056 24.0089 211.468 23.8482 211.433 24.2286C212.314 24.0224 212.936 24.5595 213.351 24.2142C213.238 24.3956 213.817 24.3533 213.61 24.5259C213.031 24.5683 211.881 24.5579 210.75 24.3574C210.542 24.53 211.406 24.514 211.199 24.6866C210.818 24.6515 210.343 24.6075 210.257 24.5036C210.361 24.4173 210.646 24.4437 210.568 24.2447C207.717 23.981 204.952 23.8213 206.543 23.201C205.498 23.1043 204.823 23.1379 203.683 23.0324C203.657 23.3178 202.145 23.0821 201.28 23.0981C201.289 23.003 201.669 23.0381 201.289 23.003C201.289 23.003 201.28 23.0981 200.995 23.0717C200.805 23.0541 200.71 23.0453 200.796 23.1492C201.824 23.4361 202.956 23.6367 204.391 23.6734C204.623 24.2704 206.438 24.3423 207.501 24.2488C207.854 24.5692 207.068 24.7843 206.203 24.8003C206.869 24.8618 205.529 24.8339 205.892 25.0592C207.136 25.0784 206.272 25.0944 206.159 25.2758C206.626 25.4149 206.73 25.3286 207.395 25.3901C207.282 25.5715 208.31 25.8584 207.636 25.892C207.446 25.8744 207.351 25.8656 207.161 25.8481C207.274 25.6666 207.663 25.6067 207.196 25.4676C206.323 25.5787 206.246 25.3797 205.295 25.2918C205.658 25.5172 205.096 25.3694 205.079 25.5596C205.934 25.6387 206.703 25.6139 206.98 25.7354C206.306 25.769 206.469 26.0719 205.7 26.0967C205.7 26.0967 205.709 26.0016 205.424 25.9752C205.433 25.8801 206.003 25.9328 205.917 25.8289C204.776 25.7234 204.845 26.0176 204.171 26.0512C204.551 26.0863 205.026 26.1303 204.922 26.2166C205.769 26.3908 205.605 26.0879 206.365 26.1582L206.348 26.3484L207.583 26.4627C208.189 26.1349 209.615 26.2668 210.297 26.1381C210.271 26.4234 208.551 26.3603 209.303 26.5257ZM196.514 25.9187C196.99 25.9627 197.007 25.7725 197.482 25.8164C197.5 25.6262 197.025 25.5822 197.509 25.5311C196.368 25.4256 196.998 25.8676 195.763 25.7533C195.78 25.5631 195.789 25.468 195.988 25.3905C195.296 25.6143 194.951 25.1987 194.26 25.4225C195.685 25.5543 194.613 25.743 196.514 25.9187ZM192.507 24.6849C192.126 24.6497 191.746 24.6145 191.262 24.6657C190.856 24.9159 192.308 24.7624 192.195 24.9438C192.178 25.134 191.227 25.0462 190.467 24.9758C190.717 25.3826 189.576 25.2772 189.731 25.6752C190.007 25.7967 190.872 25.7807 191.166 25.7119C190.396 25.7367 190.803 25.4865 190.717 25.3826C191.097 25.4178 191.088 25.5129 191.468 25.5481C191.296 25.3403 191.961 25.4018 192.151 25.4194C191.625 24.8911 192.67 24.9878 192.507 24.6849ZM140.527 24.9623C141.304 24.8424 141.011 24.9112 141.486 24.9551C142.558 24.7664 140.363 24.6594 140.527 24.9623ZM186.276 24.6843C186.362 24.7882 185.204 24.8729 186.051 25.0471C186.059 24.952 186.932 24.8409 186.276 24.6843ZM146.248 24.2444C146.611 24.4698 147.787 24.1948 148.185 24.0397C147.13 24.0382 146.067 24.1317 145.574 24.278C145.583 24.1829 145.488 24.1741 145.307 24.0614C147.13 24.0382 146.872 23.7265 146.993 23.45C146.708 23.4236 146.138 23.3709 145.749 23.4308C145.731 23.621 146.111 23.6562 146.197 23.7601C145.808 23.82 145.428 23.7849 145.247 23.6722C145.048 23.7497 145.03 23.94 144.27 23.8696C143.967 24.0335 145.506 23.9839 144.728 24.1038C144.443 24.0774 143.872 24.0247 143.492 23.9896C143.258 24.4475 144.927 24.0263 145.194 24.2429C145.28 24.3468 144.14 24.2413 144.503 24.4667C144.693 24.4842 144.987 24.4155 145.272 24.4419C145.375 24.3555 146.05 24.322 146.248 24.2444ZM142.385 24.5586C142.403 24.3684 141.435 24.4708 142.126 24.247C141.063 24.3405 141.815 24.5059 140.666 24.4956C140.856 24.5131 140.951 24.5219 140.942 24.617C141.702 24.6874 141.806 24.601 142.385 24.5586ZM215.81 26.6478C216.208 26.4927 215.931 26.3713 216.778 26.5455C216.511 26.3289 217.366 26.408 217.288 26.209C216.701 26.3465 214.523 26.0492 214.108 26.3945C214.583 26.4384 214.868 26.4648 215.05 26.5775C214.661 26.6374 215.041 26.6726 215.023 26.8628C214.453 26.8101 212.457 26.6255 213.304 26.7997C213.987 26.671 215.196 27.0706 216.44 27.0898C216.76 26.7357 216.078 26.8644 215.81 26.6478ZM188.687 24.5235C188.281 24.7737 188.851 24.8264 187.425 24.6946C186.941 24.7458 187.408 24.8848 187.399 24.9799C188.453 24.9815 188.462 24.8864 189.309 25.0606C189.231 24.8616 189.353 24.585 188.687 24.5235ZM214.557 26.7238L214.566 26.6287C213.9 26.5671 214.099 26.4896 213.615 26.5408L213.606 26.6359C214.073 26.7749 213.987 26.671 214.557 26.7238ZM194.675 25.0772C194.796 24.8007 193.362 24.7639 193.716 25.0844C194.2 25.0333 194.2 25.0333 194.675 25.0772ZM151.555 23.8718C151.745 23.8894 151.84 23.8982 151.831 23.9933L152.791 23.986C152.903 23.8046 151.763 23.6992 151.555 23.8718ZM151.365 23.8542C151.08 23.8279 150.216 23.8439 149.922 23.9126C150.397 23.9566 151.149 24.122 151.365 23.8542ZM158.771 23.5798C158.132 23.233 156.369 23.6455 157.302 23.9236C157.613 23.6646 158.287 23.631 158.771 23.5798ZM219.457 26.6013C220.407 26.6892 221.462 26.6908 222.101 27.0376C221.859 26.5357 219.863 26.3511 219.457 26.6013ZM8.6162 48.9279C8.43491 48.8152 8.44371 48.7201 7.84706 48.9527C8.1234 49.0742 7.11139 49.6521 7.80309 49.4283C8.01076 49.2556 8.22723 48.9879 8.6162 48.9279ZM223.725 27.0919C223.942 26.8242 222.326 26.6748 222.49 26.9777C223.155 27.0392 223.336 27.1519 223.725 27.0919ZM147.961 23.3476C148.41 23.6769 149.862 23.5234 151.305 23.465C151.046 23.1533 149.784 23.3244 149.102 23.4531C148.454 23.2013 149.197 23.4619 147.961 23.3476ZM140.409 23.1289C139.337 23.3175 139.44 23.2312 138.49 23.1433C139.034 23.4814 138.083 23.3935 137.314 23.4183C137.297 23.6085 137.478 23.7212 137.849 23.8515C138.152 23.6876 138.446 23.6189 138.844 23.4638C139.293 23.7931 140.875 23.2679 141.22 23.6835C141.635 23.3382 140.088 23.483 140.409 23.1289ZM201.002 24.0316C202.22 24.3361 200.881 24.3081 201.71 24.6726C201.122 24.81 201.244 24.5335 200.474 24.5583C200.932 24.7925 199.403 24.747 200.249 24.9212C200.543 24.8524 201.502 24.8452 201.969 24.9842C202.099 24.6126 203.62 24.7532 203.456 24.4503C203.741 24.4767 203.732 24.5718 203.724 24.6669L204.959 24.7811C204.501 24.547 204.614 24.3655 204.528 24.2616C203.759 24.2865 203.482 24.165 202.342 24.0595C202.039 24.2234 203.102 24.1298 202.791 24.3888C201.944 24.2146 201.201 23.9541 201.002 24.0316ZM136.813 23.6597C136.64 23.4519 137.124 23.4007 137.047 23.2017C136.658 23.2617 136.278 23.2265 136.079 23.3041C136.355 23.4255 136.234 23.7021 136.813 23.6597ZM147.979 23.1574C148.264 23.1838 148.359 23.1925 148.739 23.2277C148.575 22.9248 147.892 23.0535 146.838 23.0519C146.423 23.3972 147.667 23.4164 147.979 23.1574ZM145.032 22.885C144.073 22.8922 144.418 23.3078 144.314 23.3941C144.617 23.2302 144.92 23.0664 145.032 22.885ZM135.405 23.3376C134.273 23.1371 133.08 23.6023 132.043 23.4105C132.025 23.6007 132.794 23.5759 133.261 23.715C133.495 23.257 134.532 23.4488 135.405 23.3376ZM9.68977 47.6843C8.79919 47.9856 8.29759 48.227 8.17616 48.5035C8.87665 48.1846 9.56834 47.9608 9.68977 47.6843ZM167.691 22.4862C166.568 22.1905 165.773 22.5006 164.84 22.2225C165.134 22.1538 165.324 22.1714 165.333 22.0762C162.758 21.9341 163.759 22.5063 163.638 22.7828C165.746 22.786 166.248 22.5446 167.691 22.4862ZM153.709 22.3444L153.683 22.6297C154.158 22.6737 154.357 22.5961 155.117 22.6664C155.04 22.4674 154.669 22.3372 153.709 22.3444ZM146.683 22.6539C147.271 22.5164 145.958 22.2032 147.686 22.1711C147.194 22.3174 147.85 22.4741 147.452 22.6291C148.221 22.6043 148.213 22.6994 148.688 22.7434C149.276 22.6059 148.221 22.6043 148.904 22.4756C149.578 22.442 150.122 22.7801 150.615 22.6338C150.348 22.4172 151.972 22.4715 152.56 22.334C151.972 22.4715 152.931 22.4643 153.51 22.4219C152.768 22.1614 154.133 21.904 152.812 21.6858C152.518 21.7546 152.785 21.9712 152.31 21.9272C152.319 21.8321 151.645 21.8657 151.852 21.6931C152.155 21.5292 152.354 21.4517 153.019 21.5132C152.847 21.3054 152.372 21.2615 151.602 21.2863C151.092 21.6228 149.675 21.3958 148.707 21.4982C149.649 21.6811 148.292 21.8434 148.939 22.0952C149.424 22.044 149.251 21.8362 149.649 21.6811C149.64 21.7763 149.925 21.8026 149.916 21.8977C149.346 21.845 149.225 22.1215 149.709 22.0704C149.821 21.8889 150.781 21.8817 150.953 22.0895C151.247 22.0208 151.178 21.7267 151.662 21.6755C151.835 21.8833 151.256 21.9257 151.419 22.2286C150.244 22.5035 149.017 22.2942 148.058 22.3014C148.084 22.0161 146.926 22.1008 146.563 21.8755C146.252 22.1344 145.604 21.8827 144.921 22.0114C145.266 22.427 145.249 22.6172 146.683 22.6539ZM143.348 22.4414C143.615 22.658 144.575 22.6508 145.249 22.6172C145.189 22.228 144.298 22.5293 143.348 22.4414ZM248.403 28.7024C247.729 28.7359 246.684 28.6393 246.036 28.3875L246.009 28.6729C246.588 28.6305 248.947 29.0404 248.403 28.7024ZM140.945 22.5071C140.09 22.428 138.076 22.4336 138.819 22.6941C139.407 22.5567 139.683 22.6781 140.548 22.6621C140.452 22.6533 140.841 22.5934 140.945 22.5071ZM160.994 22.3465C161.478 22.2954 161.564 22.3993 161.945 22.4344C162.256 22.1755 160.831 22.0436 160.994 22.3465ZM227.736 26.2158C228.306 26.2685 229.438 26.4691 229.637 26.3916C228.981 26.235 227.866 25.8442 227.736 26.2158ZM204.183 23.8461C203.5 23.9748 202.014 23.4537 201.789 23.8166C201.902 23.6351 204.053 24.2177 204.183 23.8461ZM169.956 21.8323C168.608 21.8995 167.718 22.2008 167.079 21.854C166.871 22.0266 166.551 22.3807 167.501 22.4686C167.355 21.9755 169.351 22.16 169.956 21.8323ZM132.451 22.1053C131.863 22.2428 132.615 22.4082 132.502 22.5897C133.081 22.5473 133.461 22.5824 133.747 22.6088C133.574 22.401 133.393 22.2883 132.451 22.1053ZM247.514 27.9487C247.773 28.2604 249 28.4698 247.66 28.4418C248.317 28.5985 248.706 28.5385 248.62 28.4346C248.058 28.2868 248.275 28.019 247.514 27.9487ZM245.803 27.7905C245.129 27.8241 244.205 27.4509 243.894 27.7098C244.844 27.7977 245.224 27.8329 245.103 28.1094C245.388 28.1358 245.578 28.1534 245.863 28.1797C246.053 28.1973 246.175 27.9208 245.803 27.7905ZM122.996 22.7658C122.996 22.7658 123.005 22.6707 123.195 22.6883C124.05 22.7674 125.01 22.7601 125.372 22.9855C126.738 22.7281 126.263 22.6842 126.289 22.3988C125.131 22.4836 125.062 22.1895 124.103 22.1967C123.991 22.3781 122.832 22.4629 122.15 22.5916C122.201 23.0759 124.336 22.7937 122.996 22.7658ZM229.5 25.8033C228.644 25.7242 228.074 25.6715 228.057 25.8617C228.342 25.8881 228.627 25.9145 228.808 26.0272C228.541 25.8106 229.854 26.1238 229.5 25.8033ZM251.738 28.9148L251.765 28.6295C251.393 28.4992 250.642 28.3338 250.366 28.2124C250.936 28.2651 251.048 28.0837 251.627 28.0413C250.962 27.9798 248.042 27.422 248.206 27.7249C248.215 27.6298 249.727 27.8655 249.623 27.9518C249.338 27.9255 249.234 28.0118 249.139 28.003C250.755 28.1524 249.95 28.5576 251.177 28.767C251.367 28.7846 251.462 28.7934 251.738 28.9148ZM135.053 21.9622C135.225 22.17 134.275 22.0821 134.533 22.3938C135.294 22.4641 135.501 22.2914 136.253 22.4569C136.288 22.0764 135.519 22.1012 135.053 21.9622ZM17.0853 43.3801C15.9959 43.759 15.7794 44.0268 15.0877 44.2506C15.2179 43.8789 12.995 45.1122 12.3984 45.3448C12.4758 45.5438 12.7873 45.2849 12.4758 45.5438C14.0757 44.8284 15.8744 44.0355 17.0853 43.3801ZM162.395 21.7087C163.147 21.8741 163.449 21.7103 164.097 21.962C164.893 21.6519 162.992 21.4761 162.395 21.7087ZM129.772 22.0495C129.478 22.1182 129.746 22.3348 129.081 22.2733C129.123 22.8527 130.913 22.1549 131.958 22.2516L131.976 22.0614C130.939 21.8696 130.135 22.2748 129.772 22.0495ZM172.549 21.7843C172.264 21.7579 172.091 21.5501 171.789 21.714C171.961 21.9218 171.521 21.4974 170.553 21.5997C170.726 21.8075 170.337 21.8675 170.043 21.9362C171.002 21.929 172.428 22.0608 172.549 21.7843ZM147.169 21.5478C147.246 21.7468 147.722 21.7907 148.387 21.8522C148.309 21.6532 148.128 21.5405 147.169 21.5478ZM108.036 23.8764C107.75 23.8501 107.75 23.8501 107.759 23.755C107.37 23.8149 106.886 23.8661 106.782 23.9524C108.338 23.7126 106.471 24.2114 107.24 24.1866C107.457 23.9188 108.018 24.0667 108.036 23.8764ZM169.439 21.2089C168.566 21.3201 167.14 21.1882 166.552 21.3257C166.725 21.5335 167.364 21.8804 167.952 21.7429C167.667 21.7165 167.675 21.6214 167.684 21.5263C168.254 21.579 168.462 21.4064 168.937 21.4503C169.024 21.5542 169.49 21.6933 169.671 21.806C169.318 21.4855 169.81 21.3392 169.439 21.2089ZM165.852 21.6446C165.861 21.5495 165.87 21.4544 166.068 21.3769C165.213 21.2978 164.349 21.3138 163.675 21.3474C163.743 21.6415 164.513 21.6167 165.852 21.6446ZM229.051 25.4741C228.291 25.4038 228.498 25.2311 227.643 25.152C227.928 25.1784 228.653 25.6291 229.051 25.4741ZM117.647 22.559C116.385 22.7301 117.345 22.7228 117.422 22.9218C117.033 22.9818 116.454 23.0242 116.929 23.0681C117.318 23.0082 118.174 23.0873 118.096 22.8883C117.526 22.8355 117.431 22.8267 117.647 22.559ZM19.3769 42.4409C18.1836 42.9061 18.5039 42.5521 18.8154 42.2931C18.0023 42.7935 16.9304 42.9821 16.6101 43.3362C17.7083 42.8622 18.2874 42.8198 18.9703 42.6911C18.8841 42.5872 19.273 42.5273 19.3769 42.4409ZM20.7356 41.2237C20.6229 41.4051 19.8274 41.7152 19.3434 41.7664C19.1357 41.939 19.222 42.0429 19.0143 42.2156C20.0175 41.7328 19.6021 42.0781 19.2906 42.337C19.9911 42.0181 20.1037 41.8367 20.6053 41.5953C20.5965 41.6904 20.9943 41.5354 21.0894 41.5441C20.6828 41.7943 20.1812 42.0357 20.0686 42.2171C21.3657 41.6656 21.5135 41.1037 20.7356 41.2237ZM146.919 21.141C146.634 21.1146 146.245 21.1745 145.96 21.1482C146.037 21.3472 146.331 21.2784 146.91 21.2361C146.901 21.3312 146.996 21.34 147.377 21.3751C147.679 21.2113 146.616 21.3048 146.919 21.141ZM228.629 24.8595C228.62 24.9546 228.516 25.0409 228.317 25.1184L229.743 25.2503C229.76 25.06 229.389 24.9298 228.629 24.8595ZM134.336 21.4163C134.354 21.2261 133.109 21.207 132.902 21.3796C133.368 21.5186 133.653 21.545 134.336 21.4163ZM146.185 20.7853C146.262 20.9843 145.588 21.0179 146.444 21.097C146.841 20.9419 147.239 20.7869 146.185 20.7853ZM128.572 21.5548C128.857 21.5811 128.857 21.5811 129.047 21.5987C129.16 21.4173 128.685 21.3733 128.097 21.5108C128.079 21.701 128.07 21.7962 128.554 21.745L128.572 21.5548ZM250.531 27.4603C249.961 27.4075 249.485 27.3636 249.287 27.4411C249.563 27.5626 250.513 27.6505 250.531 27.4603ZM143.247 20.4178C141.744 20.0869 143.29 20.9972 141.095 20.8902C142.036 21.0732 142.901 21.0572 144.249 20.99C144.361 20.8086 143.402 20.8158 143.515 20.6343C143.809 20.5656 144.388 20.5232 144.492 20.4369C143.731 20.3666 143.904 20.5744 143.524 20.5392C143.143 20.5041 142.763 20.4689 142.781 20.2787C143.066 20.3051 143.057 20.4002 143.247 20.4178ZM227.402 24.6501C227.963 24.798 228.533 24.8507 229.294 24.921C229.398 24.8347 229.026 24.7044 229.13 24.6181C228.171 24.6253 227.912 24.3136 228.396 24.2625C227.454 24.0795 226.893 23.9316 226.495 24.0867C226.789 24.0179 226.141 23.7662 226.029 23.9476C226.409 23.9828 226.21 24.0603 226.011 24.1378C227.722 24.296 227.324 24.4511 228.171 24.6253C228.171 24.6253 228.162 24.7204 227.877 24.6941C227.886 24.5989 227.506 24.5638 227.402 24.6501ZM174.582 20.5334C173.441 20.4279 171.989 20.5814 172.637 20.8332C173.13 20.6869 173.769 21.0338 174.538 21.009C174.089 20.6797 174.953 20.6637 174.582 20.5334ZM208.894 22.651C209.275 22.6862 209.827 22.9291 210.13 22.7653C209.655 22.7213 209.301 22.4009 208.894 22.651ZM99.4465 23.4659C98.4784 23.5683 97.9856 23.7145 98.0631 23.9135C98.4521 23.8536 98.841 23.7936 99.2212 23.8288C99.0487 23.621 99.6278 23.5786 99.4465 23.4659ZM25.0071 39.6043C26.0878 39.3205 27.7739 38.709 28.4744 38.3901C27.5064 38.4924 25.3538 38.9648 25.0071 39.6043ZM136.04 20.6146C135.746 20.6834 133.836 20.6027 132.877 20.6099C132.764 20.7914 132.367 20.9464 133.136 20.9216C133.145 20.8265 133.058 20.7226 133.343 20.749C133.032 21.0079 134.104 20.8193 133.887 21.087L135.14 21.0111C134.683 20.7769 137.05 21.0917 136.04 20.6146ZM125.358 21.0657C124.39 21.1681 123.621 21.1929 123.698 21.3919C123.413 21.3655 122.843 21.3128 122.264 21.3552L122.246 21.5454C123.318 21.3567 123.499 21.4694 124.165 21.5309C124.372 21.3583 125.332 21.3511 125.358 21.0657ZM138.442 20.549C137.967 20.5051 136.438 20.4596 136.498 20.8488C136.688 20.8664 136.982 20.7976 136.973 20.8927C137.837 20.8767 138.045 20.7041 138.442 20.549ZM131.407 20.9537C131.511 20.8673 131.71 20.7898 132.09 20.825C131.823 20.6084 131.555 20.3918 130.89 20.3303C130.284 20.658 129.429 20.5789 128.737 20.8027C129.213 20.8466 128.91 21.0105 129.688 20.8906C129.982 20.8218 129.714 20.6052 130.189 20.6492C130.665 20.6931 131.001 21.2038 131.693 20.98C131.494 21.0576 131.399 21.0488 131.407 20.9537ZM113.777 21.9133C113.863 22.0172 114.053 22.0348 114.243 22.0524C114.166 21.8534 115.211 21.95 114.944 21.7335C113.985 21.7407 113.397 21.8782 112.731 21.8167C112.628 21.903 111.633 22.2906 112.791 22.2059C112.8 22.1108 113.094 22.042 113.777 21.9133ZM99.9745 22.9392C100.355 22.9744 101.038 22.8457 101.011 23.131C100.708 23.2948 100.251 23.0607 100.319 23.3548C101.356 23.5466 106.62 22.5945 105.436 22.9646C106.784 22.8974 107.096 22.6385 107.787 22.4146C107.485 22.5785 107.476 22.6736 108.055 22.6312C108.263 22.4586 108.625 22.684 109.308 22.5553C109.507 22.4777 109.611 22.3914 109.533 22.1924C108.375 22.2772 107.321 22.2756 106.62 22.5945C106.448 22.3867 105.86 22.5242 105.652 22.6969C105.498 22.2988 103.716 22.9015 103.458 22.5898C104.625 22.41 105.091 22.549 105.402 22.2901C104.616 22.5051 103.787 22.1406 103.76 22.426C103.475 22.3996 103.294 22.2869 103.009 22.2606C102.43 22.3029 101.851 22.3453 101.367 22.3965C101.34 22.6818 100.372 22.7841 99.9745 22.9392ZM29.504 37.622C29.2101 37.6907 29.115 37.6819 29.02 37.6732C28.4321 37.8106 27.7141 38.3198 28.1981 38.2686C28.1206 38.0696 29.5902 37.7259 29.504 37.622ZM111.271 22.0653C111.288 21.875 110.709 21.9174 110.32 21.9774C110.406 22.0813 110.017 22.1412 110.104 22.2451C110.778 22.2115 110.691 22.1076 111.271 22.0653ZM32.2021 36.4326C31.2165 36.7252 30.7149 36.9666 29.9194 37.2767C30.0056 37.3806 29.9018 37.4669 30.1957 37.3982C30.6022 37.148 31.7868 36.7779 32.2021 36.4326ZM129.888 19.758C128.549 19.7301 129.396 19.9043 128.912 19.9555C128.237 19.9891 128.635 19.834 128.644 19.7389C127.97 19.7725 127.106 19.7885 127.667 19.9363C127.979 19.6774 128.125 20.1705 127.174 20.0826C127.166 20.1777 127.995 20.5422 126.94 20.5406C127.018 20.7396 127.398 20.7748 128.167 20.75C127.709 20.5158 129.939 20.2424 129.888 19.758ZM115.368 21.2931C114.296 21.4817 114.417 21.2052 114.132 21.1788C113.743 21.2388 113.363 21.2036 112.879 21.2548L112.853 21.5401C113.916 21.4466 114.391 21.4905 114.365 21.7758C114.754 21.7159 115.618 21.6999 115.532 21.596C115.246 21.5696 115.454 21.397 115.368 21.2931ZM109.102 21.6729C110.459 21.5106 111.288 21.875 112.274 21.5825C111.617 21.4259 110.001 21.2765 109.102 21.6729ZM119.249 20.7886C118.964 20.7623 118.869 20.7535 118.774 20.7447C118.203 20.6919 117.788 21.0372 117.607 20.9245C117.719 20.7431 118.679 20.7359 118.782 20.6496C117.737 20.5529 117.131 20.8806 116.63 21.122C116.906 21.2435 119.024 21.1515 119.249 20.7886ZM132.835 20.0305C133.604 20.0057 134.442 20.275 134.753 20.016C134.373 19.9809 132.169 19.969 132.835 20.0305ZM116.086 20.7839C116.38 20.7152 116.76 20.7503 116.769 20.6552C115.913 20.5761 115.326 20.7136 115.109 20.9814C115.394 21.0077 115.584 21.0253 116.068 20.9741C116.172 20.8878 116.362 20.9054 116.086 20.7839ZM85.8693 24.129C85.9908 23.8524 84.6162 24.2049 84.8925 24.3264C85.1864 24.2577 85.3765 24.2752 85.6617 24.3016C85.7655 24.2153 85.2903 24.1713 85.6793 24.1114C85.6793 24.1114 85.6705 24.2065 85.8693 24.129ZM134.512 19.5141C134.883 19.6444 134.201 19.7731 134.961 19.8434C135.074 19.662 136.006 19.9401 136.214 19.7674C135.359 19.6883 135.281 19.4893 134.512 19.5141ZM87.5291 23.8028C88.1169 23.6653 88.6009 23.6141 88.7136 23.4327C88.5235 23.4151 88.4284 23.4064 88.4372 23.3112C88.0483 23.3712 86.9852 23.4647 86.9764 23.5599C87.2703 23.4911 87.2527 23.6813 87.4516 23.6038C87.9444 23.4575 87.5379 23.7077 87.5291 23.8028ZM116.718 20.1709C116.804 20.2748 116.017 20.4898 116.778 20.5601C117.538 20.6304 119.786 20.1668 120.935 20.1771C120.866 19.883 117.953 20.2851 118.524 20.3379C117.841 20.4666 116.977 20.4826 117.573 20.25C117.573 20.25 117.763 20.2676 117.858 20.2763C117.288 20.2236 117.401 20.0422 116.718 20.1709ZM45.0943 31.7734C45.1119 31.5832 45.6998 31.4457 45.7086 31.3506C43.3835 31.6152 41.2557 32.8573 39.8124 32.9157C39.8036 33.0108 39.9849 33.1235 39.691 33.1923C39.6047 33.0884 38.7054 33.4848 38.2214 33.536C38.3076 33.6399 38.2038 33.7262 38.4977 33.6575C40.3915 32.8733 42.4402 32.4872 45.0943 31.7734ZM99.3284 21.6325C99.3108 21.8227 99.9849 21.7891 100.564 21.7467C100.487 21.5477 100.106 21.5126 99.3284 21.6325ZM86.7264 23.1531C85.6722 23.1515 85.5419 23.5231 84.5915 23.4353C84.6003 23.3401 84.8942 23.2714 84.808 23.1675C84.0212 23.3825 84.2377 23.1148 83.8487 23.1747C84.1163 23.3913 83.6147 23.6327 83.1482 23.4936C83.5196 23.6239 83.0268 23.7702 83.407 23.8053C84.2888 23.5991 84.4613 23.8069 85.3606 23.4105C85.3518 23.5056 85.5507 23.428 85.637 23.5319C85.4381 23.6095 85.153 23.5831 85.1442 23.6782C85.8271 23.5495 86.3287 23.3081 86.7264 23.1531ZM68.3497 25.9622C66.7763 26.3922 65.2644 26.1565 63.4832 26.7592C63.6733 26.7768 64.46 26.5618 64.4512 26.6569C63.8722 26.6992 63.5694 26.8631 63.5607 26.9582C64.5111 27.0461 68.0981 26.6104 68.3497 25.9622ZM68.6349 25.9886C68.8162 26.1012 68.9975 26.2139 69.6804 26.0852C70.1908 25.7487 69.3178 25.8599 68.6349 25.9886ZM139.093 18.6907C139.827 19.0464 136.121 18.7036 135.705 19.0489C135.049 18.8923 132.819 19.1657 133.252 18.6302C133.338 18.7341 134.945 18.9786 134.695 18.5718C135.075 18.607 136.043 18.5046 135.931 18.6861C135.741 18.6685 135.36 18.6333 134.971 18.6933C135.058 18.7972 135.628 18.8499 136.207 18.8075C136.492 18.8339 136.406 18.73 136.415 18.6349C136.89 18.6788 136.7 18.6613 137.374 18.6277C136.397 18.8251 139.076 18.881 139.093 18.6907ZM256.663 34.7419C258.02 34.5796 259.981 35.1446 262.625 35.5809C260.733 35.31 258.642 35.1167 256.663 34.7419ZM234.419 29.6156C235.275 29.6946 236.044 29.6698 236.347 29.506C236.891 29.8441 235.058 29.9624 233.944 29.5716C233.867 29.3726 233.971 29.2863 234.256 29.3126C234.826 29.3654 233.763 29.4589 234.419 29.6156ZM191.825 23.7586C191.436 23.8185 190.468 23.9208 189.155 23.6076C189.553 23.4525 190.132 23.4101 189.873 23.0984C190.453 23.0561 190.729 23.1775 190.574 22.7795C192.077 23.1104 190.218 23.514 191.825 23.7586ZM210.109 25.0655C210.127 24.8753 209.66 24.7362 210.334 24.7026C211 24.7642 210.109 25.0655 211.068 25.0583C211.639 25.111 211.095 24.7729 210.81 24.7466C212.357 24.6019 211.707 25.4051 210.109 25.0655ZM185.068 23.2297C185.449 23.2648 184.87 23.3072 185.345 23.3512C184.463 23.5574 183.946 22.934 183.168 23.0539C183.574 22.8037 182.823 22.6383 181.777 22.5417C182.659 22.3354 182.97 22.0765 183.757 21.8614C184.431 21.8278 184.414 22.0181 184.993 21.9757C185.165 22.1835 183.852 21.8702 184.025 22.078C184.69 22.1395 184.197 22.2858 184.741 22.6239C185.605 22.6079 186.089 22.5567 187.135 22.6534C186.858 22.5319 186.003 22.4528 186.211 22.2802C187.066 22.3592 187.17 22.2729 187.93 22.3432C188.207 22.4647 187.809 22.6198 188.37 22.7676C188.941 22.8203 188.863 22.6213 189.632 22.5965C189.9 22.8131 189.891 22.9082 189.122 22.933C189.113 23.0281 189.597 22.977 189.882 23.0033C190.055 23.2111 189.484 23.1584 189.372 23.3398C189 23.2096 188.145 23.1305 187.186 23.1377C187.453 23.3543 187.263 23.3367 186.969 23.4055C187.056 23.5094 187.341 23.5357 187.911 23.5884C187.496 23.9337 186.477 23.5517 185.707 23.5765C185.63 23.3775 186.2 23.4303 186.675 23.4742C186.494 23.3615 186.123 23.2313 185.941 23.1186C185.285 22.9619 185.924 23.3088 185.068 23.2297C184.611 22.9955 185.276 23.057 184.81 22.918C184.049 22.8477 184.317 23.0643 183.557 22.994C183.738 23.1066 185.164 23.2385 185.068 23.2297ZM255.039 29.5078C255.151 29.3263 254.581 29.2736 254.875 29.2049C255.531 29.3615 255.549 29.1713 256.11 29.3191C255.912 29.3966 255.428 29.4478 255.6 29.6556C254.849 29.4902 254.926 29.6892 254.174 29.5238C254.468 29.455 254.373 29.4462 253.993 29.4111C254.115 29.1346 254.468 29.455 255.039 29.5078ZM184.692 21.0845C184.216 21.0406 183.18 20.8488 182.316 20.8648C181.546 20.8896 182.212 20.9512 182.099 21.1326C180.932 21.3124 180.57 21.0871 179.438 20.8865C180.32 20.6803 179.455 20.6963 178.695 20.626C179.422 20.0217 183.268 19.8977 185.255 20.1774C185.54 20.2038 185.454 20.0999 185.463 20.0047C185.929 20.1438 185.748 20.0311 186.413 20.0926L186.395 20.2828C187.355 20.2756 188.504 20.286 188.625 20.0094C187.693 19.7313 187.458 20.1893 186.232 19.9799C186.154 19.7809 187.01 19.86 186.742 19.6434C187.511 19.6186 187.304 19.7913 187.684 19.8264C187.986 19.6626 188.289 19.4987 188.687 19.3437C189.248 19.4915 189.153 19.4827 190.113 19.4755C189.991 19.752 188.851 19.6466 188.358 19.7929C188.444 19.8967 189.498 19.8983 189.101 20.0534C189.481 20.0885 189.861 20.1237 190.345 20.0725C189.852 20.2188 190.431 20.1764 190.613 20.2891C190.785 20.4969 189.748 20.3051 190.102 20.6256C188.115 20.3459 189.324 20.7455 187.156 20.3532C186.585 20.3004 187.034 20.6297 186.93 20.716C185.367 19.996 182.8 20.8137 181.115 20.3701C181.003 20.5516 181.383 20.5867 181.849 20.7258C182.817 20.6234 183.845 20.9103 184.234 20.8504C184.908 20.8168 184.018 21.1181 184.692 21.0845ZM193.265 20.6303C193.188 20.4313 192.712 20.3873 192.341 20.2571C192.454 20.0756 193.758 20.484 194.06 20.3202C194.346 20.3465 194.233 20.528 194.319 20.6318C195.287 20.5295 194.889 20.6846 196.229 20.7125C196.03 20.79 195.451 20.8324 196.203 20.9978C195.995 21.1705 194.863 20.9699 194.293 20.9172C193.826 20.7781 194.699 20.667 193.844 20.5879C193.628 20.8557 192.772 20.7766 192.366 21.0267C191.795 20.974 192.288 20.8277 192.107 20.715C192.297 20.7326 192.677 20.7678 193.057 20.8029C192.695 20.5776 192.695 20.5776 193.265 20.6303ZM208.231 21.5345C208.689 21.7687 209.475 21.5537 209.674 21.4761C210.037 21.7015 209.458 21.7439 210.598 21.8493C209.63 21.9517 208.412 21.6472 207.462 21.5593C207.868 21.3092 208.058 21.3267 207.506 21.0838C207.782 21.2053 208.162 21.2404 208.741 21.198C208.578 20.8951 209.157 20.8527 209.554 20.6977C210.098 21.0357 210.324 20.6729 210.989 20.7344C209.994 21.1221 209.044 21.0342 208.231 21.5345ZM225.425 23.2203C225.434 23.1252 225.909 23.1692 226.194 23.1955C226.221 22.9102 224.691 22.8647 224.035 22.7081C225.59 22.4683 226.886 22.9717 228.873 23.2514C228.76 23.4328 227.629 23.2323 226.963 23.1707C226.955 23.2658 227.24 23.2922 227.222 23.4824C226.298 23.1092 225.978 23.4633 225.425 23.2203ZM237.478 24.5267C237.469 24.6218 236.346 24.3261 236.061 24.2998C235.975 24.1959 236.26 24.2222 236.364 24.1359C235.681 24.2646 234.843 23.9953 233.703 23.8898C234.1 23.7348 234.852 23.9002 235.405 24.1431C235.422 23.9529 234.567 23.8738 234.204 23.6484C233.34 23.6645 232.666 23.698 231.802 23.7141C231.828 23.4287 230.186 23.5647 229.149 23.3729C229.158 23.2778 229.063 23.269 228.873 23.2514C229.366 23.1051 229.547 23.2178 229.66 23.0364C232.078 23.8355 234.602 23.4934 238.101 24.0088C237.893 24.1814 237.531 23.956 237.142 24.016C237.133 24.1111 237.608 24.155 237.893 24.1814C237.6 24.2502 236.735 24.2662 237.478 24.5267ZM246.887 25.3968C247 25.2153 248.123 25.511 248.322 25.4335C248.883 25.5813 247.63 25.6573 246.887 25.3968ZM253.894 26.3324C253.791 26.4187 253.609 26.3061 253.134 26.2621C252.875 25.9504 253.817 26.1334 254.111 26.0647C254.862 26.2301 253.143 26.167 253.894 26.3324ZM229.781 22.7598C228.84 22.5768 228.062 22.6968 227.379 22.8255C227.595 22.5577 228.477 22.3515 229.781 22.7598ZM28.2437 36.7381C28.1223 37.0146 27.2581 37.0306 27.4746 36.7629C27.6735 36.6853 27.6735 36.6853 27.7597 36.7892C28.3564 36.5566 27.8811 36.5127 28.6679 36.2977C28.6591 36.3928 27.457 36.9531 28.2437 36.7381ZM111.844 20.008C111.161 20.1367 111.922 20.207 111.135 20.422C111.886 20.5875 112.872 20.2949 113.339 20.434C113.736 20.2789 114.315 20.2365 114.238 20.0375C114.618 20.0727 114.315 20.2365 114.704 20.1766C113.71 20.5642 111.99 20.5011 111.385 20.8288C111.99 20.5011 110.624 20.7585 110.132 20.9048C109.665 20.7658 109.199 20.6267 108.136 20.7203C108.542 20.4701 108.724 20.5828 109.588 20.5667C109.398 20.5492 109.018 20.514 109.121 20.4277C109.994 20.3166 109.968 20.6019 110.642 20.5683C110.565 20.3693 109.795 20.3941 109.13 20.3326C109.822 20.1088 110.487 20.1703 111.844 20.008ZM257.99 26.6152C257.437 26.3723 258.474 26.5641 258.949 26.608C258.302 26.3563 256.867 26.3195 256.012 26.2404C257.654 26.1045 259.623 26.5744 262.086 26.898C260.945 26.7926 258.483 26.4689 257.99 26.6152ZM108.231 20.729C107.824 20.9792 107.159 20.9177 106.286 21.0288C106.399 20.8474 106.502 20.7611 107.272 20.7363C107.384 20.5548 106.9 20.606 106.511 20.666C106.425 20.5621 107.972 20.4173 107.203 20.4421C108.768 20.1072 106.883 20.7962 108.231 20.729ZM23.0217 38.2696C23.3244 38.1057 23.247 37.9067 23.9211 37.8731C23.9299 37.778 23.9387 37.6829 23.6447 37.7517C23.9475 37.5878 24.6479 37.2689 25.4435 36.9588C24.838 37.2865 24.9243 37.3904 25.9187 37.0027C25.5033 37.348 24.0848 38.176 22.814 38.4422C22.8316 38.252 23.0305 38.1745 23.0217 38.2696ZM77.7713 24.6272C77.9702 24.5496 78.1691 24.4721 78.2729 24.3858C79.0245 24.5512 76.4143 24.7894 76.3368 24.5904C76.8209 24.5393 77.5038 24.4106 77.7713 24.6272ZM232.279 22.703C231.994 22.6766 230.853 22.5712 230.084 22.596C230.015 22.3019 229.816 22.3794 230.404 22.2419C231.165 22.3122 231.251 22.4161 232.106 22.4952C232.002 22.5815 231.994 22.6766 232.279 22.703ZM261.257 26.5336C262.501 26.5527 260.713 26.1955 260.039 26.2291C260.151 26.0477 261.559 26.3697 262.225 26.4313C261.931 26.5 262.008 26.699 261.257 26.5336ZM225.773 21.5259C225.48 21.5947 224.624 21.5156 224.348 21.3941C225.298 21.482 225.886 21.3445 226.56 21.3109C226.456 21.3972 225.696 21.3269 225.773 21.5259ZM151.525 21.0872C150.756 21.1121 150.765 21.0169 150.289 20.973C150.316 20.6877 150.8 20.6365 151.949 20.6469C151.845 20.7332 151.543 20.897 151.525 21.0872ZM200.687 21.2207C200.022 21.1592 199.754 20.9426 199.772 20.7524C200.844 20.5637 201.976 20.7643 202.71 21.1199C202.321 21.1799 200.714 20.9353 200.687 21.2207ZM178.67 19.8563C176.761 19.7757 175.62 19.6702 174.091 19.6247C174.86 19.5999 174.592 19.3833 174.791 19.3058C175.361 19.3585 175.75 19.2985 176.036 19.3249C175.854 19.2122 175.465 19.2722 175.578 19.0907C177.393 19.1626 177.298 19.1538 179.501 19.1657C178.913 19.3032 179.285 19.4335 178.982 19.5974C178.403 19.6397 178.42 19.4495 177.746 19.4831C177.539 19.6557 178.308 19.6309 178.688 19.6661L178.67 19.8563Z" fill="#93E6B4"/>
</svg>
