<svg width="494" height="151" viewBox="0 0 494 151" fill="none" xmlns="http://www.w3.org/2000/svg">
<path d="M94.6654 75.0712C92.8382 75.6135 91.0273 75.9796 90.4498 76.4596C92.0845 76.0773 93.7355 75.5187 94.6654 75.0712ZM38.6788 92.4781C39.8664 91.1653 44.963 89.8583 48.8098 88.6136C45.4426 90.4361 42.1896 91.0244 38.6788 92.4781ZM75.3364 80.3969C74.0705 80.6355 73.7344 80.4266 72.2759 80.8252C74.1194 80.1065 76.4914 79.4367 78.1261 79.0544C77.02 79.4856 76.4588 79.7894 75.3364 80.3969ZM60.5592 84.5431C60.768 84.2067 62.9312 83.8733 63.8611 83.4258C63.6523 83.7621 61.4727 84.2719 60.5592 84.5431ZM259.997 53.1935C258.555 53.4158 258.219 53.2069 257.866 53.1743C251.81 53.3256 257.723 52.8054 259.997 53.1935ZM302.822 51.2851C305.465 51.5295 303.047 50.7725 305.899 50.6805C305.354 50.808 304.633 50.9191 304.953 51.3043C306.186 51.4184 306.026 51.2258 307.1 51.1472C306.346 51.611 303.863 51.5592 302.822 51.2851ZM407.874 56.7312C409.492 56.5252 405.936 56.5519 406.513 56.0719C407.025 56.2971 408.435 56.4274 409.668 56.5414C409.812 56.9104 408.931 56.8289 407.874 56.7312ZM349.455 52.3963C350.016 52.0926 351.266 52.0303 352.483 52.3206C351.905 52.8007 350.545 52.1414 349.455 52.3963ZM325.042 51.2059C325.075 50.8532 326.484 50.9836 327.718 51.0976C328.037 51.4829 325.939 51.111 325.042 51.2059ZM364.529 52.7233C363.472 52.6255 362.415 52.5277 361.887 52.4789C361.903 52.3026 365.091 52.4195 364.529 52.7233ZM487.305 64.4316C488.027 64.3205 490.157 64.3397 491.71 64.8389C490.461 64.9012 489.563 64.9961 487.305 64.4316ZM2.82698 101.611C2.33099 101.209 4.36697 100.33 4.04719 99.9453C6.06686 99.2429 5.40784 100.605 2.82698 101.611ZM473.836 62.1192C473.676 61.9266 474.221 61.7992 474.397 61.8155C474.733 62.0244 475.967 62.1384 475.598 62.2821C475.246 62.2496 474.541 62.1844 473.836 62.1192ZM458.941 59.8528C458.589 59.8202 458.253 59.6113 457.724 59.5624C459.134 59.6927 457.965 58.8734 459.535 59.1964C459.678 59.5653 458.797 59.4839 458.941 59.8528ZM414.242 51.274C414.259 51.0977 415.652 51.4044 415.685 51.0517C417.43 51.391 415.619 51.757 414.242 51.274ZM421.819 51.9746C420.938 51.8931 420.954 51.7168 420.073 51.6353C419.913 51.4427 420.811 51.3479 420.106 51.2827C420.667 50.9789 421.483 51.7657 421.819 51.9746ZM469.118 57.4151C468.749 57.5588 465.946 57.1219 466.507 56.8181C468.958 57.2225 466.589 55.9365 468.88 56.1483C469.023 56.5172 470.416 56.8239 472.355 57.0031C473.203 57.4372 471.441 57.2743 471.408 57.6269C471.265 57.258 469.503 57.0951 468.478 56.6447C468.269 56.981 468.061 57.3174 469.118 57.4151ZM473.731 57.4861C474.1 57.3423 475.157 57.4401 476.391 57.5541C476.166 58.0668 474.772 57.7601 473.731 57.4861ZM477.272 57.6356C478.505 57.7497 479.546 58.0237 480.779 58.1378C480.907 58.683 476.87 58.132 477.272 57.6356ZM484.799 58.8651C485.889 58.6102 487.778 59.3184 488.835 59.4162C489.844 60.0429 485.488 59.1066 484.799 58.8651ZM391.709 47.0565C390.475 46.9424 390.508 46.5898 390.348 46.3972C390.877 46.4461 390.909 46.0934 391.774 46.3512C392.799 46.8016 390.877 46.4461 391.709 47.0565ZM388.554 46.5869C388.185 46.7306 387.673 46.5055 387.144 46.4566C387.177 46.1039 387.881 46.1691 387.562 45.7839C389.676 45.9794 387.513 46.3128 388.554 46.5869ZM9.95574 91.7782C10.1809 91.2655 11.8481 90.5306 13.1467 89.9394C13.2903 90.3083 10.6931 91.4907 9.95574 91.7782ZM462.827 54.3439C464.093 54.1053 465.326 54.2193 466.879 54.7186C465.982 54.8134 464.589 54.5068 462.827 54.3439ZM384.214 45.4743C382.628 45.3277 383.894 45.0891 384.263 44.9454C385.512 44.8831 385.48 45.2358 386.553 45.1572C386.185 45.3009 384.423 45.138 384.214 45.4743ZM421.6 48.5757C421.28 48.1905 423.698 48.9475 423.378 48.5623C422.514 48.3045 419.903 47.7075 421.186 47.2926C422.931 47.6318 423.587 48.2259 425.525 48.4051C425.124 48.9015 423.698 48.9475 421.6 48.5757ZM360.62 43.1148C361.501 43.1963 363.279 43.1829 362.894 43.503C361.837 43.4052 360.764 43.4838 360.62 43.1148ZM362.447 42.5725C363.328 42.654 363.312 42.8303 364.209 42.7354C364.242 42.3828 363.537 42.3176 364.61 42.2391C364.451 42.0465 363.553 42.1413 362.848 42.0761C362.832 42.2525 363.361 42.3013 363.328 42.654C362.976 42.6214 362.287 42.3799 361.566 42.491C362.127 42.1873 362.352 41.6746 363.778 41.6286C362.754 41.1783 361.455 41.7695 360.59 41.5117C359.935 40.9176 362.385 41.322 362.418 40.9694C363.651 41.0834 363.602 41.6124 365.557 41.6153C364.291 41.8538 366.02 42.3694 366.34 42.7546C366.836 43.1561 362.206 43.2615 362.447 42.5725ZM448.496 49.8179C448.16 49.609 446.927 49.4949 447.295 49.3512C448.705 49.4815 448.176 49.4327 449.569 49.7393C449.393 49.723 448.688 49.6579 448.496 49.8179ZM355.85 40.8955C356.587 40.608 355.53 40.5103 356.267 40.2228C357.132 40.4806 357.804 40.8984 355.85 40.8955ZM379.013 42.1482C379.029 41.9719 378.853 41.9556 378.5 41.923C379.414 41.6518 378.357 41.5541 378.918 41.2503C380.151 41.3644 379.43 41.4755 379.398 41.8281C379.381 42.0045 379.926 41.877 380.262 42.0859C380.246 42.2622 379.894 42.2297 379.013 42.1482ZM359.951 40.7413C358.943 40.1146 356.476 39.8865 355.468 39.2598C357.598 39.279 362.356 39.7188 359.951 40.7413ZM408.679 44.18C407.798 44.0986 407.814 43.9223 406.933 43.8408C406.966 43.4882 407.847 43.5696 406.454 43.263C406.31 42.894 408.568 43.4585 407.896 43.0407C408.424 43.0895 408.392 43.4422 409.289 43.3473C409.416 43.8926 408.711 43.8274 408.679 44.18ZM484.743 53.703C483.67 53.7816 481.412 53.2172 480.724 52.9757C481.621 52.8808 483.686 53.6053 484.743 53.703ZM436.423 45.8563C436.456 45.5037 438.378 45.8592 439.611 45.9733C439.05 46.277 437.833 45.9867 436.423 45.8563ZM439.115 45.5718C438.746 45.7155 436.648 45.3437 435.591 45.2459C436.505 44.9748 437.353 45.4088 439.115 45.5718ZM435.095 44.8444C434.743 44.8118 434.407 44.6029 433.702 44.5378C433.911 44.2014 434.456 44.074 434.664 43.7376C435.898 43.8517 438.139 44.5924 438.172 44.2398C439.758 44.3864 438.828 44.8339 440.43 44.8042C439.34 45.0591 436.906 44.4784 435.144 44.3155C435.111 44.6681 435.992 44.7496 435.095 44.8444ZM482.28 51.5192C481.046 51.4051 480.903 51.0362 481.095 50.8762C482.489 51.1828 482.521 50.8302 483.37 51.2643C483.177 51.4243 482.136 51.1502 482.28 51.5192ZM32.586 75.7326C36.8831 73.4626 42.7822 71.1628 46.678 69.3892C47.9114 69.5032 42.991 70.8265 43.1183 71.3717C38.9028 72.7602 36.4329 74.4879 32.586 75.7326ZM289.535 35.4749C289.92 35.1548 288.862 35.057 288.158 34.9919C289.424 34.7533 289.424 34.7533 288.575 34.3192C289.632 34.417 290.69 34.5147 292.115 34.4687C291.73 34.7888 292.804 34.7102 292.595 35.0466C291.907 34.8051 289.968 34.6259 289.92 35.1548C290.079 35.3474 291.329 35.2851 291.345 35.1088C292.37 35.5592 290.768 35.5889 289.535 35.4749ZM20.6279 80.1394C20.853 79.6268 23.0489 78.9407 24.3474 78.3495C23.7699 78.8296 22.1027 79.5645 20.6279 80.1394ZM449.944 45.684C450.489 45.5566 452.764 45.9447 453.997 46.0587C452.907 46.3136 451.866 46.0396 449.944 45.684ZM321.863 35.619C321.158 35.5538 320.822 35.3449 321.031 35.0086C322.281 34.9463 322.809 34.9952 323.69 35.0766C323.305 35.3967 321.72 35.2501 321.863 35.619ZM30.7915 75.9223C30.6316 75.7297 31.0166 75.4096 31.9302 75.1385C31.9465 74.9622 30.4554 75.7134 29.7343 75.8246C30.8893 74.8644 33.9987 73.9072 34.4947 74.3087C32.8437 74.8673 32.2336 75.7 30.7915 75.9223ZM408.157 40.2196C409.566 40.3499 409.55 40.5262 410.431 40.6077C410.029 41.1041 407.948 40.5559 408.157 40.2196ZM379.9 38.3181C378.314 38.1715 379.42 37.7403 380.83 37.8706C381.15 38.2558 380.092 38.1581 379.9 38.3181ZM403.19 40.116C400.9 39.9042 397.888 39.8036 396.864 39.3532C397.056 39.1932 397.601 39.0657 398.642 39.3398C397.794 38.9057 396.88 39.1769 395.134 38.8376C396.449 38.0701 400.564 39.6953 401.879 38.9278C403.641 39.0907 404.153 39.3159 405.018 39.5737C405.161 39.9426 402.358 39.5056 403.19 40.116ZM402.342 39.6819C401.461 39.6005 401.141 39.2153 399.715 39.2612C399.699 39.4376 399.523 39.4213 399.154 39.565C400.211 39.6628 401.092 39.7442 402.342 39.6819ZM484.332 50.4642C482.586 50.1249 482.267 49.7397 480.345 49.3842C480.201 49.0152 481.242 49.2893 482.123 49.3708C483.131 49.9975 482.443 49.756 485.246 50.193C485.229 50.3693 484.012 50.0789 484.332 50.4642ZM427.329 42.3481C427.313 42.5244 425.744 42.2015 425.039 42.1363C425.071 41.7837 426.305 41.8977 426.833 41.9466C428.755 42.3021 424.863 42.12 427.329 42.3481ZM377.994 37.7862C377.642 37.7537 377.658 37.5773 377.482 37.561L376.073 37.4307C375.929 37.0618 378.187 37.6262 377.515 37.2084C378.396 37.2899 378.379 37.4662 379.277 37.3713C379.773 37.7729 378.187 37.6262 377.994 37.7862ZM53.618 67.3635C53.2493 67.5072 53.0731 67.491 52.7044 67.6347C52.7207 67.4584 52.5282 67.6184 52.1758 67.5858C52.2084 67.2332 53.6669 66.8346 53.3308 66.6257C54.9492 66.4197 53.6506 67.0109 53.618 67.3635ZM369.168 37.1479L367.406 36.985C368.849 36.7627 367.103 36.4235 369.234 36.4427L369.168 37.1479ZM335.401 35.2703C336.331 34.8228 339.326 35.0998 341.649 34.959C340.687 35.7591 338.429 35.1947 335.401 35.2703ZM406.267 39.5114C408.75 39.5632 410.512 39.7261 412.049 40.4017C410.287 40.2388 406.554 40.2493 406.267 39.5114ZM303.859 34.3098C303.666 34.4698 302.785 34.3884 302.08 34.3232C301.584 33.9217 301.777 33.7617 303.379 33.732C303.346 34.0846 302.625 34.1957 303.859 34.3098ZM292.308 34.3087C293.045 34.0212 292.324 34.1324 292.357 33.7798C290.931 33.8257 291.956 34.2761 289.665 34.0643C289.714 33.5354 291.652 33.7146 292.742 33.4597C292.951 33.1234 291.172 33.1368 291.381 32.8004C294.024 33.0448 290.95 31.6936 295.003 32.0683C294.97 32.421 293.032 32.2418 293.176 32.6107C294.745 32.9336 294.843 31.8757 297.31 32.1038C296.925 32.4239 296.204 32.535 295.13 32.6136C295.466 32.8225 296.155 33.064 296.86 33.1292C298.462 33.0995 298.142 32.7142 299.039 32.6194C300.113 32.5408 300.801 32.7823 300.769 33.1349C300.047 33.2461 299.486 33.5499 298.589 33.6447C297.196 33.3381 295.241 33.3352 293.27 33.5086C293.238 33.8612 293.943 33.9264 294.647 33.9916C294.439 34.3279 293.365 34.4065 292.308 34.3087ZM390.746 38.254C389.865 38.1726 388.984 38.0911 388.103 38.0096C390.25 37.8525 389.049 37.3858 391.692 37.6302C391.643 38.1592 390.938 38.094 390.746 38.254ZM342.161 35.1842C342.002 34.9916 342.53 35.0404 343.075 34.913C343.091 34.7367 342.563 34.6878 342.595 34.3352C343.812 34.6255 343.685 34.0803 345.255 34.4032L345.206 34.9322C344.292 35.2034 343.571 35.3145 342.161 35.1842ZM198.648 38.2738C197.222 38.3198 198.504 37.9049 197.639 37.6471C197.992 37.6797 198.696 37.7448 199.418 37.6337C199.225 37.7937 198.152 37.8723 198.648 38.2738ZM32.7817 73.6168C31.6919 73.8717 29.2709 75.0704 29.3198 74.5415C30.6021 74.1266 31.5157 73.8554 32.6544 73.0715C33.3755 72.9604 32.4456 73.4079 32.7817 73.6168ZM47.6894 68.0601L50.254 67.2303C50.2376 67.4066 47.4643 68.5728 47.6894 68.0601ZM361.161 35.3406C359.559 35.3703 359.047 35.1451 358.006 34.871C358.567 34.5673 361.194 34.988 361.161 35.3406ZM461.88 45.3651C461.351 45.3162 461.192 45.1236 460.503 44.8821C460.696 44.7221 462.794 45.0939 463.675 45.1754C463.466 45.5117 461.736 44.9961 461.88 45.3651ZM440.466 42.4958L437.31 42.0262C437.15 41.8336 440.515 41.9669 440.466 42.4958ZM468.239 45.7753C469.456 46.0656 470.161 46.1308 471.395 46.2448C471.554 46.4375 467.854 46.0953 468.239 45.7753ZM238.128 34.1001C238.337 33.7638 240.291 33.7667 241.348 33.8644C240.627 33.9756 238.816 34.3416 238.128 34.1001ZM271.099 33.0589L271.148 32.5299C272.045 32.4351 272.029 32.6114 272.91 32.6929C272.365 32.8203 272.173 32.9803 271.099 33.0589ZM224.222 34.5925C224.943 34.4813 225.68 34.1939 226.049 34.0501C228.02 33.8767 226.033 34.2265 226.016 34.4028C228.708 34.1182 231.72 34.2189 233.162 33.9966C230.79 34.6664 226.352 34.6117 224.222 34.5925ZM236.718 33.9698C235.678 33.6957 234.379 34.2869 233.514 34.0291C233.547 33.6765 237.296 33.4897 236.718 33.9698ZM323.726 32.7682C322.845 32.6868 322.685 32.4941 321.452 32.3801C321.644 32.2201 322.878 32.3341 322.894 32.1578C323.759 32.4156 323.919 32.6082 323.726 32.7682ZM134.252 44.7671C134.67 44.0944 137.697 44.0187 140.037 43.7016C138.193 44.4202 137.12 44.4988 134.252 44.7671ZM146.863 42.9101C145.965 43.005 144.876 43.2599 143.642 43.1458C143.851 42.8095 146.527 42.7012 146.863 42.9101ZM41.5846 68.7404C42.1621 68.2603 42.0022 68.0677 43.6532 67.5091C43.7968 67.878 42.6907 68.3092 41.5846 68.7404ZM370.679 34.2646C371.048 34.1209 372.969 34.4764 373.85 34.5578C372.761 34.8127 371.175 34.6661 370.679 34.2646ZM233.194 33.6439C232.137 33.5462 231.433 33.481 230.007 33.527C230.375 33.3833 233.772 33.1639 233.194 33.6439ZM443.8 41.0259C440.837 40.3963 437.601 40.8083 433.405 40.0646C433.95 39.9372 435.007 40.035 434.015 39.2319C438.916 40.0408 441.19 40.4289 445.595 40.8362C445.034 41.1399 444.296 41.4274 442.374 41.0719C442.727 41.1045 443.095 40.9607 443.8 41.0259ZM430.762 39.8203C428.135 39.3996 428.311 39.4159 425.541 38.6262C427.864 38.4854 430.667 38.9224 433.117 39.3268C431.851 39.5654 432.028 39.5817 430.762 39.8203ZM228.581 33.573C227.684 33.6678 227.347 33.4589 226.803 33.5864C222.332 33.8843 227.188 33.2663 228.581 33.573ZM216.436 34.2283C217.895 33.8297 221.451 33.8029 223.598 33.6457C223.054 33.7732 219.096 34.2963 216.436 34.2283ZM487.317 47.0059C485.412 46.474 488.616 46.4147 491.05 46.9954C491.066 46.8191 490.186 46.7376 489.657 46.6887C490.554 46.5939 492.476 46.9494 493.324 47.3835C491.53 47.5732 487.559 46.3169 487.317 47.0059ZM482.257 46.0045C482.978 45.8933 483.363 45.5733 485.461 45.9451C484.051 45.8147 484.002 46.3437 482.257 46.0045ZM89.2084 51.4494C88.5362 51.0315 91.4043 50.7633 91.8056 50.2669C93.76 50.2698 89.9132 51.5145 89.2084 51.4494ZM87.6764 77.6258C86.4268 77.6881 89.3437 76.8908 89.7287 76.5708C91.3308 76.5411 87.8852 77.2894 87.6764 77.6258ZM107.694 72.5416C108.431 72.2541 109.57 71.4703 110.627 71.568C110.418 71.9044 108.607 72.2704 107.694 72.5416ZM27.0762 94.9617C29.817 94.1482 32.0455 93.1095 34.4501 92.087C35.1386 92.3285 31.6931 93.0769 31.6442 93.6058C31.419 94.1185 33.6475 93.0798 34.5774 92.6323C34.5448 92.9849 33.0863 93.3835 33.07 93.5598C33.4224 93.5924 35.4258 93.0664 35.4747 92.5374C35.8434 92.3937 36.0033 92.5863 36.7407 92.2988C33.7422 93.9777 31.5952 94.1348 28.7893 95.6536C27.7321 95.5558 26.0485 96.4671 27.0762 94.9617ZM206.887 54.8621C206.519 55.0058 206.502 55.1822 206.486 55.3585C204.548 55.1793 204.58 54.8266 202.913 55.5616L202.802 54.84C202.433 54.9838 202.417 55.1601 201.52 55.2549C201.184 55.046 202.433 54.9838 202.29 54.6148C201.585 54.5497 199.967 54.7557 198.701 54.9942C198.684 55.1706 200.303 54.9646 200.848 54.8371C201.008 55.0297 200.238 55.6698 201.696 55.2712C200.59 55.7024 196.632 56.2256 195.206 56.2716C195.19 56.4479 195.366 56.4642 195.719 56.4967C192.466 57.0851 183.91 57.3609 179.391 58.1879C179.408 58.0115 179.231 57.9953 178.879 57.9627C178.895 57.7864 179.616 57.6752 180.145 57.7241C180.034 57.0025 177.822 57.8649 176.957 57.6071C175.884 57.6857 175.675 58.022 175.306 58.1658C173.88 58.2117 173.016 57.954 171.365 58.5126C170.676 58.2711 172.663 57.9214 171.237 57.9674C172.167 57.5199 172.631 58.274 174.794 57.9406C175.724 57.4931 175.548 57.4768 177.342 57.2871C176.862 56.7093 174.138 57.3465 172.503 57.7288C172.167 57.5199 173.241 57.4413 173.257 57.265C172.36 57.3599 169.107 57.9482 168.545 58.2519C168.017 58.2031 167.681 57.9942 166.784 58.089C165.694 58.3439 166.526 58.9543 168.161 58.572C168.144 58.7483 167.423 58.8595 166.895 58.8106C165.997 58.9054 166.669 59.3232 165.244 59.3692C163.658 59.2226 166.19 58.7454 166.046 58.3765C165.165 58.295 164.555 59.1277 162.584 59.3011C163.338 58.8374 163.53 58.6773 161.191 58.9945C159.909 59.4094 160.982 59.3308 160.421 59.6346C157.537 60.0792 155.533 60.6052 153.001 61.0824C153.145 61.4513 153.85 61.5165 155.308 61.1179C155.837 61.1668 151.846 62.0426 151.334 61.8174C146.623 62.8043 141.399 63.5661 136.704 64.3767C131.992 65.3636 127.297 66.1742 123.642 67.2589C122.393 67.3212 120.774 67.5272 119.123 68.0858C117.472 68.6445 115.645 69.1868 114.187 69.5855C115.789 69.5558 117.985 68.8697 119.636 68.311C121.27 67.9287 122.553 67.5138 122.504 68.0428C124.667 67.7093 129.923 66.5949 129.907 66.7713C126.109 67.487 122.856 68.0754 120.132 68.7126C117.407 69.3498 115.051 69.8432 112.552 69.9678C111.639 70.2389 111.27 70.3827 111.43 70.5753C107.279 71.2585 99.8271 73.0589 96.3815 73.8073C96.238 73.4384 97.8563 73.2324 98.7862 72.7849C95.1808 73.3406 84.6027 76.2746 80.0511 77.4542C78.7851 77.6928 80.4524 76.9578 80.2762 76.9415C78.113 77.275 75.8519 78.6663 73.2873 79.4961L73.1437 79.1272C69.6656 80.2282 66.7486 81.0254 62.7093 82.4301C63.1269 81.7575 67.101 81.058 67.1499 80.529C64.7941 81.0225 60.1936 82.731 57.3093 83.1756C54.3597 84.3255 54.5196 84.5181 51.5863 85.4916C50.8978 85.2501 50.1931 85.185 47.9809 86.0474C47.6937 85.3095 49.8244 85.3287 50.242 84.656C48.2223 85.3584 48.9597 85.0709 46.4114 85.7244C46.7638 85.757 47.325 85.4532 47.2924 85.8059C43.7979 87.0832 42.3558 87.3055 39.0049 88.9517C38.956 89.4807 40.992 88.602 41.6968 88.6671C42.2416 88.5397 41.9056 88.3308 41.9219 88.1545C43.1878 87.9159 44.0688 87.9973 45.7524 87.0861C45.4947 87.9514 41.488 89.0035 39.8044 89.9148C37.9935 90.2808 36.9037 90.5357 34.6915 91.3981C34.163 91.3492 33.2657 91.444 32.5283 91.7315C31.4222 92.1627 31.7746 92.1953 31.3896 92.5153C30.1073 92.9302 31.5984 92.179 31.246 92.1464C29.5461 93.234 29.595 92.705 28.1039 93.4563C28.0876 93.6326 28.44 93.6652 28.9849 93.5378C26.7727 94.4002 24.5769 95.0862 21.8361 95.8998C21.4674 96.0435 21.4511 96.2198 21.0824 96.3635C21.0661 96.5399 21.5947 96.5887 22.5246 96.1412C21.7872 96.4287 20.4886 97.0199 19.2063 97.4348C17.924 97.8497 16.6418 98.2646 15.9207 98.3758C14.9908 98.8233 16.6255 98.441 16.2242 98.9373C15.3269 99.0322 15.663 99.2411 14.5569 99.6723C14.397 99.4797 13.1147 99.8946 12.7623 99.862C12.2011 100.166 11.8161 100.486 11.7998 100.662C11.2549 100.79 10.5175 101.077 9.98894 101.028C8.43264 102.485 3.8647 103.841 0.67373 105.679C-0.608552 106.094 1.46003 104.863 1.49264 104.51C2.95112 104.112 4.4422 103.36 5.03601 102.704C6.70329 101.969 7.42438 101.858 8.72296 101.267C8.77187 100.738 9.28416 100.963 9.71806 100.114C10.8405 99.5065 10.6153 100.019 11.7377 99.4116C11.5941 99.0427 9.91057 99.954 9.94317 99.6013C8.41948 100.705 5.88752 101.182 4.46165 101.228C5.58404 100.621 5.35893 101.134 6.11263 100.67C6.32143 100.333 7.07513 99.8696 7.10773 99.517C6.94784 99.3244 5.96904 100.301 5.60034 100.445C5.44045 100.252 4.86295 100.732 4.54317 100.347C5.82545 99.9319 5.80915 100.108 7.31654 99.1806C5.73077 99.034 9.03273 97.9167 9.81903 97.1003C9.83533 96.924 9.29044 97.0514 9.30675 96.8751C11.5515 95.6601 11.7929 94.9711 13.3166 93.8672C13.1404 93.8509 12.9479 94.0109 12.788 93.8183C10.5107 95.386 8.82707 96.2973 7.63946 97.6101C6.53338 98.0413 6.58229 97.5123 5.0912 98.2636C6.21359 97.656 6.80739 96.9996 7.57739 96.3596C7.5937 96.1832 7.0325 96.487 6.66381 96.6307C10.8662 93.4628 16.7195 89.7362 19.4635 86.9669C14.6215 89.3644 13.4013 91.0298 7.67836 93.3459C11.8155 90.8832 13.2282 89.0578 14.8334 87.0723C16.5985 85.2794 18.38 83.3103 23.2219 80.9128C22.1647 80.815 24.0082 80.0964 22.566 80.3187C24.4258 79.4237 25.9169 78.6724 27.408 77.9212C27.2318 77.9049 26.8794 77.8723 26.5107 78.016C26.7195 77.6797 28.5467 77.1373 28.3216 77.65C29.444 77.0425 28.7066 77.33 28.563 76.961C30.2303 76.2261 30.214 76.4024 31.5125 75.8112C31.8486 76.0201 30.7589 76.2749 30.9024 76.6439C31.2874 76.3238 32.0248 76.0364 32.9384 75.7652C32.9547 75.5889 32.6023 75.5563 32.0411 75.86C32.7948 75.3963 33.9009 74.9651 35.3757 74.3901C35.3105 75.0954 36.1915 75.1769 37.4901 74.5856C37.8261 74.7945 36.7364 75.0494 36.7201 75.2257C38.5635 74.5071 38.2437 74.1219 38.4852 73.4329C41.0497 72.6031 41.9959 71.9793 44.368 71.3095C45.1217 70.8457 45.8591 70.5582 44.9781 70.4768C55.0602 67.1412 57.5137 65.5898 66.1536 62.4766C65.8175 62.2677 63.6054 63.1301 62.9169 62.8886C65.289 62.2188 66.4276 61.435 68.816 60.5889C70.4507 60.2066 70.963 60.4318 72.2779 59.6642C68.816 60.5889 74.5226 58.4492 72.9206 58.4789C76.0137 57.6979 79.5245 56.2443 83.3713 54.9996C83.9162 54.8721 83.7563 54.6795 83.7726 54.5032C88.1155 53.66 94.8009 50.5439 98.7261 50.3734C99.0785 50.4059 99.4146 50.6148 99.767 50.6474C102.651 50.2028 104.72 48.9715 108.133 48.5758C108.805 48.9936 112.668 47.5726 113.422 47.1088C108.534 48.0794 101.082 49.8799 95.5057 50.609C99.8811 49.4132 103.806 49.2427 106.051 48.0276C107.813 48.1906 112.029 46.8021 114.048 46.0997C114.401 46.1323 115.249 46.5664 115.49 45.8775C117.109 45.6715 116.003 46.1026 115.089 46.3738C115.618 46.4227 115.954 46.6316 116.499 46.5042C115.905 47.1605 115.04 46.9028 113.389 47.4614C116.593 47.402 118.502 45.9781 121.001 45.8536C122.46 45.4549 121.21 45.5172 121.243 45.1646C122.652 45.2949 124 44.1747 125.233 44.2888C125.393 44.4814 124.656 44.7689 123.566 45.0237C123.005 45.3275 124.783 45.3141 123.693 45.569C124.013 45.9542 125.52 45.0267 125.631 45.7482C124.365 45.9868 124.75 45.6667 123.837 45.9379C123.292 46.0654 123.628 46.2743 122.907 46.3854C124.493 46.532 125.935 46.3097 129.188 45.7214C128.5 45.4799 132.297 44.7642 132.666 44.6204C133.162 45.022 131.015 45.1791 130.102 45.4502C130.614 45.6754 132.777 45.342 132.904 45.8872C134.187 45.4723 132.216 45.6458 132.777 45.342C133.851 45.2634 135.117 45.0248 136.911 44.8351C135.613 45.4263 137.6 45.0766 137.936 45.2855C138.481 45.1581 138.689 44.8217 140.115 44.7758L140.259 45.1447C141.91 44.586 144.041 44.6052 145.643 44.5755C146.011 44.4318 146.028 44.2555 146.925 44.1606C146.093 43.5502 147.551 43.1516 148.497 42.5278C149.026 42.5767 150.452 42.5307 149.522 42.9782C151.14 42.7722 151.91 42.1321 153.496 42.2787C155.5 41.7527 153.914 41.606 155.196 41.1911C156.397 41.6578 160.019 40.9257 161.461 40.7035C162.534 40.6249 161.588 41.2487 162.469 41.3302C164.28 40.9641 163.768 40.7389 164.697 40.2914C166.459 40.4544 166.508 39.9254 165.996 39.7002C166.701 39.7654 167.598 39.6705 167.807 39.3342C167.934 39.8794 174.936 39.1043 175.514 38.6242C176.587 38.5457 178.366 38.5323 177.436 38.9798C179.07 38.5974 179.583 38.8226 181.025 38.6003C180.865 38.4077 180.16 38.3426 179.247 38.6137C178.366 38.5323 181.602 38.1203 182.323 38.0091C182.483 38.2017 181.762 38.3129 181.041 38.424C182.963 38.7796 185.11 38.6224 187.449 38.3053C187.306 37.9363 185.495 38.3024 186.072 37.8223C187.515 37.6 187.306 37.9363 188.379 37.8578C186.97 37.7274 190.927 37.2043 191.087 37.3969C190.526 37.7006 188.924 37.7303 188.363 38.0341C188.33 38.3867 192.145 37.4946 191.182 38.2948C192.256 38.2162 192.8 38.0888 192.993 37.9287C193.698 37.9939 193.858 38.1865 194.386 38.2354C195.107 38.1243 194.419 37.8828 195.316 37.7879C196.758 37.5656 196.005 38.0294 197.078 37.9508C196.324 38.4146 194.915 38.2843 193.12 38.474C193.633 38.6992 194.898 38.4606 194.145 38.9244C195.411 38.6858 195.956 38.5583 197.189 38.6724C196.964 39.185 195.394 38.8621 193.584 39.2281C193.424 39.0355 192.719 38.9704 192.19 38.9215C191.982 39.2578 192.654 39.6756 189.593 40.1039C189.946 40.1365 190.65 40.2017 190.458 40.3617C192.429 40.1883 193.182 39.7245 194.817 39.3422C194.961 39.7111 192.99 39.8845 195.329 39.5674C195.489 39.76 195.28 40.0963 194.912 40.2401C196.514 40.2104 195.505 39.5837 197.636 39.6029C197.108 39.554 195.698 39.4236 196.612 39.1525C199.623 39.2531 199.672 38.7242 202.86 38.8411C202.7 38.6485 202.171 38.5996 202.012 38.407C201.467 38.5345 201.627 38.7271 201.995 38.5833C201.786 38.9197 200.586 38.453 200.217 38.5967C202.413 37.9107 203.212 38.8737 204.687 38.2988C204.495 38.4588 203.95 38.5862 203.757 38.7463C205.92 38.4128 204.11 38.7788 205.519 38.9092C206.24 38.798 206.097 38.4291 207.699 38.3994C207.297 38.8958 210.743 38.1474 213.595 38.0555C213.259 37.8466 212.538 37.9577 211.833 37.8926C212.394 37.5888 213.644 37.5265 214.893 37.4643C214.189 37.3991 213.131 37.3013 212.988 36.9324C215.696 36.4715 215.184 36.2463 214.335 35.8122C215.761 35.7662 217.347 35.9129 218.805 35.5143C218.068 35.8017 218.773 35.8669 220.199 35.8209C220.15 36.3499 217.892 35.7854 217.138 36.2492C218.388 36.187 221.576 36.3039 221.096 35.7261C222.346 35.6638 222.329 35.8401 222.489 36.0327C221.784 35.9676 221.239 36.095 221.223 36.2713C221.912 36.5128 224.427 36.2119 225.677 36.1497C225.964 36.8875 223.272 37.1721 221.67 37.2018C221.638 37.5544 221.798 37.747 222.679 37.8285C223.576 37.7336 222.727 37.2995 223.625 37.2047C225.051 37.1587 224.842 37.495 225.37 37.5439C225.899 37.5928 226.829 37.1453 225.755 37.2239C225.772 37.0475 226.124 37.0801 226.284 37.2727L227.71 37.2268C227.341 37.3705 227.325 37.5468 227.309 37.7231C228.751 37.5008 228.415 37.2919 229.087 37.7097C229.984 37.6149 229.296 37.3734 229.504 37.037C230.385 37.1185 231.987 37.0888 231.779 37.4252C234.454 37.3169 236.249 37.1272 235.753 36.7257C234.327 36.7717 234.823 37.1732 233.59 37.0591C234.007 36.3865 230.627 36.4295 229.938 36.188C232.085 36.0309 232.774 36.2724 234.392 36.0664C234.089 35.5049 233.56 35.456 233.416 35.0871C234.474 35.1848 235.355 35.2663 236.973 35.0603C235.867 35.4915 238.542 35.3832 239.231 35.6247C238.223 34.998 242.82 35.2453 243.238 34.5726C244.664 34.5266 243.926 34.8141 243.717 35.1504C243.75 34.7978 246.762 34.8984 247.323 34.5947C244.119 34.6541 243.815 34.0925 239.697 34.4231C239.538 34.2305 240.259 34.1193 240.099 33.9267C241.492 34.2334 244.393 33.6124 246.363 33.439C247.147 34.5784 250.638 35.2569 254.468 34.1885C254.42 34.7174 252.994 34.7634 252.256 35.0509C252.752 35.4524 253.986 35.5664 255.956 35.393C257.284 36.4049 263.069 35.3394 266.802 35.3289C267.523 35.2178 267.011 34.9926 267.732 34.8814C267.236 34.4799 265.265 34.6534 265.843 34.1733C267.203 34.8326 272.01 34.7435 272.636 33.7345C273.71 33.6559 274.767 33.7537 275.84 33.6751C275.889 33.1462 273.726 33.4796 273.951 32.9669C275.201 32.9047 275.233 32.552 276.659 32.5061C277.364 32.5712 277.876 32.7964 278.405 32.8453C278.933 32.8942 278.773 32.7016 278.79 32.5252C279.847 32.623 281.625 32.6096 280.695 33.0571C282.474 33.0437 280.761 32.3518 282.891 32.371C283.035 32.7399 281.785 32.8022 281.945 32.9948C281.929 33.1711 283.547 32.9651 284.252 33.0303C285.149 32.9354 284.301 32.5014 285.198 32.4065L286.976 32.3931C288.706 32.9087 286.141 33.7385 287.342 34.2052C287.309 34.5578 285.387 34.2023 285.035 34.1697C285.42 33.8496 286.67 33.7874 286.366 33.2258C284.059 33.1903 283.482 33.6704 283.609 34.2156C282.712 34.3105 282.216 33.909 282.183 34.2616C281.11 34.3402 282.408 33.749 280.79 33.955C280.036 34.4188 280.868 35.0292 281.717 35.4633C282.774 35.561 281.413 34.9017 282.999 35.0484C282.741 35.9137 279.73 35.813 277.632 35.4412C278.209 34.9611 279.651 34.7388 279.876 34.2261C279.717 34.0335 278.787 34.481 277.57 34.1907C279.38 33.8246 279.397 33.6483 278.917 33.0705C279.798 33.1519 280.167 33.0082 280.712 32.8808C280.92 32.5444 278.933 32.8942 279.335 32.3978C278.757 32.8779 276.499 32.3134 275.746 32.7772C275.905 32.9698 277.491 33.1165 277.507 32.9401C279.11 32.9105 276.193 33.7077 278.34 33.5506C278.307 33.9032 276.016 33.6914 275.68 33.4825C274.046 33.8648 272.94 34.296 272.01 34.7435C272.874 35.0013 274.525 34.4426 274.718 34.2826C276.127 34.413 276.623 34.8145 276.943 35.1997C276.398 35.3271 274.444 35.3242 273.723 35.4354C273.706 35.6117 274.956 35.5494 274.571 35.8695C272.6 36.0429 272.6 36.0429 270.998 36.0726C271.158 36.2652 271.863 36.3304 272.76 36.2355C272.92 36.4281 271.494 36.4741 271.478 36.6504C272.166 36.8919 273.047 36.9734 272.839 37.3097C275.129 37.5215 277.42 37.7333 278.637 38.0237C279.534 37.9288 279.55 37.7525 279.919 37.6088C282.017 37.9806 282.242 37.4679 283.524 37.053C285.991 37.2811 287.048 37.3789 288.859 37.0128C289.9 37.2869 288.778 37.8944 288.393 38.2145C287.192 37.7478 285.332 38.6428 283.955 38.1598C284.451 38.5613 286.389 38.7405 287.606 39.0309C288.168 38.7271 288.729 38.4234 289.466 38.1359C290.523 38.2337 290.315 38.57 291.74 38.524C290.634 38.9552 289.802 38.3448 288.52 38.7597C289.209 39.0012 290.089 39.0827 291.692 39.053C293.646 39.0559 291.036 38.4589 293.519 38.5106C293.904 38.1906 291.372 38.6678 291.757 38.3477C291.629 37.8025 292.285 38.3966 293.551 38.158C292.191 37.4987 297.206 37.0733 296.197 36.4466C297.431 36.5606 299.93 36.4361 300.234 36.9976C301.291 37.0954 301.66 36.9517 301.516 36.5827C299.93 36.4361 298.873 36.3383 297.111 36.1754C298.201 35.9205 299.467 35.682 302.126 35.75C300.765 35.0907 303.519 36.0567 303.937 35.384C300.429 34.8818 298.955 35.4568 295.91 35.7087C297.016 35.2775 295.607 35.1472 295.094 34.922C296.537 34.6997 298.795 35.2641 299.212 34.5915C301.359 34.4343 303.761 35.3677 304.211 34.3424C305.219 34.9691 307.784 34.1393 308.648 34.3971C308.874 33.8844 307.48 33.5777 308.586 33.1465C309.082 33.5481 310.123 33.8221 310.795 34.2399C314.176 34.1968 314.143 34.5495 316.642 34.4249C318.019 34.9079 314.606 35.3036 317.442 35.388C317.057 35.708 315.647 35.5777 314.221 35.6237C313.902 35.2385 315.151 35.1762 315.184 34.8236C314.495 34.5821 312.828 35.317 312.107 35.4282C311.402 35.363 311.787 35.043 310.361 35.0889C309.304 34.9912 312.668 35.1244 312.172 34.7229C309.865 34.6874 305.027 35.1291 303.2 35.6715C305.314 35.867 304.576 36.1544 306.322 36.4937C307.043 36.3825 305.121 36.027 306.74 35.821C307.604 36.0788 307.588 36.2551 309.383 36.0654C309.879 36.4669 308.293 36.3203 307.588 36.2551C307.379 36.5914 310.022 36.8358 310.215 36.6758C310.903 36.9173 310.854 37.4462 312.809 37.4491C313.018 37.1128 311.223 37.3025 311.079 36.9336C312.009 36.4861 314.62 37.0831 316.431 36.7171C315.742 36.4756 315.054 36.2341 314.189 35.9763C317.569 35.9332 321.511 35.5864 325.067 35.5596C325.821 35.0958 323.85 35.2692 324.235 34.9492C324.94 35.0144 325.452 35.2396 325.645 35.0795C326.878 35.1936 325.1 35.207 325.596 35.6085C328.239 35.8529 327.214 35.4025 327.935 35.2913C329.714 35.2779 327.886 35.8203 327.854 36.1729C326.428 36.2189 326.461 35.8663 325.211 35.9285C325.658 36.859 329.312 35.7743 329.759 36.7048C328.686 36.7833 327.997 36.5418 327.469 36.493C327.965 36.8945 330.624 36.9625 331.874 36.9003C330.944 37.3478 332.337 37.6544 333.554 37.9448C336.037 37.9966 341.724 37.989 345.232 38.4911C346.113 38.5726 345.039 38.6511 344.335 38.586C343.454 38.5045 344.286 39.1149 343.052 39.0009C341.852 38.5342 340.602 38.5965 338.648 38.5936C340.442 38.4039 334.259 38.01 334.579 38.3952C334.066 38.17 331.247 37.9093 331.375 38.4545C330.334 38.1805 327.834 38.305 326.408 38.351C326.745 38.5599 327.433 38.8014 328.138 38.8666C328.683 38.7391 329.051 38.5954 329.068 38.4191C329.772 38.4842 330.445 38.902 330.477 38.5494C332.415 38.7286 334.481 39.4531 335.362 39.5345C336.771 39.6649 334.801 39.8383 335.297 40.2398C334.239 40.1421 333.182 40.0443 333.567 39.7242C332.301 39.9628 334.207 40.4947 333.453 40.9585C332.22 40.8444 332.027 41.0044 332.171 41.3734C331.097 41.4519 330.265 40.8415 329.88 41.1616C328.471 41.0312 330.442 40.8578 330.778 41.0667L330.794 40.8904C330.618 40.8741 328.52 40.5023 328.118 40.9987C329.352 41.1127 328.454 41.2076 328.95 41.6091C331.433 41.6608 332.298 41.9186 333.339 42.1927C332.954 42.5127 332.618 42.3038 331.561 42.2061C332.057 42.6076 332.04 42.7839 331.127 43.0551C332.377 42.9928 333.274 42.898 332.425 42.4639C333.659 42.5779 333.065 43.2343 335.019 43.2372C335.564 43.1098 336.126 42.806 336.318 42.646C335.646 42.2282 335.757 42.9497 334.524 42.8357C335.085 42.5319 333.114 42.7054 333.675 42.4016C335.757 42.9497 335.359 41.4903 334.125 41.3763C335.342 41.6666 335.744 41.1703 336.833 40.9154C336.801 41.268 338.338 41.9436 337.76 42.4237C337.92 42.6163 338.481 42.3125 339.17 42.554C339.043 42.0088 341.3 42.5732 340.883 43.2459C341.764 43.3274 342.645 43.4088 343.542 43.314C343.575 42.9613 342.87 42.8962 342.165 42.831C342.534 42.6873 343.431 42.5924 343.447 42.4161C344.521 42.3375 344.488 42.6902 345.738 42.6279C346.201 43.382 343.382 43.1214 343.493 43.8429C344.935 43.6206 344.952 43.4443 346.554 43.4146C344.12 42.8339 348.172 43.2086 347.869 42.6471C348.75 42.7285 349.278 42.7774 349.246 43.13C349.983 42.8426 351.569 42.9892 353.331 43.1521C353.474 43.5211 352.577 43.6159 352.897 44.0011C355.412 43.7003 355.716 44.2618 358.744 44.1861C357.879 43.9284 356.998 43.8469 357.4 43.3505C359.85 43.755 361.26 43.8853 363.566 43.9208C362.813 44.3846 360.362 43.9801 359.465 44.075C359.609 44.4439 362.092 44.4957 363.501 44.626C363.469 44.9787 361.723 44.6394 361.69 44.9921C362.362 45.4099 363.469 44.9787 364.878 45.109C363.309 44.7861 364.222 44.5149 366.16 44.6941C366.353 44.5341 366.017 44.3252 365.312 44.26C365.89 43.7799 367.492 43.7503 368.885 44.0569C369.43 43.9295 368.741 43.688 370.183 43.4657C369.495 43.2242 367.893 43.2539 368.487 42.5975C369.544 42.6952 370.585 42.9693 370.81 42.4567C369.961 42.0226 368.503 42.4212 368.134 42.5649C367.302 41.9545 369.449 41.7974 366.823 41.3767C367.191 41.2329 367.56 41.0892 368.617 41.1869C368.826 40.8506 367.752 40.9292 368.137 40.6091C366.712 40.6551 365.351 39.9958 365.478 40.5411C364.069 40.4107 364.101 40.0581 363.237 39.8003C365.896 39.8684 371.776 39.7007 369.547 40.7395C369.916 40.5957 370.621 40.6609 371.325 40.7261C371.55 40.2134 370.317 40.0994 369.997 39.7141C361.892 38.9647 354.267 38.7931 348.948 38.6569C349.35 38.1606 348.244 38.5918 347.604 37.8213C349.014 37.9517 351.8 38.565 350.808 37.762C353.242 38.3427 355.406 38.0092 357.52 38.2048C358.257 37.9173 359.683 37.8713 358.819 37.6135C359.892 37.535 360.564 37.9528 362.359 37.7631C363.031 38.1809 364.072 38.4549 362.806 38.6935C366.297 39.372 368.685 38.5259 372.771 38.548C373.058 39.2858 373.922 39.5436 376.148 40.4607C376.853 40.5259 377.557 40.591 378.438 40.6725C378.823 40.3524 377.574 40.4147 377.061 40.1895C377.078 40.0132 379.528 40.4176 380.233 40.4828C379.401 39.8724 377.479 39.5168 374.484 39.2399C375.397 38.9687 376.598 39.4354 378.04 39.2131C378.536 39.6146 379.401 39.8724 381.179 39.859C380.859 39.4738 379.626 39.3597 378.937 39.1182C378.618 38.733 381.052 39.3137 380.716 39.1048C381.949 39.2189 380.171 39.2323 380.667 39.6338C383.904 39.2218 390.743 40.2098 393.803 39.7815C395.02 40.0719 396.782 40.2348 396.365 40.9075C399.36 41.1844 401.458 41.5563 403.925 41.7844C404.277 41.8169 404.822 41.6895 404.822 41.6895C404.662 41.4969 403.572 41.7518 403.076 41.3503C403.846 40.7102 405.768 41.0657 407.53 41.2286C407.85 41.6138 406.104 41.2746 405.736 41.4183C405.719 41.5946 406.248 41.6435 406.248 41.6435C408.522 42.0316 409.899 42.5146 412.03 42.5338C412.062 42.1812 409.932 42.162 409.419 41.9368C409.436 41.7605 409.452 41.5842 408.923 41.5353C411.455 41.0581 416.324 42.2195 418.327 41.6935C420.97 41.9379 421.13 42.1305 423.244 42.326C423.437 42.166 422.908 42.1171 422.38 42.0682C422.572 41.9082 424.67 42.28 425.551 42.3615C425.711 42.5541 425.182 42.5052 424.99 42.6652C424.637 42.6327 428.145 43.1348 427.649 42.7333C428.866 43.0237 426.367 43.1482 429.01 43.3926C428.641 43.5363 427.936 43.4712 428.096 43.6638C427.039 43.566 426.35 43.3245 424.941 43.1942C425.421 43.772 425.052 43.9158 426.621 44.2387C426.429 44.3987 425.564 44.1409 424.859 44.0758C425.884 44.5262 427.134 44.4639 427.998 44.7217C427.966 45.0743 426.732 44.9603 426.204 44.9114C426.347 45.2803 428.158 44.9143 427.949 45.2506C428.83 45.3321 427.277 44.8328 428.527 44.7705C429.392 45.0283 428.83 45.3321 429.871 45.6062C429.839 45.9588 428.269 45.6358 427.212 45.5381C429.101 46.2463 430.56 45.8476 432.449 46.5558C432.097 46.5232 429.806 46.3114 429.773 46.6641C429.454 46.2788 427.692 46.1159 426.282 45.9856C425.385 46.0804 425.352 46.4331 423.943 46.3027C424.615 46.7205 425.209 46.0641 426.586 46.5471C425.32 46.7857 426.713 47.0924 427.946 47.2064C427.209 47.4939 427.176 47.8465 428.217 48.1206C427.848 48.2643 426.423 48.3103 425.558 48.0525C425.398 47.8599 425.927 47.9088 426.455 47.9577C426.135 47.5724 424.501 47.9548 423.829 47.537C423.845 47.3606 424.214 47.2169 424.742 47.2658C423.189 46.7665 416.989 46.5489 418.144 45.5888C415.022 44.7666 410.487 45.7698 408.839 44.3726C407.765 44.4512 408.581 45.2379 408.741 45.4306C409.622 45.512 411.4 45.4986 411.015 45.8187C412.425 45.949 412.297 45.4038 413.707 45.5341C412.953 45.9979 415.613 46.066 416.846 46.18L416.797 46.7089C414.65 46.8661 413.818 46.2557 411.864 46.2528C414.121 46.8172 410.614 46.315 411.253 47.0855C412.647 47.3921 412.503 47.0232 413.913 47.1535C413.351 47.4573 414.954 47.4276 415.658 47.4928C415.466 47.6528 414.745 47.764 414.728 47.9403C416.667 48.1195 416.539 47.5742 417.1 47.2705C418.51 47.4008 419.006 47.8023 420.592 47.949C419.854 48.2364 418.99 47.9787 417.949 47.7046C416.715 47.5905 418.236 48.4424 416.49 48.1032C416.81 48.4884 419.31 48.3639 419.629 48.7491C420.174 48.6216 420.191 48.4453 421.071 48.5268C422.817 48.866 422.801 49.0424 424.21 49.1727C423.666 49.3001 423.809 49.6691 421.887 49.3135C421.695 49.4736 422.223 49.5224 422.752 49.5713C422.736 49.7476 421.678 49.6499 420.445 49.5358C421.519 49.4573 421.551 49.1046 420.158 48.798C419.773 49.118 418.363 48.9877 417.515 48.5536C416.458 48.4558 416.761 49.0174 415.704 48.9196C416.216 49.1448 418.171 49.1477 417.081 49.4026C418.667 49.5492 420.957 49.761 419.691 49.9996C419.339 49.967 419.355 49.7907 419.179 49.7744C418.474 49.7092 418.409 50.4145 419.13 50.3034C417.385 49.9641 415.238 50.1213 413.828 49.9909C414.02 49.8309 414.549 49.8798 415.606 49.9775C415.463 49.6086 414.774 49.3671 415.671 49.2722C414.967 49.2071 414.438 49.1582 414.246 49.3182C413.893 49.2856 413.893 49.2856 413.733 49.093C413.75 48.9167 413.573 48.9004 413.221 48.8678C413.254 48.5152 413.59 48.7241 414.118 48.773C414.151 48.4203 413.639 48.1952 411.877 48.0322C412.196 48.4175 413.077 48.4989 412.34 48.7864C412.004 48.5775 410.963 48.3034 410.066 48.3983C410.914 48.8324 413.221 48.8678 414.069 49.3019C412.98 49.5568 409.681 48.7183 409.632 49.2473C410.337 49.3124 410.673 49.5213 412.259 49.668C412.066 49.828 411.009 49.7302 411.329 50.1155C406.94 49.5318 405.322 49.7378 402.519 49.3008C402.134 49.6209 406.363 50.0119 405.145 49.7215C408.301 50.1911 409.694 50.4978 414.804 50.9703C414.82 50.7939 414.291 50.7451 414.5 50.4087C415.365 50.6665 416.23 50.9243 417.655 50.8783C417.623 51.2309 419.032 51.3613 418.84 51.5213C418.168 51.1035 421.179 51.2041 420.315 50.9464C420.491 50.9627 423.822 51.4485 423.806 51.6248C429.526 51.2646 435.931 53.1016 443.38 53.257C443.22 53.0644 442.339 52.9829 441.634 52.9177C443.269 52.5354 448.457 54.0821 449.243 53.2657C446.584 53.1976 444.519 52.4731 442.244 52.085C444.215 51.9116 443.191 51.4612 442.359 50.8508C441.461 50.9457 440.068 50.639 438.29 50.6524C437.056 50.5383 439.331 50.9265 438.593 51.2139C436.831 51.051 434.381 50.6466 434.508 51.1918C431.881 50.7711 430.103 50.7845 428.341 50.6216C428.132 50.9579 428.837 51.0231 430.071 51.1372C431.128 51.2349 429.943 50.5919 431.513 50.9149L431.431 51.7965C429.493 51.6172 428.948 51.7447 428.292 51.1506C427.907 51.4706 426.162 51.1314 424.752 51.001C425.49 50.7136 424.625 50.4558 425.346 50.3446C426.932 50.4913 425.649 50.9062 427.059 51.0365C428.726 50.3016 426.468 49.7371 422.191 49.8751C423.104 49.6039 423.489 49.2838 424.563 49.2053C425.251 49.4468 425.604 49.4793 426.292 49.7208C426.837 49.5934 427.206 49.4497 428.087 49.5311C428.296 49.1948 425.764 49.672 426.357 49.0156C427.415 49.1133 428.472 49.2111 428.984 49.4363C428.472 49.2111 428.697 48.6984 428.185 48.4732C429.418 48.5873 429.561 48.9562 429.898 49.1651C432.749 49.0731 433.262 49.2983 436.081 49.559C437.203 48.9515 439.317 49.147 441.96 49.3914C442.153 49.2314 441.624 49.1825 441.641 49.0062C440.039 49.0359 440.039 49.0358 437.588 48.6314C436.515 48.71 436.867 48.7426 437.011 49.1115C436.13 49.0301 435.409 49.1412 434.351 49.0434C434.224 48.4982 433.183 48.2241 434.466 47.8092C433.97 47.4077 432.687 47.8226 432.191 47.4211C432.912 47.31 434.482 47.6329 433.65 47.0225C434.355 47.0877 435.059 47.1528 435.94 47.2343C434.563 46.7513 437.03 46.9794 435.989 46.7053C437.767 46.6919 439.337 47.0149 440.923 47.1615C440.714 47.4979 443.181 47.726 442.939 48.4149C444.173 48.529 445.566 48.8356 445.598 48.483C446.656 48.5808 445.742 48.8519 445.902 49.0445C444.669 48.9305 443.083 48.7839 441.849 48.6698C442.858 49.2965 442.153 49.2314 444.939 49.8447C443.177 49.6817 442.633 49.8092 439.654 49.3559C439.125 49.307 438.756 49.4508 438.74 49.6271C440.854 49.8226 448.046 50.8432 452.147 50.689C453.155 51.3157 452.098 51.2179 451.521 51.698C451.136 52.018 453.635 51.8935 453.25 52.2136C454.676 52.1676 454.18 51.7661 454.758 51.286C455.815 51.3837 456.519 51.4489 457.048 51.4978C456.216 50.8874 455.319 50.9822 457.642 50.8414C456.089 50.3421 452.548 50.1926 451.795 50.6564C449.41 49.5467 445.05 50.5662 444.812 49.2994C449.025 49.8668 449.315 48.6488 450.773 48.2502C450.79 48.0739 448.852 47.8947 448.147 47.8295C448.356 47.4932 449.413 47.5909 449.622 47.2546L453.129 47.7567C453.256 48.302 452.248 47.6753 451.367 47.5938C451.511 47.9627 454.49 48.416 455.387 48.3212C452.986 47.3878 448.421 46.7879 446.098 46.9287C446.786 47.1702 446.577 47.5066 445.184 47.1999C445.553 47.0562 446.274 46.945 444.864 46.8147C443.631 46.7006 445.008 47.1836 444.815 47.3436C443.246 47.0207 442.381 46.7629 440.427 46.76C443.455 46.6843 439.467 45.6044 437.32 45.7615C437.304 45.9378 438.345 46.2119 439.578 46.3259C438.648 46.7734 436.423 45.8563 433.764 45.7883C436.087 45.6474 432.948 45.0015 432.067 44.9201C432.468 44.4237 431.604 44.1659 430.915 43.9244C431.3 43.6044 432.452 44.6 433.19 44.3126C434.23 44.5866 435.255 45.037 435.399 45.406C438.201 45.8429 439.213 44.5139 441.774 45.6398C443.008 45.7539 443.2 45.5939 443.216 45.4175C442.864 45.385 441.663 44.9183 440.942 45.0294C440.799 44.6605 442.609 44.2945 445.044 44.8752C444.482 45.179 443.282 44.7123 441.856 44.7583C443.745 45.4664 445.716 45.293 448.519 45.73C449.383 45.9878 445.171 45.4204 445.314 45.7894C445.843 45.8382 447.06 46.1286 447.908 46.5627C448.822 46.2915 450.936 46.487 450.633 45.9255C453.804 46.2188 455.374 46.5417 457.841 46.7698C456.976 46.512 456.832 46.1431 457.041 45.8067C458.963 46.1623 460.213 46.1 461.11 46.0052C461.319 45.6688 458.996 45.8097 459.733 45.5222C460.966 45.6362 462.36 45.9429 462.905 45.8154C462.585 45.4302 462.024 45.734 461.159 45.4762C460.294 45.2184 463.642 45.528 463.786 45.8969C463.466 45.5117 466.973 46.0139 465.629 45.1782C469.137 45.6804 464.507 45.7858 468.19 46.3042C465.515 46.4125 463.688 46.9548 460.373 46.2926L460.356 46.4689C462.102 46.8082 464.216 47.0037 465.593 47.4867C465.401 47.6467 465.048 47.6141 464.167 47.5326C464.663 47.9342 465.897 48.0482 464.983 48.3194C465.688 48.3845 466.233 48.2571 466.393 48.4497C467.274 48.5312 466.778 48.1297 467.306 48.1785C467.626 48.5638 467.434 48.7238 469.355 49.0793C469.917 48.7756 469.868 49.3045 471.998 49.3237C469.388 48.7267 474.145 49.1666 472.08 48.4421C472.031 48.9711 470.109 48.6155 468.54 48.2926C468.732 48.1326 469.261 48.1814 470.318 48.2792C470.334 48.1029 468.396 47.9237 467.708 47.6822C468.605 47.5873 468.318 46.8495 467.805 46.6243C469.071 46.3857 469.535 47.1398 471.842 47.1753C472.034 47.0153 470.481 46.516 472.403 46.8716C472.099 46.31 470.657 46.5323 469.264 46.2257C468.768 45.8241 470.674 46.356 470.178 45.9545C471.714 46.6301 476.664 46.9099 477.128 47.6641C476.455 47.2463 476.07 47.5663 474.501 47.2434L474.517 47.0671C474.165 47.0345 473.796 47.1782 473.604 47.3382C474.804 47.8049 476.599 47.6152 478.505 48.147C478.296 48.4834 476.39 47.9515 475.317 48.0301C476.181 48.2879 477.398 48.5782 475.284 48.3827C476.501 48.6731 480.361 49.2079 480.234 48.6626C481.98 49.0018 482.348 48.8581 483.741 49.1648C483.356 49.4848 476.854 48.7057 479.976 49.5279C478.23 49.1887 476.42 49.5547 475.059 48.8954C473.633 48.9414 474.305 49.3592 473.248 49.2614C474.433 49.9044 478.694 49.9428 480.423 50.4584C479.526 50.5532 478.133 50.2466 478.965 50.857C477.203 50.6941 476.867 50.4852 476.322 50.6126C474.769 50.1133 477.395 50.534 477.235 50.3414C475.297 50.1622 474.945 50.1296 473.711 50.0156C474.015 50.5771 473.839 50.5608 474.88 50.8349C474.687 50.9949 473.822 50.7371 473.118 50.672C474.671 51.1712 477.154 51.223 477.457 51.7845C475.023 51.2038 470.266 50.7639 468.52 50.4247C467.959 50.7284 470.602 50.9728 468.488 50.7773C468.648 50.9699 469.529 51.0514 470.233 51.1166C469.656 51.5966 467.541 51.4011 466.964 51.8812C465.075 51.173 465.731 51.7672 464.673 51.6694C464.514 51.4768 464.722 51.1405 466.132 51.2708C464.771 50.6115 462.223 51.265 462.559 51.4739C461.854 51.4087 458.81 51.6607 459.051 50.9717C457.449 51.0014 457.896 51.9319 456.134 51.769C456.63 52.1705 457.048 51.4978 458.441 51.8044C458.601 51.9971 459.29 52.2385 460.154 52.4963C459.786 52.6401 459.097 52.3986 457.511 52.2519C456.95 52.5557 458.905 52.5586 458.344 52.8623C456.245 52.4905 454.66 52.3439 454.258 52.8403C451.808 52.4359 450.607 51.9692 447.243 51.8359C447.227 52.0123 447.755 52.0611 447.579 52.0448C449.292 52.7367 452.16 52.4684 453.697 53.144C455.107 53.2744 457.622 52.9735 457.717 53.8714L455.09 53.4507C455.042 53.9796 457.541 53.8551 458.582 54.1292C458.102 53.5513 457.926 53.535 457.782 53.1661C458.647 53.4239 458.438 53.7602 460.376 53.9394C460.729 53.972 461.819 53.7171 460.938 53.6357C461.482 53.5082 463.036 54.0075 462.651 54.3276C464.732 54.8757 465.806 54.7971 466.462 55.3913C463.626 55.3069 461.225 54.3735 460.631 55.0299C462.2 55.3529 463.643 55.1306 464.667 55.581C464.987 55.9662 463.258 55.4506 463.225 55.8033C463.545 56.1885 464.987 55.9662 465.003 55.7899C465.274 56.704 473.428 56.9245 476.326 58.2594C477.543 58.5498 477.223 58.1646 477.751 58.2134C478.424 58.6312 480.169 58.9705 480.394 58.4578C481.948 58.9571 483.357 59.0874 486.16 59.5244C486.16 59.5244 484.189 59.6978 482.62 59.3749C485.341 60.6935 490.516 60.4607 492.229 61.1526C490.467 60.9896 488 60.7615 484.685 60.0994C484.3 60.4194 485.357 60.5172 485.87 60.7423C484.284 60.5957 481.69 59.8224 481.448 60.5114C479.719 59.9958 481.497 59.9824 481.53 59.6298C478.838 59.9143 477.719 58.5661 474.883 58.4817C474.675 58.8181 476.822 58.6609 476.084 58.9484C474.306 58.9618 471.855 58.5574 471.102 59.0212C468.635 58.7931 469.229 58.1367 467.307 57.7811C466.746 58.0849 466.713 58.4375 464.103 57.8405C464.742 58.611 463.365 58.128 464.005 58.8984C464.165 59.091 465.255 58.8361 464.853 59.3325C466.423 59.6555 466.103 59.2702 467.496 59.5769C468.168 59.9947 468.857 60.2362 470.426 60.5591C466.181 60.3444 462.739 59.137 458.51 58.746C459.567 58.8437 461.346 58.8304 462.899 59.3296C463.956 59.4274 463.124 58.817 463.493 58.6732C463.157 58.4643 462.628 58.4154 462.292 58.2065C462.484 58.0465 463.525 58.3206 463.718 58.1606C464.087 58.0168 461.652 57.4361 463.767 57.6316C463.623 57.2627 461.685 57.0835 460.82 56.8257C458.305 57.1265 455.215 55.9517 452.01 56.0111C452.219 55.6747 450.81 55.5444 450.314 55.1429C450.699 54.8228 452.797 55.1947 453.534 54.9072C452.878 54.3131 450.715 54.6465 448.633 54.0984C448.617 54.2747 449.129 54.4999 448.937 54.6599C447.703 54.5459 448.473 53.9058 445.478 53.6288C446.679 54.0955 447.703 54.5459 446.261 54.7682C446.757 55.1697 449.416 55.2377 449.208 55.5741C448.327 55.4926 446.421 54.9608 446.052 55.1045C446.359 53.7103 440.721 53.1889 436.861 52.6542C436.508 52.6216 436.316 52.7816 435.963 52.749C435.386 53.2291 438.59 53.1697 438.013 53.6498C433.112 52.841 429.682 53.413 426.592 52.2382C425.007 52.0915 426.207 52.5582 425.999 52.8945C429.875 53.253 429.859 53.4293 433.559 53.7714C433.174 54.0915 431.604 53.7685 431.219 54.0886C431.555 54.2975 437.403 54.4825 436.44 55.2826C432.773 54.5879 430.322 54.1834 426.237 54.1614C427.085 54.5955 428.351 54.3569 429.376 54.8072C430.466 54.5524 430.642 54.5687 432.916 54.9568C432.724 55.1168 431.666 55.019 431.474 55.1791C433.043 55.502 432.74 54.9405 434.149 55.0708C433.941 55.4072 436.071 55.4264 435.846 55.939C436.903 56.0368 437.272 55.893 438.137 56.1508C439.018 56.2323 438.346 55.8145 438.714 55.6707C438.554 55.4781 437.465 55.733 436.969 55.3315C437.53 55.0277 438.411 55.1092 439.628 55.3996C439.468 55.207 439.116 55.1744 439.308 55.0144C438.091 54.724 438.058 55.0766 437.018 54.8025C437.05 54.4499 438.972 54.8054 440.205 54.9195C439.997 55.2558 441.23 55.3699 441.39 55.5625C441.181 55.8988 439.452 55.3833 439.067 55.7033C439.595 55.7522 441.132 56.4278 441.325 56.2678C442.542 56.5581 440.956 56.4115 441.276 56.7967C440.267 56.17 437.031 56.582 439.481 56.9864C439.465 57.1627 437.543 56.8072 436.838 56.742C437.031 56.582 438.088 56.6798 438.28 56.5197L436.871 56.3894C435.637 56.2754 437.543 56.8072 436.293 56.8695C435.093 56.4028 432.818 56.0147 431.089 55.4991C430.368 55.6103 429.614 56.0741 428.413 55.6074C426.988 55.6534 428.381 55.96 427.467 56.2312C426.939 56.1823 426.602 55.9734 426.619 55.7971C425.898 55.9082 426.041 56.2772 424.296 55.9379C424.615 56.3231 425.513 56.2283 426.922 56.3586C425.784 57.1425 431.999 57.1837 432.159 57.3763C433.376 57.6667 431.791 57.5201 432.11 57.9053C429.484 57.4846 426.841 57.2402 426.263 57.7203C423.845 56.9632 422.899 57.5871 419.568 57.1012C421.203 56.7189 414.491 56.2761 413.434 56.1783C413.163 55.2641 409.254 55.2583 407.316 55.0791C407.045 54.165 403.984 54.5933 402.079 54.0614C401.534 54.1888 402.239 54.254 401.165 54.3326C399.26 53.8007 395.367 53.6186 392.355 53.518C394.806 53.9224 396.6 53.7327 399.034 54.3134C398.826 54.6497 396.199 54.229 396.343 54.598C395.285 54.5002 395.478 54.3402 394.068 54.2098C394.085 54.0335 394.966 54.115 395.318 54.1476C390.032 53.6588 386.172 53.1241 380.677 52.9716C380.661 53.1479 382.263 53.1183 382.968 53.1834C384.714 53.5227 380.677 52.9716 381.702 53.422C380.677 52.9716 380.292 53.2917 378.178 53.0962C378.211 52.7435 380.661 53.1479 379.989 52.7301C381.222 52.8442 382.456 52.9582 383.177 52.8471C383.193 52.6708 381.591 52.7005 381.431 52.5078C381.464 52.1552 383.93 52.3833 384.619 52.6248C384.426 52.7848 383.722 52.7196 383.722 52.7196C384.57 53.1537 385.66 52.8989 387.774 53.0944C387.118 52.5002 385.004 52.3047 383.819 51.6617C382.234 51.5151 381.496 51.8026 379.382 51.6071C378.837 51.7345 378.612 52.2472 377.555 52.1494C377.235 51.7642 378.116 51.8457 377.956 51.653C376.932 51.2027 375.121 51.5687 373.551 51.2457C374.4 51.6798 375.489 51.425 377.604 51.6205C375.649 51.6176 375.281 51.7613 373.486 51.951C373.806 52.3362 374.383 51.8562 375.248 52.1139C375.744 52.5154 372.396 52.2059 374.847 52.6103C374.445 53.1067 373.261 52.4637 371.659 52.4934C371.851 52.3333 373.597 52.6726 373.982 52.3525C371.675 52.317 370.155 51.4651 369.065 51.72C367.848 51.4297 369.818 51.2562 370.011 51.0962C366.184 50.2088 362.963 50.4445 357.997 50.341C359.743 50.6802 358.862 50.5987 358.46 51.0951C356.698 50.9322 357.403 50.9974 355.834 50.6744C356.121 51.4123 351.957 50.316 349.618 50.6331C348.097 49.7812 346.127 49.9546 344.381 49.6154C344.348 49.968 345.389 50.2421 346.991 50.2124C346.975 50.3887 346.799 50.3725 346.623 50.3562C346.606 50.5325 346.783 50.5488 347.135 50.5814C346.766 50.7251 345.709 50.6273 343.947 50.4644C344.283 50.6733 345.164 50.7548 345.676 50.98C344.939 51.2674 343.21 50.7519 341.624 50.6053C343.402 50.5919 342.89 50.3667 342.042 49.9326C343.275 50.0466 342.795 49.4688 344.221 49.4228C343.869 49.3902 343.869 49.3902 343.709 49.1976C341.529 49.7074 339.591 49.5282 336.227 49.3949C336.42 49.2349 336.788 49.0912 337.493 49.1563C334.674 48.8957 326.536 48.4988 324.181 48.9923C323.123 48.8946 323.652 48.9434 323.668 48.7671L321.361 48.7316C321.521 48.9243 321.698 48.9405 322.226 48.9894C321.345 48.908 320.624 49.0191 318.317 48.9836C316.908 48.8533 319.567 48.9213 320.095 48.9702C319.247 48.5361 316.748 48.6607 315.178 48.3377C307.967 49.4492 299.35 48.4746 292.028 48.8645C291.819 49.2008 293.79 49.0274 293.405 49.3475C295.392 48.9977 296.449 49.0955 298.74 49.3073C298.724 49.4836 297.314 49.3533 297.458 49.7222C298.146 49.9637 299.765 49.7577 300.998 49.8717C300.052 50.4955 299.043 49.8688 297.089 49.8659C292.041 50.6439 285.891 49.8974 280.7 50.3065C282.142 50.0842 281.085 49.9865 279.29 50.1762C279.274 50.3525 279.819 50.2251 280.171 50.2576C277.303 50.5259 280.396 49.745 282.863 49.9731C283.232 49.8293 283.264 49.4767 283.825 49.1729C280.974 49.2649 275.688 48.7761 273.668 49.4785C272.963 49.4133 273.861 49.3185 273.701 49.1259C272.611 49.3808 271.009 49.4104 269.759 49.4727C270.431 49.8905 271.152 49.7794 272.37 50.0697C272.513 50.4387 270.223 50.2269 270.19 50.5795C271.055 50.8373 272.513 50.4387 274.099 50.5853C273.058 50.3112 273.587 50.3601 273.267 49.9749C274.484 50.2652 275.012 50.3141 276.438 50.2681C276.246 50.4282 275.701 50.5556 275.508 50.7156C271.583 50.8861 267.113 51.1841 262.852 51.1457C258.574 51.2837 254.297 51.4216 250.756 51.2721C250.035 51.3832 248.962 51.4618 248.593 51.6055C247.888 51.5403 248.433 51.4129 248.626 51.2529C243.692 50.7967 233.597 52.3528 227.766 51.9914C227.783 51.8151 228.664 51.8966 228.68 51.7203C224.931 51.9071 224.5 50.8003 220.718 51.3398C220.862 51.7087 221.935 51.6301 222.993 51.7279C222.575 52.4006 219.723 52.4925 217.736 52.8423C216.15 52.6956 217.801 52.137 216.777 51.6866C215.88 51.7815 215.847 52.1341 216.007 52.3267C214.966 52.0526 213.475 52.8039 212.434 52.5298C212.033 53.0262 210.095 52.847 208.972 53.4545C208.46 53.2293 207.21 53.2915 206.698 53.0663C205.977 53.1775 205.416 53.4813 204.535 53.3998L204.518 53.5761C205.269 55.0681 206.166 54.9733 206.887 54.8621ZM167.037 39.9743C167.037 39.9743 169.504 40.2024 170.097 39.546C167.582 39.8469 163.816 40.21 167.037 39.9743ZM452.937 47.9168C453.978 48.1908 456.252 48.579 456.461 48.2426C454.907 47.7433 454.026 47.6619 452.937 47.9168ZM351.683 51.3576C350.995 51.1161 349.217 51.1295 349.537 51.5147C350.258 51.4036 351.315 51.5013 351.683 51.3576ZM106.013 71.4971C104.94 71.5756 102.92 72.278 101.687 72.1639C100.949 72.4514 99.876 72.53 99.6672 72.8663C101.286 72.6603 104.891 72.1046 106.013 71.4971ZM152.088 61.3536C147.761 62.0205 142.378 62.5896 139.317 63.0179C138.981 62.809 140.456 62.2341 139.19 62.4727C138.981 62.809 137.346 63.1913 137.137 63.5277C134.99 63.6848 133.884 64.116 130.631 64.7043C130.423 65.0407 131.32 64.9458 131.127 65.1058C134.749 64.3738 138.371 63.6417 141.976 63.086C145.565 62.7066 148.995 62.1345 152.088 61.3536ZM129.878 65.1681C128.804 65.2467 124.621 66.2825 124.781 66.4751C127.506 65.8379 128.723 66.1283 129.878 65.1681ZM89.9244 74.455C89.9081 74.6313 91.3828 74.0564 92.1039 73.9452C92.3127 73.6089 89.2359 74.2135 89.9244 74.455ZM242.586 51.2279C240.808 51.2413 238.292 51.5421 235.936 52.0356C237.539 52.0059 238.403 52.2637 239.092 52.5052C236.977 52.3097 233.757 52.5454 233.261 52.1439C231.819 52.3662 231.643 52.3499 230.2 52.5722C229.975 53.0848 231.401 53.0389 231.561 53.2315C235.134 53.0284 237.457 52.8875 239.092 52.5052C238.674 53.1779 242.648 52.4784 244.41 52.6413C242.152 52.0769 243.082 51.6294 242.586 51.2279ZM291.353 50.4025C291.353 50.4025 291.337 50.5788 290.984 50.5462C289.751 50.4322 287.62 50.413 287.059 50.7167C287.588 50.7656 287.571 50.9419 287.555 51.1182C289.846 51.33 289.702 50.9611 291.464 51.124C290.792 50.7062 292.426 50.3239 291.353 50.4025ZM245.229 51.4723C245.774 51.3448 246.143 51.2011 246.159 51.0248C245.63 50.9759 244.557 51.0545 243.868 50.813C243.852 50.9893 244.012 51.1819 244.364 51.2145C244.012 51.1819 243.467 51.3094 243.467 51.3094C243.996 51.3582 245.581 51.5049 245.774 51.3448C245.389 51.6649 245.213 51.6486 245.229 51.4723ZM159.38 59.3605C156.832 60.014 155.39 60.2363 152.874 60.5372C154.46 60.6838 156.463 60.1577 158.979 59.8569C158.819 59.6643 159.364 59.5368 159.38 59.3605ZM422.563 57.3782C421.33 57.2641 419.584 56.9249 419.375 57.2612C420.433 57.359 422.867 57.9397 422.563 57.3782ZM393.396 53.792C393.556 53.9846 396.551 54.2616 397.465 53.9904C394.806 53.9224 393.478 52.9105 391.667 53.2765C392.195 53.3254 392.9 53.3905 393.06 53.5831C392.163 53.678 389.872 53.4662 391.602 53.9817C390.88 54.0929 388.782 53.7211 388.926 54.09C389.438 54.3152 391.745 54.3507 392.962 54.641C393.347 54.321 391.618 53.8054 393.396 53.792ZM281.63 49.859C280.925 49.7939 279.499 49.8398 278.987 49.6146C278.843 49.2457 280.605 49.4086 280.797 49.2486C278.859 49.0694 276.008 49.1614 272.771 49.5734C274.004 49.6874 272.37 50.0697 272.353 50.246C276.102 50.0592 278.393 50.271 281.63 49.859ZM314.872 49.732C314.519 49.6994 314.343 49.6831 314.359 49.5068C313.655 49.4416 312.757 49.5365 312.597 49.3438C312.278 48.9586 314.712 49.5394 314.392 49.1541C312.79 49.1838 313.544 48.72 312.663 48.6386C312.101 48.9423 310.163 48.7631 309.954 49.0995C311.028 49.0209 312.278 48.9586 312.245 49.3113C311.38 49.0535 310.819 49.3572 309.954 49.0995C309.746 49.4358 308.496 49.4981 308.111 49.8181C309.184 49.7396 310.242 49.8373 310.754 50.0625C310.946 49.9025 310.065 49.821 310.787 49.7099C312.212 49.6639 311.442 50.304 313.413 50.1306C312.917 49.7291 315.015 50.1009 314.872 49.732ZM298.515 49.8199C301.174 49.888 303.481 49.9235 305.083 49.8938C303.866 49.6034 299.781 49.5813 298.515 49.8199ZM307.279 49.2077C305.853 49.2537 303.739 49.0582 303.706 49.4108C306.029 49.27 305.452 49.7501 306.861 49.8804C306.718 49.5115 306.91 49.3515 307.279 49.2077ZM300.711 49.1339C300.326 49.4539 299.461 49.1961 298.58 49.1147C298.74 49.3073 298.355 49.6273 299.076 49.5162C299.092 49.3399 300.133 49.6139 301.207 49.5354C301.047 49.3428 301.239 49.1827 300.711 49.1339ZM331.228 49.644C328.745 49.5922 325.943 49.1552 325.013 49.6027C326.807 49.413 330.635 50.3004 331.228 49.644ZM366.823 50.9793C366.471 50.9467 366.295 50.9304 366.311 50.7541C366.663 50.7867 366.839 50.8029 366.68 50.6103C364.053 50.1896 364.692 50.9601 362.578 50.7646C360.64 50.5854 360.865 50.0727 359.087 50.0861C359.566 50.6639 361.857 50.8757 364.324 51.1038C364.373 50.5749 366.278 51.1067 366.823 50.9793ZM425.673 56.4209C426.746 56.3423 421.3 55.6609 420.755 55.7884C421.972 56.0788 424.599 56.4995 425.673 56.4209ZM284.259 48.3239C282.497 48.161 282.497 48.161 280.174 48.3018C280.125 48.8308 284.194 49.0292 284.259 48.3239ZM277.515 48.2338C277.257 49.0991 274.856 48.1657 273.91 48.7895C276.729 49.0502 277.482 48.5864 279.228 48.9257C280.318 48.6708 278.396 48.3153 277.515 48.2338ZM404.947 53.7931C404.066 53.7117 401.968 53.3398 402.287 53.7251L404.93 53.9695L404.947 53.7931ZM398.46 52.8377C399.149 53.0792 400.558 53.2095 401.599 53.4836C401.808 53.1472 399.677 53.128 399.886 52.7917C396.858 52.8674 393.031 51.98 389.699 51.4941C389.65 52.0231 391.621 51.8496 390.515 52.2808C391.556 52.5549 392.31 52.0911 392.805 52.4926C392.789 52.669 392.084 52.6038 391.908 52.5875C392.949 52.8616 392.789 52.669 394.182 52.9756C394.199 52.7993 394.039 52.6067 394.76 52.4955C395.112 52.5281 395.641 52.577 395.625 52.7533C395.608 52.9296 394.904 52.8645 394.727 52.8482C396.121 53.1548 397.546 53.1089 398.46 52.8377ZM424.074 54.4948C423.369 54.4296 423.705 54.6385 424.041 54.8474C423.16 54.766 422.968 54.926 422.279 54.6845C421.591 54.443 420.886 54.3779 420.918 54.0252C423.353 54.6059 422.922 53.4992 424.524 53.4695C422.762 53.3066 421.848 53.5777 420.07 53.5911C421.078 54.2178 418.948 54.1986 418.243 54.1335C418.771 54.1823 419.108 54.3912 419.091 54.5676C421.206 54.7631 422.615 54.8934 424.008 55.2001C423.607 55.6964 421.558 54.7957 421.333 55.3083C421.862 55.3572 425.193 55.8431 426.266 55.7645C422.566 55.4224 425.979 55.0266 424.074 54.4948ZM415.182 54.5618C414.494 54.3203 412.892 54.35 412.859 54.7026C414.269 54.8329 414.814 54.7055 415.182 54.5618ZM374.866 50.4782C375.555 50.7197 375.281 51.7613 377.444 51.4279C377.124 51.0426 376.227 51.1375 376.98 50.6737C375.763 50.3833 375.411 50.3508 374.866 50.4782ZM367.384 50.6755C369.691 50.711 369.355 50.5021 371.453 50.8739C371.293 50.6813 371.502 50.345 371.854 50.3775C369.355 50.5021 368.699 49.908 366.024 50.0162C366.503 50.594 367.769 50.3555 368.667 50.2606C368.65 50.4369 369.003 50.4695 369.179 50.4858C368.105 50.5644 367.401 50.4992 367.384 50.6755ZM385.102 51.2468C384.893 51.5832 386.782 52.2913 387.696 52.0202C386.479 51.7298 387.216 51.4423 385.102 51.2468ZM372.191 50.5865C373.776 50.7331 374.481 50.7982 374.85 50.6545C374.514 50.4456 371.727 49.8323 372.191 50.5865ZM431.265 55.5154C428.798 55.2873 427.758 55.0133 425.467 54.8015C425.049 55.4741 430.352 55.7866 431.265 55.5154ZM416.993 54.1957C416.866 53.6505 416.497 53.7942 417.587 53.5393C416.354 53.4253 416.001 53.3927 416.21 53.0564C413.92 52.8446 415.44 53.6965 413.854 53.5498C412.445 53.4195 411.756 53.178 410.699 53.0803C411.867 53.8996 413.805 54.0788 416.993 54.1957ZM419.734 53.3822C417.636 53.0104 417.587 53.5393 419.157 53.8623C419.173 53.686 419.878 53.7511 419.734 53.3822ZM471.917 59.8079L470.172 59.4686C469.963 59.805 470.299 60.0139 471.356 60.1117C471.532 60.1279 472.077 60.0005 471.917 59.8079ZM417.124 52.7852C417.107 52.9615 416.931 52.9452 416.562 53.089C418.148 53.2356 417.812 53.0267 419.205 53.3333C419.59 53.0133 418.005 52.8667 417.124 52.7852ZM373.202 49.2574C374.788 49.404 376.021 49.518 377.271 49.4558C377.832 49.152 376.086 48.8128 377.32 48.9268C378.537 49.2172 377.623 49.4884 378.135 49.7136C380.266 49.7327 380.442 49.749 382.204 49.912C381.708 49.5104 382.413 49.5756 382.286 49.0304C377.754 48.0778 376.103 48.6365 373.202 49.2574ZM372.722 48.6795C371.858 48.4218 371.841 48.5981 370.944 48.6929C370.784 48.5003 370.432 48.4677 370.079 48.4352L370.03 48.9641C371.616 49.1107 372.337 48.9996 372.722 48.6795ZM369.743 48.2263C368.862 48.1448 368.317 48.2722 367.949 48.416C368.83 48.4974 368.076 48.9612 369.326 48.8989C369.694 48.7552 369.727 48.4026 369.743 48.2263ZM262.333 45.2295C260.731 45.2592 259.288 45.4815 258.375 45.7527C258.727 45.7852 258.903 45.8015 258.887 45.9778C261.227 45.6607 261.001 46.1734 262.042 46.4474C261.739 45.8859 261.563 45.8696 262.333 45.2295ZM472.544 58.7989C470.446 58.427 470.573 58.9723 471.069 59.3738C470.541 59.3249 469.852 59.0834 469.66 59.2435C470.364 59.3086 472.27 59.8405 472.302 59.4878C471.069 59.3738 471.487 58.7011 472.544 58.7989ZM401.364 50.261C398.561 49.824 397.647 50.0952 396.062 49.9485C395.484 50.4286 397.07 50.5752 398.303 50.6893C398.528 50.1766 400.114 50.3233 401.364 50.261ZM469.917 58.3782C470.27 58.4107 470.798 58.4596 470.798 58.4596C469.581 58.1693 468.524 58.0715 468.155 58.2152C470.077 58.5708 467.225 58.6627 469.323 59.0346C469.356 58.6819 471.118 58.8448 469.917 58.3782ZM388.502 49.0717C386.051 48.6672 386.498 49.5977 388.084 49.7443C388.453 49.6006 388.485 49.248 388.502 49.0717ZM393.771 49.7367L394.652 49.8182C394.685 49.4656 393.98 49.4004 393.291 49.1589C393.435 49.5278 393.083 49.4953 392.362 49.6064C392.218 49.2375 390.296 48.8819 390.071 49.3946C391.673 49.3649 393.017 50.2005 394.107 49.9456C393.931 49.9294 393.579 49.8968 393.771 49.7367ZM243.251 45.9547C242.498 46.4185 244.788 46.6303 245.526 46.3428C243.731 46.5325 245.222 45.7813 243.251 45.9547ZM268.196 45.2382C267.827 45.3819 264.512 44.7197 263.726 45.5362C265.152 45.4902 265.857 45.5553 266.914 45.6531C266.754 45.4605 268.18 45.4145 268.196 45.2382ZM249.483 45.8196C247.689 46.0093 247.689 46.0093 246.279 45.879C245.862 46.5517 249.258 46.3323 249.483 45.8196ZM477.797 59.6403C476.916 59.5588 475.187 59.0432 475.507 59.4285L477.781 59.8166L477.797 59.6403ZM345.686 45.1126C344.084 45.1423 342.593 45.8936 343.826 46.0076C344.211 45.6876 345.477 45.449 345.686 45.1126ZM406.203 49.8193C405.145 49.7215 404.777 49.8653 404.408 50.009C404.744 50.2179 407.195 50.6223 407.58 50.3023C407.227 50.2697 405.994 50.1556 406.203 49.8193ZM351.5 45.6503C350.251 45.7125 349.722 45.6637 348.313 45.5333C348.985 45.9511 348.632 45.9185 349.128 46.3201C349.513 46 350.169 46.5941 351.435 46.3555C350.939 45.954 351.468 46.0029 351.5 45.6503ZM259.243 44.0547C258.858 44.3747 257.784 44.4533 257.911 44.9985C259.337 44.9525 260.058 44.8414 261.452 45.148C261.275 45.1317 260.907 45.2755 261.435 45.3244C261.66 44.8117 259.386 44.4236 259.243 44.0547ZM386.596 48.5398L388.358 48.7027C388.759 48.2064 386.293 47.9783 386.596 48.5398ZM457.169 55.9546C457.234 55.2493 453.854 55.2924 454.879 55.7428C454.911 55.3902 456.464 55.8894 457.169 55.9546ZM254.74 44.7052C253.49 44.7675 252.577 45.0387 253.441 45.2965C254.707 45.0579 254.9 44.8979 254.74 44.7052ZM398.306 48.7335C396.528 48.7469 393.902 48.3262 394.75 48.7603C395.471 48.6491 397.745 49.0373 398.306 48.7335ZM388.103 47.6122C389.882 47.5988 387.174 48.0597 388.935 48.2226C390.025 47.9678 391.467 47.7455 393.086 47.5395C393.069 47.7158 392.348 47.8269 393.053 47.8921C395.008 47.895 395.249 47.206 396.691 46.9837C395.458 46.8697 394.561 46.9645 394.016 47.092C394.032 46.9157 393.68 46.8831 393.503 46.8668C394.753 46.8045 394.417 46.5956 393.921 46.1941C394.802 46.2756 395.314 46.5008 396.179 46.7585C396.212 46.4059 397.974 46.5688 396.756 46.2785C397.83 46.1999 398.326 46.6014 399.063 46.3139C398.727 46.105 397.478 46.1673 397.686 45.831C398.199 46.0562 398.903 46.1213 399.961 46.2191C399.977 46.0428 400.153 46.0591 400.522 45.9153C399.817 45.8502 398.215 45.8798 398.248 45.5272C399.177 45.0797 402.189 45.1804 400.988 44.7137C402.029 44.9878 402.701 45.4056 404.992 45.6174C405.217 45.1047 406.979 45.2676 408.229 45.2054C406.131 44.8335 403.168 44.2039 401.021 44.3611C402.656 43.9787 398.763 43.7966 397.898 43.5388C399.148 43.4766 400.221 43.398 401.471 43.3357C403.024 43.835 407.06 44.386 408.118 44.4838C407.589 44.4349 407.429 44.2423 407.253 44.226C409.416 43.8926 413.387 45.1489 414.846 44.7503C414.51 44.5414 412.731 44.5548 412.571 44.3621C413.276 44.4273 414.157 44.5088 414.35 44.3488C413.821 44.2999 413.837 44.1236 413.854 43.9472C411.899 43.9443 411.067 43.3339 410.411 42.7398C408.793 42.9458 409.018 42.4332 406.359 42.3651C405.654 42.2999 406.31 42.894 405.429 42.8126C404.9 42.7637 404.884 42.94 404.532 42.9074C404.564 42.5548 404.581 42.3785 404.068 42.1533L396.492 41.4527C396.972 42.0305 400.159 42.1475 401.376 42.4379C399.967 42.3075 400.639 42.7253 398.701 42.5461C398.14 42.8499 400.11 42.6764 399.533 43.1565C394.231 42.8441 393.718 42.6189 391.141 41.6692C392.022 41.7507 392.919 41.6558 392.599 41.2706C389.764 41.1862 388.002 41.0233 386.383 41.2293C387.088 41.2945 388.322 41.4085 388.658 41.6174C387.248 41.4871 389.682 42.0678 388.097 41.9212C387.793 41.3597 384.732 41.788 385.773 42.062C387.023 41.9998 390.883 42.5345 391.555 42.9523C390.498 42.8546 386.831 42.1598 387.15 42.545C387.646 42.9465 392.116 42.6486 392.051 43.3538C393.686 42.9715 394.838 43.9671 395.608 43.327C395.399 43.6634 396.472 43.5848 396.087 43.9049C395.014 43.9834 392.883 43.9642 390.785 43.5924C390.4 43.9125 392.002 43.8828 391.617 44.2028C390.913 44.1377 390.032 44.0562 389.872 43.8636C390.064 43.7036 390.593 43.7524 390.449 43.3835C385.163 42.8947 380.037 42.5986 382.987 41.4487C381.049 41.2695 379.799 41.3318 377.685 41.1363C377.636 41.6652 374.833 41.2282 373.231 41.2579C373.247 41.0816 373.952 41.1468 373.247 41.0816C373.247 41.0816 373.231 41.2579 372.702 41.209C372.35 41.1765 372.174 41.1602 372.334 41.3528C374.239 41.8846 376.337 42.2564 378.996 42.3245C379.427 43.4313 382.791 43.5645 384.762 43.3911C385.418 43.9852 383.959 44.3838 382.357 44.4135C383.591 44.5276 381.108 44.4758 381.78 44.8936C384.087 44.9291 382.485 44.9588 382.276 45.2951C383.14 45.5529 383.333 45.3929 384.566 45.5069C384.358 45.8433 386.263 46.3751 385.013 46.4374C384.661 46.4048 384.485 46.3885 384.132 46.3559C384.341 46.0196 385.062 45.9084 384.198 45.6507C382.579 45.8567 382.436 45.4877 380.674 45.3248C381.346 45.7426 380.305 45.4685 380.272 45.8212C381.858 45.9678 383.284 45.9218 383.796 46.147C382.547 46.2093 382.85 46.7708 381.424 46.8168C381.424 46.8168 381.441 46.6405 380.912 46.5916C380.928 46.4153 381.985 46.5131 381.826 46.3204C379.711 46.1249 379.838 46.6702 378.589 46.7325C379.294 46.7976 380.175 46.8791 379.982 47.0391C381.552 47.3621 381.248 46.8005 382.658 46.9309L382.625 47.2835L384.916 47.4953C386.038 46.8878 388.681 47.1322 389.947 46.8936C389.898 47.4225 386.71 47.3056 388.103 47.6122ZM364.395 46.487C365.276 46.5684 365.309 46.2158 366.19 46.2973C366.222 45.9446 365.341 45.8632 366.239 45.7683C364.124 45.5728 365.293 46.3921 363.002 46.1803C363.035 45.8277 363.051 45.6514 363.42 45.5076C362.137 45.9225 361.498 45.1521 360.216 45.567C362.858 45.8114 360.871 46.1611 364.395 46.487ZM356.966 44.1995C356.261 44.1344 355.556 44.0692 354.659 44.1641C353.905 44.6278 356.597 44.3433 356.388 44.6796C356.356 45.0323 354.594 44.8693 353.184 44.739C353.647 45.4931 351.533 45.2976 351.82 46.0355C352.332 46.2607 353.935 46.231 354.479 46.1036C353.054 46.1495 353.807 45.6857 353.647 45.4931C354.352 45.5583 354.336 45.7346 355.041 45.7998C354.721 45.4146 355.954 45.5286 356.307 45.5612C355.331 44.5819 357.269 44.7611 356.966 44.1995ZM260.603 44.7139C262.045 44.4916 261.501 44.6191 262.382 44.7005C264.369 44.3508 260.3 44.1524 260.603 44.7139ZM345.415 44.1984C345.575 44.3911 343.428 44.5482 344.997 44.8711C345.014 44.6948 346.632 44.4888 345.415 44.1984ZM271.211 43.3831C271.883 43.8009 274.063 43.2911 274.8 43.0036C272.845 43.0007 270.875 43.1742 269.961 43.4453C269.977 43.269 269.801 43.2527 269.465 43.0438C272.845 43.0007 272.366 42.4229 272.591 41.9102C272.062 41.8614 271.005 41.7636 270.284 41.8748C270.251 42.2274 270.956 42.2926 271.116 42.4852C270.395 42.5963 269.69 42.5312 269.354 42.3223C268.985 42.466 268.953 42.8186 267.543 42.6883C266.982 42.992 269.834 42.9001 268.392 43.1224C267.863 43.0735 266.806 42.9758 266.101 42.9106C265.667 43.7596 268.76 42.9786 269.256 43.3802C269.416 43.5728 267.302 43.3773 267.974 43.7951C268.326 43.8277 268.871 43.7002 269.4 43.7491C269.592 43.5891 270.842 43.5268 271.211 43.3831ZM264.049 43.9656C264.081 43.613 262.287 43.8027 263.569 43.3878C261.598 43.5612 262.992 43.8678 260.861 43.8486C261.213 43.8812 261.39 43.8975 261.373 44.0738C262.783 44.2042 262.975 44.0442 264.049 43.9656ZM400.166 47.8385C400.904 47.5511 400.391 47.3259 401.961 47.6488C401.465 47.2473 403.051 47.3939 402.907 47.025C401.817 47.2799 397.781 46.7288 397.011 47.3689C397.892 47.4504 398.421 47.4993 398.757 47.7082C398.036 47.8193 398.74 47.8845 398.708 48.2371C397.651 48.1394 393.95 47.7972 395.52 48.1202C396.786 47.8816 399.028 48.6224 401.334 48.6578C401.928 48.0014 400.662 48.24 400.166 47.8385ZM349.885 43.9005C349.131 44.3643 350.189 44.462 347.546 44.2176C346.648 44.3125 347.513 44.5703 347.497 44.7466C349.451 44.7495 349.468 44.5732 351.037 44.8961C350.893 44.5272 351.119 44.0145 349.885 43.9005ZM397.843 47.9794L397.859 47.803C396.626 47.689 396.995 47.5453 396.097 47.6401L396.081 47.8164C396.946 48.0742 396.786 47.8816 397.843 47.9794ZM360.986 44.9269C361.211 44.4142 358.551 44.3462 359.207 44.9403C360.105 44.8454 360.105 44.8454 360.986 44.9269ZM281.048 42.6923C281.401 42.7249 281.577 42.7412 281.561 42.9175L283.339 42.9041C283.548 42.5677 281.433 42.3722 281.048 42.6923ZM280.696 42.6597C280.167 42.6108 278.565 42.6405 278.02 42.7679C278.901 42.8494 280.295 43.1561 280.696 42.6597ZM294.426 42.151C293.242 41.508 289.972 42.2727 291.702 42.7882C292.279 42.3082 293.529 42.2459 294.426 42.151ZM406.927 47.7524C408.689 47.9153 410.643 47.9182 411.828 48.5612C411.381 47.6307 407.681 47.2886 406.927 47.7524ZM16.0637 89.1421C15.7276 88.9332 15.7439 88.7569 14.6378 89.1881C15.1501 89.4133 13.274 90.4846 14.5563 90.0697C14.9413 89.7496 15.3426 89.2533 16.0637 89.1421ZM414.839 48.6618C415.241 48.1655 412.245 47.8885 412.549 48.45C413.782 48.5641 414.118 48.773 414.839 48.6618ZM274.385 41.7205C275.218 42.3309 277.909 42.0464 280.585 41.9381C280.105 41.3603 277.766 41.6775 276.5 41.916C275.299 41.4494 276.676 41.9323 274.385 41.7205ZM260.384 41.315C258.397 41.6648 258.59 41.5047 256.828 41.3418C257.836 41.9685 256.074 41.8056 254.648 41.8516C254.616 42.2042 254.952 42.4131 255.64 42.6546C256.202 42.3509 256.746 42.2234 257.484 41.9359C258.316 42.5464 261.249 41.5728 261.889 42.3433C262.659 41.7031 259.791 41.9714 260.384 41.315ZM372.715 42.9885C374.973 43.5529 372.49 43.5012 374.027 44.1767C372.937 44.4316 373.162 43.919 371.737 43.9649C372.585 44.399 369.75 44.3147 371.319 44.6376C371.864 44.5102 373.642 44.4968 374.507 44.7546C374.748 44.0656 377.567 44.3263 377.264 43.7647C377.792 43.8136 377.776 43.9899 377.76 44.1663L380.05 44.378C379.202 43.944 379.411 43.6076 379.251 43.415C377.825 43.461 377.313 43.2358 375.198 43.0403C374.637 43.344 376.608 43.1706 376.031 43.6507C374.461 43.3277 373.084 42.8448 372.715 42.9885ZM253.718 42.2991C253.399 41.9138 254.296 41.819 254.152 41.4501C253.431 41.5612 252.727 41.4961 252.358 41.6398C252.87 41.865 252.645 42.3776 253.718 42.2991ZM274.418 41.3679C274.947 41.4168 275.123 41.4331 275.828 41.4982C275.524 40.9367 274.258 41.1753 272.304 41.1724C271.534 41.8125 273.841 41.848 274.418 41.3679ZM268.956 40.8628C267.178 40.8762 267.817 41.6467 267.625 41.8067C268.186 41.5029 268.747 41.1992 268.956 40.8628ZM251.108 41.7021C249.01 41.3302 246.798 42.1926 244.876 41.8371C244.843 42.1897 246.269 42.1437 247.134 42.4015C247.568 41.5525 249.49 41.9081 251.108 41.7021ZM18.0539 86.8366C16.4029 87.3952 15.473 87.8427 15.2479 88.3554C16.5465 87.7642 17.8288 87.3493 18.0539 86.8366ZM310.962 40.1236C308.88 39.5754 307.406 40.1504 305.676 39.6348C306.221 39.5074 306.574 39.5399 306.59 39.3636C301.816 39.1001 303.673 40.1609 303.448 40.6735C307.357 40.6793 308.287 40.2318 310.962 40.1236ZM285.042 39.8607L284.993 40.3897C285.874 40.4711 286.243 40.3274 287.652 40.4577C287.509 40.0888 286.82 39.8473 285.042 39.8607ZM272.017 40.4345C273.106 40.1797 270.672 39.5989 273.876 39.5396C272.963 39.8107 274.18 40.1011 273.442 40.3886C274.868 40.3426 274.852 40.5189 275.733 40.6004C276.823 40.3455 274.868 40.3426 276.134 40.104C277.384 40.0417 278.392 40.6684 279.306 40.3973C278.81 39.9957 281.821 40.0964 282.911 39.8415C281.821 40.0964 283.6 40.083 284.673 40.0044C283.296 39.5215 285.828 39.0443 283.378 38.6399C282.833 38.7673 283.329 39.1688 282.448 39.0874C282.464 38.9111 281.214 38.9733 281.599 38.6533C282.161 38.3495 282.529 38.2058 283.763 38.3198C283.443 37.9346 282.562 37.8531 281.136 37.8991C280.19 38.5229 277.563 38.1022 275.769 38.2919C277.514 38.6312 274.999 38.932 276.199 39.3987C277.097 39.3039 276.777 38.9186 277.514 38.6312C277.498 38.8075 278.027 38.8564 278.01 39.0327C276.953 38.9349 276.728 39.4476 277.625 39.3527C277.834 39.0164 279.612 39.003 279.932 39.3882C280.477 39.2608 280.35 38.7155 281.247 38.6207C281.567 39.0059 280.493 39.0845 280.797 39.646C278.617 40.1558 276.343 39.7677 274.565 39.781C274.614 39.2521 272.467 39.4092 271.795 38.9914C271.217 39.4715 270.016 39.0048 268.75 39.2434C269.39 40.0138 269.357 40.3665 272.017 40.4345ZM265.833 40.0406C266.329 40.4421 268.108 40.4287 269.357 40.3665C269.246 39.6449 267.595 40.2035 265.833 40.0406ZM460.588 51.6473C459.339 51.7096 457.4 51.5304 456.2 51.0637L456.151 51.5926C457.224 51.5141 461.597 52.274 460.588 51.6473ZM261.38 40.1623C259.794 40.0156 256.061 40.0261 257.438 40.5091C258.528 40.2542 259.04 40.4794 260.642 40.4497C260.466 40.4334 261.187 40.3223 261.38 40.1623ZM298.547 39.8647C299.444 39.7698 299.604 39.9625 300.309 40.0276C300.886 39.5475 298.243 39.3032 298.547 39.8647ZM422.275 47.0377C423.333 47.1354 425.431 47.5073 425.799 47.3635C424.582 47.0732 422.517 46.3487 422.275 47.0377ZM378.611 42.6446C377.345 42.8832 374.591 41.9172 374.174 42.5899C374.383 42.2535 378.37 43.3335 378.611 42.6446ZM315.161 38.9114C312.662 39.036 311.011 39.5946 309.827 38.9516C309.442 39.2717 308.848 39.9281 310.61 40.091C310.339 39.1768 314.039 39.519 315.161 38.9114ZM245.633 39.4175C244.543 39.6724 245.936 39.9791 245.728 40.3154C246.801 40.2368 247.506 40.302 248.034 40.3509C247.715 39.9657 247.379 39.7568 245.633 39.4175ZM458.94 50.2502C459.42 50.828 461.694 51.2161 459.211 51.1643C460.428 51.4547 461.149 51.3436 460.99 51.151C459.949 50.8769 460.35 50.3805 458.94 50.2502ZM455.769 49.9569C454.519 50.0192 452.806 49.3273 452.229 49.8074C453.991 49.9703 454.695 50.0355 454.47 50.5481C454.999 50.597 455.351 50.6296 455.88 50.6785C456.232 50.7111 456.457 50.1984 455.769 49.9569ZM228.105 40.642C228.105 40.642 228.121 40.4656 228.474 40.4982C230.059 40.6449 231.838 40.6315 232.51 41.0493C235.042 40.5721 234.161 40.4906 234.21 39.9617C232.063 40.1188 231.935 39.5736 230.157 39.587C229.948 39.9233 227.801 40.0804 226.535 40.319C226.63 41.2169 230.588 40.6937 228.105 40.642ZM425.545 46.273C423.959 46.1264 422.902 46.0287 422.869 46.3813C423.398 46.4302 423.926 46.4791 424.262 46.688C423.766 46.2864 426.201 46.8672 425.545 46.273ZM466.771 52.0412L466.82 51.5123C466.132 51.2708 464.739 50.9641 464.226 50.7389C465.284 50.8367 465.492 50.5004 466.566 50.4218C465.332 50.3077 459.919 49.2737 460.223 49.8353C460.239 49.6589 463.042 50.0959 462.849 50.256C462.321 50.2071 462.128 50.3671 461.952 50.3508C464.947 50.6278 463.456 51.379 465.731 51.7672C466.083 51.7997 466.259 51.816 466.771 52.0412ZM250.455 39.1521C250.775 39.5374 249.013 39.3744 249.493 39.9523C250.902 40.0826 251.287 39.7626 252.681 40.0692C252.746 39.3639 251.32 39.4099 250.455 39.1521ZM31.764 78.8574C29.7443 79.5598 29.343 80.0562 28.0607 80.4711C28.3021 79.7821 24.1813 82.0684 23.0752 82.4996C23.2188 82.8686 23.7963 82.3885 23.2188 82.8686C26.1846 81.5424 29.5192 80.0725 31.764 78.8574ZM301.144 38.6823C302.537 38.9889 303.099 38.6851 304.299 39.1518C305.774 38.5769 302.25 38.2511 301.144 38.6823ZM240.667 39.314C240.122 39.4414 240.618 39.8429 239.385 39.7289C239.463 40.8031 242.781 39.5095 244.719 39.6887L244.752 39.3361C242.83 38.9805 241.339 39.7318 240.667 39.314ZM319.968 38.8224C319.439 38.7735 319.119 38.3883 318.558 38.692C318.878 39.0773 318.062 38.2905 316.267 38.4802C316.587 38.8655 315.866 38.9766 315.321 39.104C317.1 39.0907 319.742 39.335 319.968 38.8224ZM272.917 38.3839C273.061 38.7528 273.942 38.8343 275.175 38.9483C275.031 38.5794 274.695 38.3705 272.917 38.3839ZM200.371 42.7009C199.842 42.652 199.842 42.652 199.858 42.4757C199.137 42.5869 198.24 42.6817 198.047 42.8417C200.932 42.3972 197.47 43.3218 198.896 43.2758C199.297 42.7795 200.338 43.0535 200.371 42.7009ZM314.202 37.7558C312.584 37.9618 309.941 37.7174 308.851 37.9723C309.171 38.3575 310.355 39.0005 311.445 38.7456C310.916 38.6967 310.933 38.5204 310.949 38.3441C312.006 38.4419 312.391 38.1218 313.272 38.2033C313.432 38.3959 314.297 38.6537 314.633 38.8626C313.977 38.2684 314.891 37.9973 314.202 37.7558ZM307.552 38.5635C307.569 38.3872 307.585 38.2109 307.954 38.0671C306.368 37.9205 304.766 37.9502 303.516 38.0125C303.643 38.5577 305.069 38.5117 307.552 38.5635ZM424.713 45.6626C423.303 45.5323 423.688 45.2122 422.102 45.0656C422.631 45.1145 423.975 45.9501 424.713 45.6626ZM218.189 40.2585C215.85 40.5757 217.628 40.5623 217.771 40.9312C217.05 41.0424 215.977 41.1209 216.858 41.2024C217.579 41.0913 219.165 41.2379 219.021 40.869C217.964 40.7712 217.788 40.7549 218.189 40.2585ZM36.0121 77.1164C33.8 77.9787 34.3938 77.3224 34.9713 76.8423C33.4639 77.7698 31.4768 78.1196 30.883 78.776C32.919 77.8973 33.9925 77.8187 35.2584 77.5801C35.0985 77.3875 35.8196 77.2764 36.0121 77.1164ZM38.5309 74.8597C38.3221 75.196 36.8473 75.771 35.9501 75.8658C35.5651 76.1859 35.7249 76.3785 35.34 76.6986C37.1997 75.8036 36.4297 76.4437 35.8522 76.9237C37.1508 76.3325 37.3596 75.9962 38.2895 75.5487C38.2732 75.725 39.0106 75.4375 39.1868 75.4538C38.4331 75.9176 37.5032 76.3651 37.2944 76.7014C39.6991 75.679 39.9731 74.6374 38.5309 74.8597ZM272.454 37.6297C271.925 37.5809 271.204 37.692 270.675 37.6431C270.819 38.0121 271.364 37.8846 272.437 37.8061C272.421 37.9824 272.597 37.9987 273.302 38.0638C273.863 37.7601 271.892 37.9335 272.454 37.6297ZM423.93 44.5233C423.913 44.6996 423.721 44.8596 423.352 45.0033L425.995 45.2477C426.028 44.8951 425.339 44.6536 423.93 44.5233ZM249.127 38.1402C249.16 37.7876 246.853 37.7521 246.468 38.0722C247.333 38.3299 247.861 38.3788 249.127 38.1402ZM271.093 36.9705C271.237 37.3394 269.987 37.4017 271.573 37.5483C272.31 37.2608 273.047 36.9734 271.093 36.9705ZM238.441 38.3969C238.97 38.4458 238.97 38.4458 239.322 38.4784C239.531 38.142 238.65 38.0606 237.56 38.3154C237.528 38.6681 237.512 38.8444 238.409 38.7495L238.441 38.3969ZM464.533 49.3447C463.476 49.2469 462.595 49.1655 462.226 49.3092C462.738 49.5344 464.5 49.6973 464.533 49.3447ZM265.647 36.2891C262.861 35.6758 265.726 37.3633 261.657 37.1649C263.402 37.5041 265.004 37.4744 267.504 37.3499C267.713 37.0135 265.934 37.0269 266.143 36.6906C266.688 36.5632 267.762 36.4846 267.954 36.3246C266.544 36.1942 266.864 36.5794 266.159 36.5143C265.455 36.4491 264.75 36.3839 264.783 36.0313C265.311 36.0802 265.295 36.2565 265.647 36.2891ZM421.655 44.1352C422.696 44.4092 423.753 44.507 425.163 44.6373C425.355 44.4773 424.667 44.2358 424.859 44.0758C423.081 44.0892 422.601 43.5113 423.499 43.4165C421.753 43.0772 420.712 42.8032 419.975 43.0906C420.52 42.9632 419.319 42.4965 419.11 42.8329C419.815 42.898 419.446 43.0418 419.078 43.1855C422.249 43.4788 421.512 43.7662 423.081 44.0892C423.081 44.0892 423.065 44.2655 422.536 44.2166C422.553 44.0403 421.848 43.9751 421.655 44.1352ZM323.736 36.5035C321.622 36.308 318.93 36.5925 320.131 37.0592C321.044 36.788 322.229 37.431 323.655 37.385C322.822 36.7746 324.425 36.7449 323.736 36.5035ZM387.346 40.4292C388.051 40.4944 389.075 40.9448 389.637 40.641C388.756 40.5595 388.1 39.9654 387.346 40.4292ZM184.448 41.9399C182.653 42.1296 181.74 42.4007 181.883 42.7697C182.604 42.6585 183.325 42.5474 184.03 42.6126C183.71 42.2273 184.784 42.1488 184.448 41.9399ZM46.4497 71.8576C48.4531 71.3316 51.5789 70.198 52.8774 69.6068C51.0829 69.7965 47.0924 70.6723 46.4497 71.8576ZM252.286 36.654C251.741 36.7815 248.201 36.6319 246.422 36.6453C246.214 36.9817 245.476 37.2691 246.902 37.2232C246.918 37.0468 246.758 36.8542 247.287 36.9031C246.71 37.3832 248.697 37.0334 248.295 37.5298L250.618 37.389C249.77 36.9549 254.159 37.5385 252.286 36.654ZM232.483 37.4903C230.689 37.68 229.263 37.726 229.407 38.0949C228.878 38.0461 227.821 37.9483 226.747 38.0269L226.715 38.3795C228.702 38.0298 229.038 38.2387 230.271 38.3527C230.656 38.0327 232.435 38.0193 232.483 37.4903ZM256.74 36.5324C255.859 36.4509 253.023 36.3666 253.134 37.0881C253.487 37.1207 254.031 36.9933 254.015 37.1696C255.617 37.1399 256.002 36.8198 256.74 36.5324ZM243.698 37.2825C243.89 37.1225 244.259 36.9788 244.964 37.0439C244.468 36.6424 243.972 36.2409 242.739 36.1269C241.616 36.7344 240.03 36.5878 238.748 37.0027C239.629 37.0841 239.068 37.3879 240.51 37.1656C241.055 37.0381 240.559 36.6366 241.44 36.7181C242.321 36.7996 242.944 37.7463 244.226 37.3314C243.858 37.4751 243.682 37.4588 243.698 37.2825ZM211.014 39.0616C211.174 39.2542 211.526 39.2868 211.879 39.3194C211.735 38.9505 213.673 39.1297 213.177 38.7282C211.399 38.7416 210.309 38.9964 209.076 38.8824C208.883 39.0424 207.04 39.7611 209.187 39.604C209.203 39.4276 209.748 39.3002 211.014 39.0616ZM185.427 40.9634C186.131 41.0286 187.397 40.79 187.348 41.319C186.787 41.6227 185.939 41.1886 186.066 41.7339C187.988 42.0894 197.747 40.3244 195.551 41.0105C198.051 40.886 198.628 40.4059 199.91 39.991C199.349 40.2947 199.333 40.4711 200.406 40.3925C200.791 40.0724 201.464 40.4902 202.729 40.2516C203.098 40.1079 203.291 39.9479 203.147 39.579C201 39.7361 199.046 39.7332 197.747 40.3244C197.427 39.9392 196.338 40.1941 195.953 40.5141C195.665 39.7763 192.363 40.8936 191.884 40.3157C194.047 39.9823 194.912 40.2401 195.489 39.76C194.031 40.1586 192.494 39.483 192.445 40.012C191.916 39.9631 191.58 39.7542 191.052 39.7053C189.978 39.7839 188.905 39.8624 188.007 39.9573C187.958 40.4863 186.164 40.676 185.427 40.9634ZM54.7861 68.1828C54.2412 68.3103 54.0651 68.294 53.8889 68.2777C52.7991 68.5326 51.4679 69.4764 52.3652 69.3816C52.2216 69.0126 54.946 68.3754 54.7861 68.1828ZM206.368 39.3433C206.4 38.9906 205.327 39.0692 204.606 39.1804C204.765 39.373 204.044 39.4841 204.204 39.6767C205.454 39.6145 205.294 39.4218 206.368 39.3433ZM59.788 65.978C57.9608 66.5203 57.0309 66.9678 55.5561 67.5427C55.716 67.7353 55.5235 67.8954 56.0684 67.7679C56.8221 67.3041 59.018 66.6181 59.788 65.978ZM240.882 35.0661C238.399 35.0143 239.968 35.3372 239.071 35.4321C237.821 35.4944 238.559 35.2069 238.575 35.0306C237.325 35.0929 235.723 35.1225 236.764 35.3966C237.342 34.9165 237.613 35.8307 235.851 35.6678C235.834 35.8441 237.371 36.5197 235.417 36.5168C235.56 36.8857 236.265 36.9509 237.691 36.9049C236.843 36.4708 240.977 35.9639 240.882 35.0661ZM213.963 37.9117C211.976 38.2615 212.201 37.7488 211.673 37.6999C210.952 37.8111 210.247 37.7459 209.35 37.8408L209.301 38.3697C211.272 38.1963 212.153 38.2778 212.104 38.8067C212.825 38.6956 214.427 38.6659 214.267 38.4733C213.738 38.4244 214.123 38.1044 213.963 37.9117ZM202.348 38.6159C204.863 38.3151 206.4 38.9906 208.227 38.4483C207.01 38.1579 204.015 37.881 202.348 38.6159ZM221.158 36.9766C220.629 36.9277 220.453 36.9114 220.277 36.8951C219.22 36.7974 218.45 37.4375 218.114 37.2286C218.323 36.8922 220.101 36.8788 220.293 36.7188C218.355 36.5396 217.233 37.1471 216.303 37.5946C216.815 37.8198 220.74 37.6493 221.158 36.9766ZM246.344 35.5711C247.77 35.5251 249.323 36.0244 249.901 35.5443C249.196 35.4792 245.111 35.4571 246.344 35.5711ZM215.295 36.9679C215.839 36.8404 216.544 36.9056 216.561 36.7293C214.975 36.5827 213.885 36.8375 213.484 37.3339C214.012 37.3828 214.365 37.4154 215.262 37.3205C215.454 37.1605 215.807 37.1931 215.295 36.9679ZM159.278 43.169C159.503 42.6563 156.955 43.3098 157.467 43.535C158.012 43.4076 158.364 43.4402 158.893 43.4891C159.086 43.329 158.205 43.2476 158.926 43.1364C158.926 43.1364 158.909 43.3127 159.278 43.169ZM249.453 34.6139C250.142 34.8554 248.876 35.094 250.285 35.2243C250.494 34.8879 252.224 35.4035 252.609 35.0835C251.023 34.9368 250.879 34.5679 249.453 34.6139ZM162.355 42.5644C163.445 42.3095 164.342 42.2146 164.551 41.8783C164.198 41.8457 164.022 41.8294 164.038 41.6531C163.317 41.7643 161.347 41.9377 161.33 42.114C161.875 41.9866 161.843 42.3392 162.211 42.1955C163.125 41.9243 162.371 42.3881 162.355 42.5644ZM216.466 35.8314C216.626 36.024 215.167 36.4226 216.577 36.553C217.986 36.6833 222.153 35.8238 224.284 35.843C224.156 35.2978 218.756 36.0432 219.814 36.141C218.548 36.3796 216.946 36.4092 218.052 35.978C218.052 35.978 218.404 36.0106 218.58 36.0269C217.523 35.9292 217.732 35.5928 216.466 35.8314ZM83.688 57.3406C83.7206 56.988 84.8104 56.7331 84.8267 56.5568C80.5165 57.0473 76.5718 59.35 73.8962 59.4582C73.8799 59.6345 74.216 59.8434 73.6711 59.9709C73.5112 59.7783 71.844 60.5132 70.9467 60.6081C71.1066 60.8007 70.9141 60.9607 71.459 60.8333C74.9697 59.3796 78.7676 58.6639 83.688 57.3406ZM184.229 38.541C184.196 38.8936 185.446 38.8313 186.519 38.7528C186.376 38.3838 185.671 38.3187 184.229 38.541ZM160.867 41.3598C158.912 41.357 158.671 42.0459 156.909 41.883C156.925 41.7067 157.47 41.5792 157.31 41.3866C155.852 41.7852 156.253 41.2889 155.532 41.4C156.028 41.8015 155.098 42.249 154.234 41.9913C154.922 42.2327 154.008 42.5039 154.713 42.5691C156.348 42.1868 156.668 42.572 158.335 41.837C158.319 42.0133 158.687 41.8696 158.847 42.0622C158.479 42.206 157.95 42.1571 157.934 42.3334C159.2 42.0948 160.13 41.6473 160.867 41.3598ZM126.8 46.5675C123.883 47.3647 121.08 46.9278 117.778 48.045C118.13 48.0776 119.589 47.679 119.572 47.8553C118.499 47.9339 117.938 48.2376 117.921 48.414C119.683 48.5769 126.333 47.7692 126.8 46.5675ZM127.328 46.6164C127.664 46.8253 128 47.0342 129.266 46.7956C130.213 46.1718 128.594 46.3778 127.328 46.6164ZM257.947 33.0875C259.307 33.7468 252.436 33.1114 251.666 33.7515C250.449 33.4611 246.315 33.968 247.117 32.9752C247.277 33.1679 250.256 33.6211 249.793 32.867C250.497 32.9322 252.292 32.7424 252.083 33.0788C251.731 33.0462 251.026 32.981 250.305 33.0922C250.465 33.2848 251.522 33.3826 252.596 33.304C253.124 33.3529 252.964 33.1603 252.981 32.9839C253.861 33.0654 253.509 33.0328 254.759 32.9705C252.948 33.3366 257.914 33.4401 257.947 33.0875ZM475.902 62.8437C478.417 62.5428 482.052 63.5902 486.953 64.399C483.445 63.8969 479.569 63.5384 475.902 62.8437ZM434.665 53.3402C436.251 53.4869 437.677 53.4409 438.238 53.1371C439.246 53.7638 435.849 53.9832 433.784 53.2588C433.64 52.8898 433.833 52.7298 434.361 52.7787C435.419 52.8765 433.448 53.0499 434.665 53.3402ZM355.703 42.4823C354.982 42.5935 353.187 42.7832 350.753 42.2025C351.49 41.915 352.564 41.8365 352.084 41.2586C353.158 41.1801 353.67 41.4053 353.383 40.6674C356.169 41.2807 352.724 42.0291 355.703 42.4823ZM389.598 44.9052C389.63 44.5526 388.766 44.2948 390.015 44.2325C391.249 44.3466 389.598 44.9052 391.376 44.8918C392.433 44.9896 391.425 44.3629 390.896 44.314C393.764 44.0457 392.56 45.5348 389.598 44.9052ZM343.177 41.5019C343.881 41.5671 342.808 41.6456 343.689 41.7271C342.054 42.1094 341.095 40.9538 339.653 41.1761C340.406 40.7123 339.013 40.4056 337.075 40.2264C338.71 39.8441 339.287 39.364 340.746 38.9654C341.995 38.9031 341.963 39.2558 343.036 39.1772C343.356 39.5624 340.922 38.9817 341.242 39.3669C342.475 39.481 341.561 39.7521 342.57 40.3788C344.172 40.3492 345.069 40.2543 347.007 40.4335C346.495 40.2083 344.909 40.0617 345.294 39.7416C346.88 39.8883 347.072 39.7282 348.482 39.8586C348.994 40.0838 348.257 40.3712 349.298 40.6453C350.355 40.7431 350.211 40.3741 351.637 40.3282C352.133 40.7297 352.117 40.906 350.691 40.952C350.675 41.1283 351.572 41.0334 352.1 41.0823C352.42 41.4675 351.363 41.3698 351.154 41.7061C350.466 41.4646 348.88 41.318 347.102 41.3314C347.598 41.7329 347.245 41.7003 346.7 41.8278C346.86 42.0204 347.389 42.0692 348.446 42.167C347.676 42.8071 345.787 42.0989 344.361 42.1449C344.217 41.776 345.275 41.8737 346.156 41.9552C345.819 41.7463 345.131 41.5048 344.795 41.2959C343.578 41.0055 344.762 41.6485 343.177 41.5019C342.328 41.0678 343.562 41.1819 342.697 40.9241C341.287 40.7937 341.783 41.1953 340.374 41.0649C340.71 41.2738 343.353 41.5182 343.177 41.5019ZM472.889 53.1404C473.098 52.8041 472.041 52.7063 472.586 52.5789C473.803 52.8692 473.836 52.5166 474.877 52.7907C474.508 52.9344 473.611 53.0293 473.93 53.4145C472.537 53.1078 472.681 53.4768 471.287 53.1701C471.832 53.0427 471.656 53.0264 470.951 52.9612C471.176 52.4485 471.832 53.0427 472.889 53.1404ZM342.478 37.5252C341.597 37.4437 339.675 37.0882 338.073 37.1179C336.647 37.1638 337.881 37.2779 337.672 37.6142C335.509 37.9477 334.836 37.5299 332.738 37.1581C334.373 36.7757 332.771 36.8054 331.361 36.6751C332.709 35.5549 339.838 35.325 343.522 35.8435C344.051 35.8923 343.891 35.6997 343.907 35.5234C344.772 35.7812 344.436 35.5723 345.669 35.6863L345.636 36.039C347.415 36.0256 349.545 36.0448 349.77 35.5321C348.041 35.0166 347.607 35.8655 345.333 35.4774C345.189 35.1085 346.775 35.2551 346.279 34.8536C347.705 34.8076 347.32 35.1277 348.025 35.1929C348.586 34.8891 349.147 34.5854 349.885 34.2979C350.925 34.572 350.749 34.5557 352.528 34.5423C352.302 35.0549 350.188 34.8594 349.274 35.1306C349.434 35.3232 351.389 35.3261 350.651 35.6136C351.356 35.6787 352.061 35.7439 352.958 35.6491C352.045 35.9202 353.118 35.8417 353.454 36.0506C353.774 36.4358 351.852 36.0803 352.508 36.6744C348.824 36.1559 351.066 36.8967 347.046 36.1693C345.989 36.0716 346.821 36.682 346.628 36.842C343.731 35.5071 338.97 37.023 335.848 36.2008C335.639 36.5371 336.344 36.6023 337.208 36.8601C339.003 36.6704 340.909 37.2022 341.63 37.0911C342.879 37.0288 341.228 37.5874 342.478 37.5252ZM358.371 36.6831C358.228 36.3141 357.347 36.2327 356.658 35.9912C356.867 35.6548 359.285 36.4119 359.846 36.1081C360.375 36.157 360.166 36.4934 360.326 36.686C362.12 36.4963 361.383 36.7837 363.866 36.8355C363.497 36.9792 362.424 37.0578 363.817 37.3644C363.432 37.6845 361.334 37.3127 360.277 37.2149C359.412 36.9571 361.031 36.7511 359.445 36.6045C359.044 37.1009 357.458 36.9542 356.704 37.418C355.647 37.3203 356.561 37.0491 356.224 36.8402C356.577 36.8728 357.282 36.9379 357.986 37.0031C357.314 36.5853 357.314 36.5853 358.371 36.6831ZM386.116 38.3594C386.964 38.7935 388.423 38.3949 388.791 38.2511C389.463 38.6689 388.39 38.7475 390.504 38.943C388.71 39.1327 386.452 38.5683 384.69 38.4053C385.444 37.9416 385.796 37.9742 384.771 37.5238C385.284 37.749 385.988 37.8141 387.062 37.7356C386.758 37.174 387.832 37.0955 388.569 36.808C389.578 37.4347 389.995 36.762 391.229 36.8761C389.385 37.5947 387.623 37.4318 386.116 38.3594ZM417.991 41.4846C418.007 41.3083 418.888 41.3897 419.417 41.4386C419.466 40.9097 416.63 40.8253 415.413 40.5349C418.298 40.0903 420.699 41.0237 424.383 41.5422C424.174 41.8785 422.076 41.5067 420.843 41.3926C420.826 41.569 421.355 41.6178 421.322 41.9705C419.609 41.2786 419.015 41.935 417.991 41.4846ZM440.335 43.9064C440.319 44.0827 438.237 43.5345 437.709 43.4856C437.549 43.293 438.077 43.3419 438.27 43.1819C437.004 43.4205 435.451 42.9212 433.336 42.7257C434.074 42.4382 435.467 42.7449 436.492 43.1953C436.524 42.8427 434.938 42.696 434.266 42.2782C432.664 42.3079 431.414 42.3702 429.812 42.3999C429.861 41.8709 426.817 42.1229 424.895 41.7674C424.911 41.591 424.735 41.5748 424.383 41.5422C425.296 41.271 425.633 41.4799 425.841 41.1435C430.325 42.6251 435.004 41.9907 441.49 42.9462C441.105 43.2662 440.433 42.8484 439.712 42.9596C439.696 43.1359 440.577 43.2174 441.105 43.2663C440.56 43.3937 438.958 43.4234 440.335 43.9064ZM457.779 45.5193C457.987 45.183 460.069 45.7311 460.438 45.5874C461.479 45.8614 459.156 46.0023 457.779 45.5193ZM470.768 47.2539C470.576 47.4139 470.24 47.205 469.359 47.1235C468.879 46.5457 470.625 46.8849 471.169 46.7575C472.563 47.0642 469.375 46.9472 470.768 47.2539ZM426.066 40.6309C424.321 40.2916 422.879 40.5139 421.613 40.7525C422.014 40.2562 423.649 39.8738 426.066 40.6309ZM52.4498 66.5442C52.2247 67.0569 50.6226 67.0865 51.0239 66.5902C51.3926 66.4464 51.3926 66.4464 51.5525 66.6391C52.6586 66.2079 51.7776 66.1264 53.2361 65.7278C53.2198 65.9041 50.9913 66.9428 52.4498 66.5442ZM207.431 35.5295C206.165 35.768 207.575 35.8984 206.116 36.297C207.509 36.6037 209.337 36.0613 210.201 36.3191C210.939 36.0316 212.012 35.9531 211.869 35.5841C212.573 35.6493 212.012 35.9531 212.733 35.8419C210.89 36.5606 207.702 36.4436 206.579 37.0512C207.702 36.4436 205.17 36.9208 204.256 37.192C203.392 36.9342 202.527 36.6764 200.556 36.8498C201.31 36.3861 201.646 36.595 203.248 36.5653C202.896 36.5327 202.191 36.4675 202.383 36.3075C204.002 36.1015 203.953 36.6304 205.203 36.5682C205.059 36.1992 203.633 36.2452 202.4 36.1312C203.682 35.7163 204.915 35.8303 207.431 35.5295ZM478.361 47.7781C477.336 47.3277 479.258 47.6833 480.139 47.7647C478.938 47.298 476.279 47.23 474.693 47.0834C477.738 46.8314 481.389 47.7025 485.954 48.3024C483.839 48.1069 479.274 47.5069 478.361 47.7781ZM200.732 36.8661C199.979 37.3299 198.745 37.2159 197.127 37.4219C197.336 37.0855 197.528 36.9255 198.954 36.8795C199.163 36.5432 198.266 36.638 197.545 36.7492C197.385 36.5566 200.253 36.2883 198.827 36.3343C201.728 35.7134 198.233 36.9907 200.732 36.8661ZM42.7691 69.3834C43.3302 69.0796 43.1867 68.7107 44.4363 68.6484C44.4526 68.4721 44.4689 68.2958 43.9241 68.4232C44.4852 68.1195 45.7838 67.5282 47.2586 66.9533C46.1362 67.5608 46.2961 67.7534 48.1396 67.0348C47.3696 67.6749 44.7398 69.2099 42.3841 69.7034C42.4167 69.3508 42.7854 69.2071 42.7691 69.3834ZM144.266 44.0926C144.634 43.9488 145.003 43.8051 145.195 43.6451C146.589 43.9517 141.75 44.3934 141.606 44.0245C142.504 43.9297 143.77 43.6911 144.266 44.0926ZM430.696 40.5255C430.168 40.4767 428.054 40.2811 426.628 40.3271C426.5 39.7819 426.132 39.9256 427.221 39.6707C428.631 39.8011 428.791 39.9937 430.377 40.1403C430.184 40.3003 430.168 40.4767 430.696 40.5255ZM484.417 47.6268C486.724 47.6623 483.409 47.0001 482.159 47.0624C482.368 46.726 484.978 47.323 486.211 47.4371C485.666 47.5645 485.81 47.9334 484.417 47.6268ZM418.637 38.3435C418.092 38.4709 416.506 38.3243 415.994 38.0991C417.756 38.262 418.846 38.0071 420.095 37.9448C419.903 38.1049 418.493 37.9745 418.637 38.3435ZM280.993 37.5302C279.567 37.5762 279.583 37.3999 278.702 37.3184C278.751 36.7894 279.648 36.6946 281.779 36.7138C281.586 36.8738 281.025 37.1776 280.993 37.5302ZM372.131 37.7775C370.898 37.6635 370.402 37.262 370.434 36.9094C372.421 36.5596 374.519 36.9314 375.88 37.5907C375.159 37.7019 372.18 37.2486 372.131 37.7775ZM331.316 35.2482C327.775 35.0987 325.661 34.9032 322.826 34.8189C324.251 34.7729 323.755 34.3714 324.124 34.2276C325.181 34.3254 325.902 34.2142 326.431 34.2631C326.095 34.0542 325.374 34.1654 325.583 33.829C328.947 33.9623 328.771 33.946 332.856 33.968C331.766 34.2229 332.454 34.4644 331.893 34.7682C330.82 34.8467 330.852 34.4941 329.603 34.5564C329.218 34.8764 330.643 34.8304 331.348 34.8956L331.316 35.2482Z" fill="#EFF4F0"/>
</svg>
